<?xml version="1.0" encoding="UTF-8" standalone="no"?>
<svg
   xmlns:dc="http://purl.org/dc/elements/1.1/"
   xmlns:cc="http://creativecommons.org/ns#"
   xmlns:rdf="http://www.w3.org/1999/02/22-rdf-syntax-ns#"
   xmlns:svg="http://www.w3.org/2000/svg"
   xmlns="http://www.w3.org/2000/svg"
   xmlns:sodipodi="http://sodipodi.sourceforge.net/DTD/sodipodi-0.dtd"
   xmlns:inkscape="http://www.inkscape.org/namespaces/inkscape"
   version="1.0"
   width="110"
   height="110"
   viewBox="0 0 82.5 82.499994"
   preserveAspectRatio="xMidYMid meet"
   id="svg28"
   sodipodi:docname="fern3 - Copy.svg"
   inkscape:version="0.92.4 (5da689c313, 2019-01-14)"
   inkscape:export-filename="C:\simpleblog\poetryblog\static\theblog\img\fern12.png"
   inkscape:export-xdpi="872.29999"
   inkscape:export-ydpi="872.29999">
  <defs
     id="defs32" />
  <sodipodi:namedview
     pagecolor="#000000"
     bordercolor="#666666"
     borderopacity="1"
     objecttolerance="10"
     gridtolerance="10"
     guidetolerance="10"
     inkscape:pageopacity="1"
     inkscape:pageshadow="2"
     inkscape:window-width="1366"
     inkscape:window-height="705"
     id="namedview30"
     showgrid="false"
     showborder="true"
     inkscape:pagecheckerboard="false"
     inkscape:zoom="0.44415145"
     inkscape:cx="190.0771"
     inkscape:cy="73.990593"
     inkscape:window-x="-8"
     inkscape:window-y="-8"
     inkscape:window-maximized="1"
     inkscape:current-layer="layer1"
     fit-margin-top="0"
     fit-margin-left="0"
     fit-margin-right="0"
     fit-margin-bottom="0"
     units="px" />
  <metadata
     id="metadata22">
Created by potrace 1.15, written by Peter Selinger 2001-2017
<rdf:RDF>
  <cc:Work
     rdf:about="">
    <dc:format>image/svg+xml</dc:format>
    <dc:type
       rdf:resource="http://purl.org/dc/dcmitype/StillImage" />
    <dc:title></dc:title>
  </cc:Work>
</rdf:RDF>
</metadata>
  <path
     style="fill:#ffcc00;stroke-width:0.16256571"
     d="m 42.267869,80.723171 c -0.34837,-0.97804 -0.77945,-1.94675 -0.95794,-2.15268 -0.45991,-0.53059 -3.30392,-1.79908 -4.03363,-1.79908 -0.32547,0 -0.81035,0.14124 -1.0775,0.31388 -1.1755,0.7596 -1.54243,0.81112 -6.0943,0.8557 -2.36989,0.0232 -4.30889,-0.006 -4.30889,-0.0664 0,-0.14523 1.68065,-0.90496 2.21844,-1.00283 0.6557,-0.11933 1.95284,-0.44895 2.04285,-0.51912 0.0442,-0.0344 -0.0319,-0.12566 -0.16923,-0.20266 -0.20397,-0.1144 -0.2093,-0.17657 -0.0292,-0.34002 0.15355,-0.13935 0.77438,-0.19827 2.04637,-0.19423 1.54406,0.005 2.02552,0.0707 3.11865,0.42589 1.42816,0.46407 1.52301,0.48165 1.52301,0.28199 0,-0.076 -0.1835,-0.17987 -0.4078,-0.23096 -0.22429,-0.0511 -0.45226,-0.19803 -0.50659,-0.32652 -0.13039,-0.30837 0.0459,-0.29495 0.99972,0.0761 0.95796,0.37264 1.22913,0.39514 0.93902,0.078 -0.1166,-0.12749 -0.72114,-0.37327 -1.34343,-0.54618 -2.44007,-0.67798 -3.3966,-1.08266 -3.85875,-1.63253 -0.52626,-0.62614 -0.47271,-0.77081 0.33634,-0.90855 0.32953,-0.0562 0.59916,-0.13833 0.59916,-0.18275 0,-0.0445 -0.19198,-0.30916 -0.42663,-0.58834 -0.55727,-0.66305 -0.5383,-0.86553 0.0811,-0.86553 0.47979,0 0.49818,-0.0227 0.33433,-0.41386 -0.23357,-0.55752 -0.0896,-0.82505 0.44395,-0.82505 0.36118,0 0.42399,-0.0557 0.33846,-0.3003 -0.0727,-0.20788 0.002,-0.35254 0.24447,-0.47005 0.19222,-0.0934 0.35003,-0.25441 0.35066,-0.35787 7.5e-4,-0.10353 0.26452,-0.35087 0.58639,-0.54977 0.55061,-0.34026 0.6136,-0.34736 1.06539,-0.12001 0.2641,0.1329 0.61456,0.28634 0.77882,0.34099 0.16424,0.0547 0.29864,0.20387 0.29864,0.33164 0,0.15621 0.11201,0.20572 0.342,0.15113 0.25683,-0.0609 0.36769,0.0117 0.44512,0.29167 0.0635,0.22949 0.22722,0.37283 0.42592,0.37283 0.41406,0 0.42957,0.56062 0.0363,1.30916 -0.30972,0.58942 -0.21646,0.86382 0.18964,0.55796 0.13894,-0.10465 0.33277,-0.14531 0.43074,-0.0904 0.30233,0.16956 0.19294,0.87734 -0.34771,2.24973 -0.69908,1.77458 -0.75674,2.10056 -0.44728,2.52918 0.36335,0.50324 2.61377,1.56667 2.73062,1.29033 0.10269,-0.24286 -1.043,-5.46622 -1.62568,-7.41164 -0.22183,-0.74063 -0.5449,-1.48858 -0.71795,-1.6621 -0.17305,-0.17353 -1.16239,-0.70001 -2.19855,-1.16997 -1.67448,-0.75946 -1.99911,-0.85384 -2.91995,-0.84901 -0.56981,0.003 -1.53517,0.10911 -2.14525,0.23582 -1.47297,0.30593 -5.97272,0.49131 -5.97272,0.24608 0,-0.0977 -0.24957,-0.18008 -0.55462,-0.1831 -0.30503,-0.003 -0.729,-0.0934 -0.94214,-0.20077 l -0.38755,-0.19528 0.50862,-0.34126 c 0.27974,-0.1877 0.61224,-0.34126 0.73889,-0.34126 0.12665,0 0.37933,-0.10228 0.56152,-0.22737 0.18219,-0.12506 0.60003,-0.2318 0.92852,-0.23723 0.32851,-0.005 0.74634,-0.11216 0.92853,-0.23722 0.48065,-0.32992 1.54039,-0.28021 3.40648,0.1598 1.86742,0.44031 1.86443,0.4399 1.7263,0.23707 -0.0563,-0.0826 -0.71744,-0.32645 -1.4694,-0.54202 -1.51972,-0.43567 -3.6344,-0.52583 -5.29387,-0.2257 -1.13046,0.20446 -4.41752,0.41445 -4.41752,0.28221 0,-0.053 -0.50623,-0.1332 -1.12496,-0.17827 -1.44884,-0.10554 -1.67773,-0.30537 -0.76729,-0.6699 0.38374,-0.15365 0.69771,-0.33009 0.69771,-0.39212 0,-0.062 0.24845,-0.16227 0.55211,-0.22279 0.30365,-0.0605 0.70681,-0.19755 0.89591,-0.3045 0.18909,-0.10694 0.98053,-0.28506 1.75876,-0.3958 0.77823,-0.11075 1.31578,-0.25105 1.19455,-0.31178 -0.12123,-0.0607 -1.60268,-0.14589 -3.29211,-0.18926 -4.26811,-0.10955 -5.76572,-0.47706 -3.90159,-0.95743 0.5503,-0.14179 1.23638,-0.32207 1.52462,-0.4006 0.28823,-0.0785 1.11375,-0.14277 1.83447,-0.14277 0.72074,0 1.31042,-0.065 1.31042,-0.14444 0,-0.0815 -1.2234,-0.16585 -2.80764,-0.19358 -1.90787,-0.0334 -2.87382,-0.10933 -3.01415,-0.23697 -0.16169,-0.14706 -0.0986,-0.22269 0.29056,-0.3485 0.27339,-0.0884 0.63042,-0.23036 0.7934,-0.3155 0.16297,-0.0852 0.45094,-0.15479 0.63993,-0.15479 0.18899,0 0.34361,-0.0697 0.34361,-0.15487 0,-0.0874 -0.4835,-0.15486 -1.10922,-0.15486 -1.22346,0 -1.43182,-0.18909 -0.51195,-0.4646 0.75698,-0.22671 0.75896,-0.40259 0.006,-0.5308 -0.70961,-0.1208 -0.94652,-0.38642 -0.44978,-0.5043 0.4583,-0.10877 0.45615,-0.30034 -0.006,-0.52475 -0.29003,-0.14086 -0.31614,-0.204 -0.12799,-0.30953 0.24477,-0.13727 0.26468,-0.193 0.30037,-0.84076 0.0166,-0.30115 0.11321,-0.38716 0.43493,-0.38716 0.22749,0 0.8096,-0.083 1.2936,-0.18433 0.68986,-0.14452 0.95274,-0.14312 1.21669,0.006 0.27972,0.15853 0.557,0.12181 1.63843,-0.21692 0.87612,-0.27443 1.82348,-0.43598 2.89754,-0.49414 0.8777,-0.0475 1.64344,-0.15633 1.70166,-0.24182 0.0704,-0.10342 -1.12431,-0.11832 -3.57248,-0.0445 -2.15627,0.065 -3.7178,0.0529 -3.77373,-0.0292 -0.1667,-0.24476 0.87979,-0.81036 1.68459,-0.91046 0.42661,-0.053 0.81648,-0.15644 0.86638,-0.22972 0.12639,-0.18558 -0.97245,-0.16624 -2.27808,0.0401 -0.94561,0.14944 -1.13421,0.13933 -1.36851,-0.0733 -0.24858,-0.22557 -0.19988,-0.27603 0.57084,-0.59144 l 0.84258,-0.34484 -0.93857,-0.12537 c -1.44762,-0.19337 -1.51045,-0.2378 -0.93114,-0.65841 l 0.50452,-0.36629 -0.46228,-0.1061 c -0.66877,-0.15346 -0.93157,-0.48658 -0.48528,-0.61513 0.40735,-0.11732 0.4441,-0.28117 0.11817,-0.52664 -0.25795,-0.19428 -0.23813,-0.94691 0.0423,-1.60534 0.1556,-0.36534 0.2776,-0.42588 0.85813,-0.42588 0.37221,0 0.72805,0.0753 0.79077,0.16741 0.0627,0.0921 0.29454,0.12629 0.51519,0.0761 0.29303,-0.0668 0.45063,-0.007 0.58465,0.21975 0.22603,0.38327 0.60742,0.40332 0.763,0.0401 0.10307,-0.2406 0.16053,-0.22439 0.51216,0.14447 0.21785,0.22852 0.43206,0.50727 0.47604,0.61946 0.0582,0.14855 0.1983,0.10532 0.51546,-0.15909 0.61422,-0.51203 1.08685,-0.33859 1.33129,0.48856 0.27816,0.94124 0.32767,0.96499 0.73488,0.35269 0.20292,-0.30514 0.54462,-0.66646 0.75931,-0.80293 0.35932,-0.22839 0.41554,-0.22744 0.70702,0.0119 0.27307,0.22427 0.30348,0.41828 0.2209,1.40921 -0.0675,0.81011 -0.0382,1.14914 0.0995,1.14914 0.10741,0 0.19528,-0.10685 0.19528,-0.23744 0,-0.38625 0.8405,-1.7758 1.07413,-1.7758 0.17711,0 0.76654,0.29892 1.14432,0.58031 0.0469,0.035 0.12371,0.66235 0.17064,1.39419 0.0878,1.3689 0.3898,1.86872 0.61493,1.01765 0.26307,-0.99449 1.14927,-2.04255 1.73965,-2.05739 0.31396,-0.008 1.05841,0.76015 1.05841,1.09196 0,0.43579 0.33156,0.51296 0.73789,0.17174 0.45363,-0.38094 1.79525,-0.38857 2.27594,-0.0129 0.17261,0.13488 0.44822,0.28849 0.61247,0.34135 0.33139,0.10665 0.3841,0.44586 0.13495,0.86836 -0.13114,0.22236 -0.0765,0.31364 0.27491,0.45892 0.36313,0.15015 0.42056,0.25388 0.33373,0.60274 -0.0577,0.23174 -0.15336,1.05188 -0.2126,1.82252 l -0.10773,1.40116 0.573,0.43755 c 0.65582,0.5008 1.30591,0.80097 1.4505,0.66975 0.0544,-0.0494 -0.0576,-1.15827 -0.2489,-2.46428 -0.19128,-1.30599 -0.42359,-2.93204 -0.51624,-3.61345 -0.11269,-0.82881 -0.36215,-1.62447 -0.7536,-2.40364 -0.54204,-1.07896 -0.65304,-1.19591 -1.50735,-1.58816 -1.57405,-0.72273 -1.94431,-0.77209 -6.58876,-0.87835 -4.64196,-0.10619 -5.35757,-0.21623 -4.37035,-0.67208 0.26889,-0.12416 0.91191,-0.27238 1.42894,-0.32939 1.19155,-0.13136 1.70693,-0.3853 0.85177,-0.41969 -1.07731,-0.0433 -1.94658,0.0387 -2.98636,0.28203 -1.11956,0.26191 -4.61858,0.35619 -5.46078,0.14713 l -0.51195,-0.12707 0.51195,-0.37294 c 0.28157,-0.2051 0.59955,-0.37328 0.70663,-0.37369 0.10706,-4.9e-4 0.52942,-0.13862 0.93856,-0.30711 0.40915,-0.16848 0.99348,-0.30786 1.29851,-0.30973 0.30504,-0.002 0.55461,-0.0741 0.55461,-0.16048 0,-0.10363 -0.81351,-0.12183 -2.39182,-0.0534 -2.2889,0.0991 -2.6154,0.0699 -4.09285,-0.36612 -0.271,-0.08 -0.2136,-0.11274 0.93856,-0.53545 0.46873,-0.17197 0.37164,-0.19601 -1.14988,-0.28456 -0.91402,-0.0532 -1.712,-0.14226 -1.77331,-0.1979 -0.12239,-0.11106 1.35467,-0.7284 1.7428,-0.7284 0.133,0 0.24183,-0.0645 0.24183,-0.14324 0,-0.0788 -0.68961,-0.19219 -1.53248,-0.25204 -0.84286,-0.0598 -1.49583,-0.1626 -1.45105,-0.22835 0.0448,-0.0657 0.46546,-0.20318 0.93482,-0.30536 1.0587,-0.23049 0.95249,-0.45976 -0.22247,-0.48024 -0.48721,-0.008 -1.07782,-0.0664 -1.31246,-0.1286 -0.41953,-0.1113 -0.41739,-0.11512 0.12798,-0.22918 0.73303,-0.1533 0.70308,-0.36178 -0.0709,-0.49357 -0.571,-0.0972 -0.59847,-0.12444 -0.3151,-0.31248 0.28244,-0.18742 0.28498,-0.21485 0.0282,-0.30426 -0.33147,-0.11542 -0.37592,-0.73318 -0.0688,-0.95699 0.39452,-0.28755 2.5394,-0.47431 3.08316,-0.26846 0.17787,0.0673 0.39254,0.0426 0.50342,-0.058 0.29269,-0.26561 0.65755,-0.21189 1.09528,0.1613 l 0.39496,0.33673 0.44112,-0.37544 0.44112,-0.37544 0.32681,0.3656 c 0.17974,0.20108 0.32797,0.51468 0.32941,0.69689 0.006,0.68452 0.27147,0.76998 0.6387,0.20514 l 0.34911,-0.53697 -0.34495,-0.13968 c -0.29311,-0.11869 -0.16316,-0.20609 0.86462,-0.58158 1.34419,-0.49107 1.45397,-0.80164 0.21889,-0.61925 -0.83967,0.12399 -2.80879,0.10786 -3.30749,-0.0271 -0.50285,-0.13609 -0.33947,-0.31536 0.63702,-0.69898 0.51461,-0.20218 0.93697,-0.41086 0.93857,-0.46377 0.002,-0.0529 -0.6995,-0.14603 -1.558,-0.20698 -0.8585,-0.061 -1.72241,-0.16855 -1.91981,-0.23912 -0.33265,-0.11892 -0.31833,-0.1417 0.19572,-0.31148 0.30504,-0.10071 0.55462,-0.23494 0.55462,-0.29824 0,-0.0632 -0.4378,-0.20398 -0.97289,-0.31265 l -0.97288,-0.19758 0.466,-0.22158 c 0.51179,-0.24336 0.46575,-0.5166 -0.087,-0.5166 -0.2924,0 -0.31638,-0.0391 -0.14136,-0.23047 0.17069,-0.18663 0.15844,-0.24868 -0.0644,-0.32629 -0.39141,-0.1363 -0.34041,-0.48294 0.10876,-0.73928 0.61148,-0.34897 2.47694,-0.58771 2.86661,-0.36688 0.26873,0.15231 0.36611,0.13247 0.5657,-0.11524 0.23574,-0.29258 0.25585,-0.29034 0.90743,0.10103 0.6519,0.3915 0.67471,0.39402 1.05222,0.11661 0.31232,-0.2295 0.46398,-0.25126 0.7956,-0.11414 0.29201,0.12075 0.54677,0.12207 0.8867,0.004 0.26234,-0.0907 0.76495,-0.2081 1.11692,-0.26099 1.25866,-0.18915 0.62968,-0.39186 -1.21588,-0.39186 -1.96134,0 -2.92237,-0.10725 -2.92237,-0.32614 0,-0.0729 0.19198,-0.17628 0.42663,-0.22973 0.57974,-0.13204 0.53998,-0.37333 -0.0615,-0.37333 -0.26847,0 -0.86239,-0.0466 -1.31983,-0.10342 l -0.83169,-0.10343 0.67989,-0.26148 0.67989,-0.26146 -0.91184,-0.1162 c -0.65977,-0.0841 -0.86026,-0.16299 -0.72526,-0.28552 0.29829,-0.27068 0.21806,-0.41709 -0.22854,-0.41709 -0.27338,0 -0.45443,-0.11235 -0.53021,-0.32906 -0.14505,-0.41473 0.0803,-0.54635 1.28663,-0.75161 0.51621,-0.0879 1.15578,-0.22506 1.42125,-0.30497 0.32533,-0.0979 0.6235,-0.087 0.91461,0.0333 0.35941,0.14861 0.46775,0.13412 0.64535,-0.0863 0.28045,-0.34807 0.50506,-0.33436 1.31836,0.0805 0.63084,0.32176 0.68838,0.32705 0.8423,0.0774 0.22959,-0.37231 0.67477,-0.3347 1.41189,0.11924 0.7512,0.46263 1.05523,0.485 1.32203,0.0974 0.19372,-0.28152 0.21711,-0.28055 0.81203,0.0336 0.33692,0.17789 0.63817,0.37802 0.66945,0.44472 0.0313,0.0667 0.16567,0.12125 0.29864,0.12125 0.13296,0 0.24175,0.13525 0.24175,0.30059 0,0.49552 0.36804,0.55413 0.77609,0.12363 l 0.3789,-0.39976 0.60488,0.37301 c 0.61266,0.3778 0.68122,0.49008 0.89216,1.46091 0.22218,1.02254 0.86584,1.3314 0.67859,0.32562 -0.064,-0.34349 -0.0405,-0.64384 0.0543,-0.69705 0.0917,-0.0515 0.1306,-0.21864 0.0865,-0.37162 -0.0529,-0.18344 0.0641,-0.34824 0.34377,-0.48402 0.39401,-0.19137 0.48403,-0.15989 1.27591,0.44606 0.99286,0.75975 1.12679,1.03031 1.3776,2.78284 0.18218,1.27293 0.51449,2.02466 0.895,2.02466 0.31236,0 0.0992,-4.14508 -0.24371,-4.73978 -0.43948,-0.76212 -2.06321,-1.2902 -5.70569,-1.85562 -1.42135,-0.22064 -1.69201,-0.30415 -1.46782,-0.45293 0.23814,-0.15803 0.20876,-0.19437 -0.21977,-0.27195 -0.27207,-0.0493 -0.99381,-0.13866 -1.60388,-0.19867 -1.31699,-0.12957 -1.80145,-0.30408 -1.27987,-0.46104 0.18771,-0.0565 0.45649,-0.14367 0.59728,-0.19374 0.14078,-0.0501 -0.47356,-0.15937 -1.3652,-0.24288 l -1.62117,-0.15184 0.63907,-0.24559 c 0.35148,-0.13506 0.63945,-0.29171 0.63993,-0.3481 5.5e-4,-0.0565 -0.3059,-0.14957 -0.68084,-0.20706 -0.6751,-0.10353 -1.12078,-0.3873 -0.60823,-0.3873 0.37389,0 0.33193,-0.26988 -0.0595,-0.38262 -0.81509,-0.23478 -0.4784,-1.08349 0.483,-1.21756 0.33575,-0.0469 1.06312,-0.1569 1.61636,-0.24462 0.85527,-0.1356 1.07997,-0.11979 1.50041,0.10558 0.40608,0.21771 0.51989,0.22779 0.63661,0.0564 0.16429,-0.24124 0.78626,-0.11659 1.24622,0.24975 0.26248,0.20908 0.35921,0.20556 0.91363,-0.0332 0.75247,-0.32404 0.63421,-0.44114 -0.69524,-0.68835 -1.65314,-0.30739 -1.72752,-0.33433 -1.393,-0.50421 0.46743,-0.23739 0.32926,-0.39985 -0.57079,-0.67116 -0.77454,-0.23346 -1.01652,-0.54163 -0.4253,-0.54163 0.42864,0 0.45301,-0.30545 0.0381,-0.47702 -0.29424,-0.12167 -0.40781,-0.29437 -0.40781,-0.62013 0,-0.24833 0.0794,-0.45148 0.17634,-0.45148 0.116,0 0.11302,-0.0575 -0.009,-0.16794 -0.10177,-0.0924 -0.1441,-0.30998 -0.0941,-0.48362 0.0847,-0.29384 0.169,-0.30721 1.21747,-0.19313 0.61958,0.0674 1.38361,0.1291 1.69786,0.13707 0.3841,0.009 0.67996,0.13617 0.90272,0.38583 0.25139,0.28173 0.37914,0.328 0.52933,0.19171 0.10888,-0.0988 0.33619,-0.17967 0.50514,-0.17967 0.4654,0 0.36959,-0.24881 -0.24745,-0.64254 -0.30503,-0.19462 -0.65609,-0.44329 -0.78011,-0.55255 -0.12402,-0.10928 -0.2968,-0.19869 -0.38396,-0.19869 -0.0872,0 -0.15846,-0.13193 -0.15846,-0.29316 0,-0.16123 -0.12315,-0.33605 -0.27368,-0.38847 -0.17018,-0.0593 -0.23289,-0.19176 -0.16582,-0.35036 0.0655,-0.15499 -0.0396,-0.39755 -0.26802,-0.61817 l -0.37587,-0.36309 0.84033,-0.0271 c 1.28214,-0.0413 2.18289,0.0385 2.41793,0.21443 0.11683,0.0874 0.35778,0.12446 0.53547,0.0822 0.18766,-0.0446 0.52776,0.0752 0.81149,0.2859 0.26864,0.1994 0.69961,0.36506 0.95772,0.36811 0.2581,0.003 0.61717,0.13978 0.79792,0.30381 0.18819,0.17078 0.46676,0.26546 0.65185,0.22152 0.42808,-0.10155 0.63872,0.16705 0.88799,1.13243 0.11368,0.44024 0.31327,0.92805 0.44355,1.08406 0.21659,0.25935 0.23724,0.23724 0.24133,-0.25841 0.0116,-1.39887 -0.42329,-1.925 -2.55336,-3.08941 -0.51621,-0.28219 -0.97696,-0.55988 -1.02389,-0.6171 -0.047,-0.0572 -0.36941,-0.26065 -0.71661,-0.45209 -0.36946,-0.20368 -0.59542,-0.43288 -0.54481,-0.55257 0.0476,-0.11251 -0.0411,-0.24895 -0.197,-0.30325 -0.17662,-0.0615 -0.24337,-0.19362 -0.17706,-0.35043 0.0585,-0.13842 -0.0519,-0.49506 -0.2452,-0.79254 -0.1934,-0.29746 -0.31404,-0.57495 -0.26809,-0.61666 0.046,-0.0417 0.32931,0.002 0.62967,0.097 0.30037,0.095 0.76052,0.17277 1.02254,0.17277 0.26202,0 0.52388,0.0697 0.58188,0.15487 0.058,0.0852 0.26141,0.15487 0.452,0.15487 0.1906,0 0.4798,0.14933 0.64267,0.33187 0.16287,0.18252 0.55824,0.40902 0.8786,0.5033 0.35127,0.10342 0.66971,0.33686 0.80226,0.58819 0.21233,0.40256 0.81386,0.71371 1.01934,0.52724 0.37519,-0.34049 -0.99405,-1.49905 -2.79516,-2.36509 -0.48259,-0.23205 -0.84294,-0.50347 -0.80078,-0.60318 0.0422,-0.0997 -0.043,-0.22294 -0.18912,-0.27385 -0.14618,-0.0509 -0.26578,-0.22666 -0.26578,-0.39057 0,-0.16393 -0.12006,-0.33983 -0.26679,-0.39094 -0.14674,-0.0511 -0.21369,-0.17088 -0.14879,-0.26617 0.17494,-0.25688 1.66296,-0.0427 3.01904,0.43449 1.71068,0.60201 1.74646,0.32971 0.12692,-0.9659202 -0.51621,-0.41298 -0.93856,-0.80367 -0.93856,-0.8682 0,-0.0645 -0.096,-0.20443 -0.21331,-0.31091 -0.11733,-0.10646 -0.21332,-0.32218 -0.21332,-0.47935 0,-0.24206 0.0903,-0.2704 0.59012,-0.18531 0.32456,0.0553 0.88131,0.19198 1.23721,0.3038 0.89163,0.28018 0.92118,0.0311 0.0894,-0.75338 -0.37526,-0.35391 -0.77075,-0.80027 -0.87888,-0.99192 -0.16995,-0.30124 -0.15298,-0.34844 0.12526,-0.34844 0.17701,0 0.56204,0.076 0.85562,0.16886 0.87837,0.27789 0.92397,0.10538 0.2025,-0.76598 -0.97516,-1.17778 -0.9079,-1.53382 0.19223,-1.01754 0.28563,0.13405 0.55736,0.2092 0.60384,0.16701 0.0465,-0.0422 -0.11424,-0.38445 -0.35716,-0.76062 -0.55041,-0.85233 -0.5496,-0.91951 0.01,-0.79215 0.42305,0.0963 0.44396,0.0762 0.33394,-0.32158 -0.0677,-0.2448 -0.037,-0.51222 0.0725,-0.63197 0.13607,-0.14879 0.13815,-0.29525 0.007,-0.51703 -0.25357,-0.42998 -0.23339,-0.48468 0.1787,-0.48468 0.27719,0 0.34044,-0.072 0.27196,-0.30973 -0.0491,-0.17035998 -0.025,-0.30972998 0.0536,-0.30972998 0.0785,0 0.16735,-0.15134 0.19734,-0.33632 0.0868,-0.53512 0.47066,-0.52438 0.58985,0.0165 0.0583,0.26462 0.17291,0.51865 0.25465,0.56449 0.0817,0.0458 0.14861,0.21859998 0.14861,0.38392998 0,0.20118 0.11736,0.30059 0.35486,0.30059 0.3055,0 0.33922,0.0646 0.24241,0.46461 -0.10318,0.42629 -0.0747,0.46459 0.34624,0.46459 0.47163,0 0.49676,0.16788 0.14843,0.99162 -0.086,0.20339 -0.0121,0.2294 0.4259,0.14991 0.6227,-0.11303 0.68012,0.0909 0.27398,0.97304 -0.33349,0.72433 -0.33641,0.71869 0.23434,0.45087 0.90802,-0.42613 0.9511,0.11713 0.1039,1.31048 -0.33018,0.46508 -0.53071,0.86668 -0.44563,0.89242 0.0851,0.0258 0.62402,-0.15952 1.19761,-0.41166 0.79925,-0.35136 1.04289,-0.40551 1.04289,-0.23177 0,0.44146 -0.50606,1.07342 -1.52655,1.90632 -1.37505,1.12229 -1.34866,1.3413 0.10195,0.8458 0.75331,-0.25732 1.39511,-0.3722 1.90795,-0.34151 l 0.77279,0.0462 -0.50008,0.49518 c -0.27505,0.27235 -0.78869,0.6045402 -1.14143,0.7382202 -0.35275,0.13367 -0.80589,0.36383 -1.00701,0.51146 -1.66897,1.22505 -1.75976,1.53843 -0.25907,0.89415 1.07672,-0.46226 2.62949,-0.85806 3.36628,-0.85806 h 0.50361 l -0.66575,0.60417 c -0.36616,0.33229 -0.82691,0.65059 -1.02389,0.70733 -0.19698,0.0568 -0.35843,0.18557 -0.35878,0.28631 -3.7e-4,0.10071 -0.49136,0.41342 -1.09114,0.69484 -1.18491,0.55599 -1.73601,1.00095 -1.55994,1.25949 0.19393,0.28475 0.60532,0.18024 1.02838,-0.26126 0.33733,-0.352 0.4617,-0.39568 0.71708,-0.25181 0.24273,0.13673 0.40288,0.11391 0.74691,-0.10644 0.31434,-0.20133 0.95598,-0.31751 2.27376,-0.41168 1.00971,-0.0721 1.86439,-0.0893 1.89929,-0.0381 0.0921,0.13525 -1.37077,1.38873 -1.62072,1.38873 -0.11713,0 -0.16752,0.10301 -0.11322,0.23138 0.0724,0.17125 -0.10025,0.27663 -0.66435,0.40554 -0.54093,0.12361 -0.76217,0.25326 -0.76217,0.44663 0,0.19101 -0.30456,0.37583 -1.01864,0.61818 -0.56025,0.19013 -1.11699,0.45379 -1.23721,0.58591 -0.12021,0.13209 -0.99365,0.5689 -1.94097,0.97066 -1.89561,0.80395 -2.40874,1.29581 -2.58318,2.47605 -0.12104,0.81892 0.17955,0.79521 0.54591,-0.0431 0.35212,-0.80568 1.06462,-1.51764 1.40142,-1.40035 0.14287,0.0498 0.49757,-0.1336 0.83841,-0.43339 0.50042,-0.44017 0.63954,-0.49201 0.90959,-0.33896 0.26003,0.14739 0.37343,0.12592 0.61503,-0.11635 0.40227,-0.40339 0.85072,-0.51106 1.27348,-0.30574 0.28461,0.13823 0.43831,0.11003 0.79738,-0.14627 0.24464,-0.17464 0.61108,-0.31752 0.81428,-0.31752 0.20322,0 0.44244,-0.0617 0.5316,-0.13706 0.19341,-0.16354 2.80719,-0.32737 2.80719,-0.17598 0,0.21281 -1.06181,1.55194 -1.23054,1.55194 -0.0959,0 -0.13528,0.13598 -0.0874,0.30217 0.0745,0.25849 -0.046,0.32725 -0.83335,0.47559 -0.94988,0.17895 -1.22435,0.50761 -0.57911,0.69345 0.18771,0.0541 0.34129,0.19816 0.34129,0.32018 0,0.28729 0.0554,0.28095 0.7121,-0.0815 0.40185,-0.22179 0.60892,-0.25877 0.76987,-0.13755 0.1211,0.0912 0.31715,0.1329 0.43566,0.0927 0.11853,-0.0403 0.73078,-0.0306 1.36057,0.0214 l 1.14509,0.0946 -0.73516,0.71484 c -0.40434,0.39318 -0.84283,0.75374 -0.97443,0.80127 -0.20123,0.0726 -0.19858,0.11251 0.0167,0.25067 0.22242,0.14276 0.21829,0.1646 -0.0315,0.16666 -0.15814,0.002 -0.49285,0.0733 -0.7438,0.1598 -0.36015,0.12425 -0.41551,0.20203 -0.26274,0.36908 0.25133,0.27481 0.06,0.34041 -1.40896,0.48317 -1.28274,0.12466 -1.54136,0.29394 -0.87195,0.57073 0.4193,0.17337 0.44844,0.24543 0.37597,0.92985 -0.0813,0.76826 0.10206,1.00402 0.30608,0.39346 0.16636,-0.49783 0.74223,-1.0276 1.50059,-1.38047 0.60992,-0.28381 0.67002,-0.28694 0.86503,-0.0449 0.19434,0.24118 0.26231,0.23565 0.93604,-0.0763 0.57064,-0.26419 0.7786,-0.29712 0.96932,-0.15347 0.1869,0.14076 0.35834,0.13945 0.74461,-0.006 0.28912,-0.10869 0.59658,-0.13332 0.72541,-0.0581 0.12299,0.0718 0.4156,0.13508 0.65024,0.14073 0.23464,0.005 1.03515,0.0234 1.7789,0.0394 l 1.35228,0.029 -0.37105,0.35844 c -0.20407,0.19713 -0.37104,0.40619 -0.37104,0.46458 0,0.19121 -0.64453,0.69619 -0.96574,0.75663 -0.20524,0.0386 -0.30047,0.17547 -0.27474,0.39476 0.0318,0.27119 -0.0751,0.35514 -0.55649,0.4371 -0.63759,0.10855 -0.87837,0.29295 -0.59212,0.45349 0.35812,0.20087 -0.0437,0.38717 -0.83488,0.38717 -0.92092,0 -1.12939,0.10529 -0.83844,0.42344 0.28932,0.31637 -0.02,0.44538 -1.33509,0.55683 -1.31717,0.11162 -1.55818,0.21586 -1.14025,0.4932 0.28755,0.19081 0.27728,0.21195 -0.1504,0.30936 -0.42393,0.0965 -0.45759,0.16269 -0.43997,0.86438 0.0105,0.41789 0.0824,0.75982 0.15974,0.75982 0.0773,0 0.2955,-0.29618 0.48473,-0.65817 0.25551,-0.48876 0.56793,-0.77019 1.21371,-1.09328 0.47829,-0.2393 0.9047,-0.40326 0.94757,-0.36434 0.0429,0.0389 0.0922,0.32148 0.10971,0.62797 0.0175,0.30648 0.0718,0.55755 0.12086,0.55794 0.049,0 0.37501,-0.21318 0.72444,-0.47458 0.44162,-0.33034 0.73971,-0.4452 0.97758,-0.37669 0.215,0.0619 0.52644,-0.0204 0.83774,-0.22163 0.54842,-0.35438 1.14572,-0.41979 1.24965,-0.13682 0.0494,0.13447 0.25397,0.1156 0.76732,-0.0708 0.60628,-0.22014 0.72719,-0.2244 0.90336,-0.0317 0.15581,0.17037 0.2841,0.18321 0.54836,0.0549 0.24824,-0.12057 0.46078,-0.11966 0.75803,0.003 0.22719,0.0939 0.65903,0.17236 0.95965,0.17425 l 0.54659,0.003 -0.42663,0.30286 c -0.26074,0.18508 -0.33262,0.30417 -0.18487,0.30627 0.29572,0.004 0.14056,0.16889 -0.20213,0.21454 -0.13619,0.0182 -0.37909,0.15228 -0.53977,0.29811 -0.16069,0.14583 -0.40185,0.26514 -0.53594,0.26514 -0.3002,0 -0.32289,0.25978 -0.0304,0.34895 0.11732,0.0358 -0.0747,0.15152 -0.42663,0.2572 -0.75808,0.22765 -0.8138,0.40472 -0.17328,0.55061 0.37382,0.0852 0.54194,0.0268 0.84506,-0.29295 0.43079,-0.4545 0.65625,-0.50167 0.79779,-0.16693 0.13771,0.32569 0.51142,0.28902 0.88637,-0.0869 0.1751,-0.17559 0.44487,-0.28923 0.59948,-0.25255 0.15461,0.0367 0.4264,-0.008 0.60398,-0.099 0.17758,-0.0912 0.59165,-0.17436 0.92015,-0.18484 0.3285,-0.0104 0.77005,-0.0709 0.98123,-0.13413 0.46357,-0.13892 0.51343,0.13374 0.1181,0.64595 -0.14622,0.18945 -0.22086,0.41053 -0.16587,0.49128 0.055,0.0808 -0.0696,0.22918 -0.27684,0.32984 -0.35404,0.17196 -0.35862,0.19511 -0.0757,0.38289 0.26783,0.17772 0.19563,0.23005 -0.65185,0.47249 -1.1203,0.32048 -1.22591,0.52579 -0.27043,0.52579 0.37543,0 0.6826,0.0612 0.6826,0.13598 0,0.0748 -0.47644,0.29768 -1.05875,0.49531 l -1.05875,0.35932 0.54681,0.12858 c 0.30073,0.0708 0.54679,0.19158 0.54679,0.26858 0,0.165 -0.16238,0.211 -1.96247,0.55583 -1.70059,0.32578 -1.9928,0.53292 -0.75938,0.5383 0.5165,0.002 1.23193,0.12709 1.609,0.28077 l 0.67896,0.2767 -1.90791,0.33869 c -1.04936,0.18629 -2.25266,0.3387 -2.67403,0.3387 -0.42136,0 -0.8063,0.059 -0.85541,0.13114 -0.0491,0.0721 0.53014,0.32149 1.28725,0.55414 1.36367,0.41905 1.37999,0.42021 1.74306,0.1242 0.66428,-0.54157 0.79963,-0.55206 1.31718,-0.10206 l 0.4963,0.4315 0.10294,-0.46712 c 0.10569,-0.47957 0.79861,-0.98152 1.35494,-0.98152 0.16084,0 0.56323,-0.21577 0.8942,-0.47948 0.47791,-0.3808 0.70403,-0.46092 1.09868,-0.3893 0.30672,0.0556 0.64612,0.001 0.8868,-0.14164 0.2962,-0.17613 0.74041,-0.21529 1.84875,-0.16295 1.72648,0.0815 2.69101,0.22849 2.69101,0.41006 0,0.12168 -0.25713,0.19962 -1.87714,0.56902 -0.38229,0.0871 -0.58992,0.22384 -0.57685,0.37967 0.0148,0.17671 -0.18406,0.2644 -0.72518,0.31976 -0.77595,0.0794 -1.3216,0.35982 -1.16044,0.59647 0.0515,0.0756 0.24257,0.13731 0.42475,0.13731 0.18217,0 0.33122,0.0649 0.33122,0.14432 0,0.20357 -0.95083,0.79392 -1.48912,0.92457 -0.64707,0.15704 -0.64976,0.38755 -0.008,0.64405 1.20543,0.48141 0.38485,1.10564 -1.90866,1.45197 -1.96118,0.29616 -2.37821,0.54687 -0.93773,0.56376 0.55845,0.006 1.3101,0.0936 1.67033,0.19357 l 0.65495,0.18168 -0.41158,0.34982 c -0.48494,0.41215 -2.03469,0.81056 -3.16776,0.81436 -1.55645,0.005 -4.12992,0.67237 -4.12992,1.07064 0,0.0749 0.44155,0.0289 0.98123,-0.10207 1.23608,-0.30017 4.03486,-0.35232 4.33433,-0.0808 0.11741,0.10647 0.3901,0.19358 0.60597,0.19358 0.21587,0 0.3925,0.0697 0.3925,0.15487 0,0.0852 0.12158,0.15485 0.27019,0.15485 0.3835,0 0.20595,0.3539 -0.28387,0.56584 -1.31992,0.57112 -1.56962,0.60888 -5.36178,0.81099 -1.4844,0.0791 -2.8465,0.23373 -3.24234,0.36808 -1.07756,0.3657 -1.96246,0.77896 -1.96246,0.91648 0,0.1739 0.0499,0.1664 1.16953,-0.17589 0.54346,-0.16615 1.67547,-0.34917 2.51557,-0.40673 1.29596,-0.0888 1.56236,-0.0665 1.75778,0.14721 0.14048,0.15362 0.48938,0.25187 0.89435,0.25187 0.36521,0 0.79737,0.064 0.96034,0.14213 0.16297,0.0782 0.64189,0.28156 1.06424,0.45197 l 0.76792,0.30984 -0.63993,0.24699 c -0.35197,0.13587 -0.63994,0.31709 -0.63994,0.40275 0,0.089 -0.18376,0.11388 -0.42883,0.058 -0.2466,-0.0562 -0.5372,-0.0161 -0.68382,0.0944 -0.17609,0.13262 -0.56109,0.1606 -1.24449,0.0905 -0.54423,-0.0558 -1.04188,-0.0541 -1.10589,0.004 -0.064,0.0581 -1.48039,0.11892 -3.14752,0.13518 -2.28914,0.0223 -3.24,0.0921 -3.88438,0.28525 -1.71391,0.5136 -1.7675,0.83646 -0.078,0.46985 0.60604,-0.1315 1.56264,-0.24799 2.12579,-0.25885 1.27617,-0.0246 3.36834,0.43975 4.14993,0.9211 0.3248,0.20003 0.69502,0.36368 0.82271,0.36368 0.39545,0 0.25532,0.29856 -0.18747,0.3994 -0.23079,0.0526 -0.50896,0.19329 -0.61816,0.31269 -0.10919,0.11941 -0.45791,0.21711 -0.77492,0.21711 -0.31701,0 -0.57637,0.0697 -0.57637,0.15486 0,0.0852 -0.19439,0.15487 -0.43199,0.15487 -0.48081,0 -0.74264,0.38977 -0.44392,0.66084 0.27573,0.25024 0.23887,0.75986 -0.0854,1.17993 -0.23355,0.3026 -0.24045,0.38298 -0.0426,0.49654 0.37792,0.21698 0.55095,0.0887 1.00106,-0.74203 0.34021,-0.62792 0.57576,-0.84474 1.19455,-1.09966 1.12481,-0.46338 1.98523,-0.67956 2.51907,-0.6329 0.79108,0.0691 2.30032,-0.47808 2.88225,-1.04504 0.75766,-0.73816 1.38906,-0.71095 2.28075,0.0983 0.37544,0.3407 0.72499,0.61945 0.77681,0.61945 0.0518,0 0.17198,-0.20248 0.26704,-0.44996 0.21663,-0.56393 0.93383,-0.86436 1.55327,-0.65064 0.24278,0.0838 0.4918,0.22629 0.55339,0.31673 0.19218,0.2822 0.60378,0.17983 0.60378,-0.15017 0,-0.49224 0.38082,-0.51184 1.72186,-0.0886 0.91193,0.28781 1.30288,0.34794 1.46554,0.22543 0.25743,-0.19389 0.99579,-0.0942 2.65758,0.35866 1.04831,0.2857 1.64125,0.59342 1.14346,0.59342 -0.11287,0 -0.15332,0.108 -0.0935,0.24955 0.0739,0.17463 0.0317,0.22384 -0.14028,0.16394 -0.55047,-0.19171 -1.46457,-0.28475 -1.46457,-0.14909 0,0.0792 0.24958,0.26333 0.55461,0.40919 0.45711,0.21856 0.47961,0.25036 0.12799,0.18086 -0.23465,-0.0463 -0.77219,-0.12282 -1.19455,-0.16986 l -0.76792,-0.0856 0.6826,0.41193 0.68259,0.41194 -0.59727,-0.0979 c -1.37065,-0.22464 -3.24234,-0.2876 -3.24234,-0.10907 0,0.0978 0.096,0.17787 0.21331,0.17794 0.11733,0 0.71247,0.22491 1.32254,0.49966 l 1.10922,0.49953 -0.71388,0.0507 c -0.39263,0.0279 -1.2917,-0.0575 -1.99793,-0.18993 -1.38443,-0.25951 -4.02884,-0.32756 -4.02884,-0.10364 0,0.0753 0.44155,0.18372 0.98123,0.24077 1.29214,0.13662 3.22293,0.70452 2.93822,0.86421 -0.11849,0.0665 -1.47119,0.17109 -3.00601,0.23253 -1.53482,0.0615 -2.79058,0.16393 -2.79058,0.22776 0,0.0638 -0.61898,0.18775 -1.3755,0.27539 -0.75652,0.0877 -1.50525,0.26101 -1.66383,0.38526 -0.41119,0.32216 -1.34174,0.5795 -2.09555,0.5795 -0.80418,0 -1.04259,0.28032 -0.34593,0.40675 0.28299,0.0513 0.65182,0.23107 0.81962,0.39934 0.28516,0.28595 0.28629,0.31842 0.0174,0.49688 -0.15825,0.10501 -0.61799,0.27973 -1.02163,0.38827 -0.40364,0.10852 -0.86723,0.26022 -1.03022,0.33709 -0.16297,0.0769 -0.44834,0.13978 -0.63414,0.13978 -0.18581,0 -0.59,0.0965 -0.89822,0.21447 -1.10417,0.42256 -1.58746,0.49647 -2.3959,0.36637 -0.50931,-0.0819 -0.92245,-0.072 -1.10922,0.0267 -0.26232,0.13867 -0.24992,0.1579 0.1046,0.16204 0.27793,0.003 0.37321,0.0733 0.30837,0.22665 -0.064,0.1512 0.0662,0.25383 0.40836,0.32203 0.27622,0.0551 0.50221,0.16425 0.50221,0.24266 0,0.0784 0.15359,0.14256 0.34131,0.14256 0.18771,0 0.34129,0.0971 0.34129,0.21573 0,0.11865 0.11389,0.25539 0.2531,0.30387 0.13921,0.0485 0.21373,0.18123 0.16562,0.29502 -0.0481,0.11377 0.10677,0.37248 0.34417,0.57488 0.23742,0.20241 0.43166,0.53227 0.43166,0.73304 0,0.20076 0.11329,0.40447 0.25175,0.4527 0.22009,0.0766 0.21806,0.14679 -0.0161,0.55771 -0.20644,0.36229 -0.21996,0.49691 -0.0589,0.5872 0.12505,0.0701 0.17667,0.31634 0.12862,0.61349 -0.066,0.40804 -0.009,0.52574 0.31987,0.66177 0.22008,0.091 0.43516,0.13367 0.47795,0.0949 0.0428,-0.0388 0.15588,-0.8183 0.25129,-1.73213 0.17727,-1.69781 0.36766,-2.27407 0.75134,-2.27407 0.11914,0 0.5145,-0.2476 0.87854,-0.55023 0.36407,-0.30262 0.99536,-0.63114 1.40288,-0.73005 0.40751,-0.0989 0.84584,-0.32515 0.97407,-0.50274 0.12821,-0.17759 0.54869,-0.45203 0.93436,-0.60986 l 0.70124,-0.28697 0.34118,0.357 c 0.35232,0.36865 0.4019,0.50571 0.3501,0.96778 -0.0167,0.14905 0.0602,0.27101 0.17091,0.27101 0.12845,0 0.16039,0.12608 0.0883,0.34845 -0.0622,0.19165 -0.13615,0.48782 -0.16444,0.65818 -0.0283,0.17035 -0.29574,0.65751 -0.59434,1.08258 -0.35855,0.51043 -0.473,0.79402 -0.33704,0.83514 0.54226,0.16404 1.85162,-2.00411 1.85162,-3.06606 0,-0.2419 0.11518,-0.52657 0.25597,-0.63261 0.14079,-0.10603 0.25598,-0.28176 0.25598,-0.39049 0,-0.2658 1.18372,-0.8111 1.89869,-0.87467 0.53508,-0.0476 0.60382,0 0.9738,0.67691 0.459,0.83954 0.40416,1.13994 -0.35052,1.91998 -0.28579,0.29537 -0.48582,0.56771 -0.44454,0.60518 0.18347,0.1665 1.34283,-0.75219 1.70681,-1.35249 0.37674,-0.62135 0.45158,-0.66478 1.22282,-0.70955 0.88646,-0.0515 1.30696,0.14438 1.30696,0.60868 0,0.34877 0.38682,0.3819 0.6826,0.0584 0.31572,-0.34525 1.31685,-0.29835 1.57286,0.0737 0.17013,0.24722 0.33113,0.28848 0.83841,0.21486 0.52292,-0.0759 0.6601,-0.0364 0.82079,0.23605 0.11352,0.19251 0.36036,0.32716 0.59972,0.32716 0.22374,0 0.6242,0.10228 0.88991,0.22732 0.26571,0.12503 1.08795,0.46631 1.82721,0.75841 1.2173,0.48099 1.31019,0.54755 0.98473,0.70561 -0.19764,0.096 -0.56554,0.12757 -0.81754,0.0701 -0.37986,-0.0865 -0.43972,-0.0606 -0.35016,0.15112 0.0778,0.18408 0.0142,0.25547 -0.22791,0.25547 -0.18477,0 -0.33594,0.0675 -0.33594,0.15002 0,0.19825 -0.36744,0.0613 -1.50973,-0.56299 -1.24756,-0.68176 -1.91938,-0.70988 -0.91298,-0.0382 0.39392,0.26289 0.71622,0.50813 0.71622,0.54498 0,0.10687 -0.8771,-0.12151 -1.63756,-0.4264 -0.98448,-0.39471 -2.98915,-0.796 -3.16756,-0.63408 -0.0839,0.0761 0.24175,0.24861 0.74993,0.3973 0.96926,0.28358 2.72842,1.3579 2.39079,1.46004 -0.11329,0.0342 -0.64906,-0.055 -1.1906,-0.19847 -0.54154,-0.14342 -1.52216,-0.39258 -2.17917,-0.5537 -1.39359,-0.34176 -4.46462,-0.58465 -4.29796,-0.33995 0.0592,0.087 0.4362,0.19992 0.83766,0.2509 1.11894,0.14209 3.48434,0.8615 3.92237,1.19293 l 0.39118,0.29599 -0.62986,0.005 c -0.34643,0.003 -0.67732,0.0748 -0.73533,0.16002 -0.16211,0.23803 -3.49109,0.18456 -4.86736,-0.0782 -1.24845,-0.23832 -2.67902,-0.27176 -2.81923,-0.0659 -0.043,0.0632 0.30567,0.16288 0.77494,0.22145 0.46927,0.0586 0.89623,0.16965 0.9488,0.24685 0.0525,0.0772 0.30224,0.14845 0.5548,0.15832 0.28893,0.0113 0.34847,0.0443 0.16058,0.0888 -0.51045,0.12106 -0.32936,0.32591 0.3849,0.43541 0.66192,0.10155 1.33748,0.64735 1.06404,0.85977 -0.33921,0.26348 -3.31789,0.52373 -6.04993,0.52854 -2.73004,0.005 -3.05202,0.0335 -3.32767,0.29608 -0.29644,0.28241 -0.28807,0.28745 0.2921,0.17617 0.85987,-0.16494 0.97083,-0.16587 2.43176,-0.0203 0.72739,0.0724 1.32253,0.19329 1.32253,0.26847 0,0.0751 0.23038,0.13666 0.51194,0.13666 0.31021,0 0.51195,0.0806 0.51195,0.20438 0,0.11239 0.20392,0.36526 0.45314,0.56191 l 0.45314,0.35757 -0.41047,0.28638 c -0.22577,0.15752 -0.57505,0.28794 -0.77619,0.28983 -0.20114,0.002 -0.4099,0.10798 -0.46392,0.23574 -0.0617,0.14582 -0.32261,0.2323 -0.70086,0.2323 -0.33383,0 -0.60263,0.078 -0.60263,0.17481 0,0.1197 -0.26292,0.14317 -0.83373,0.0744 -0.66702,-0.0802 -0.8541,-0.0522 -0.93562,0.1406 -0.082,0.19393 -0.26905,0.22086 -0.95809,0.1379 -0.83695,-0.10071 -0.85619,-0.094 -0.85619,0.2986 0,0.24062 0.13428,0.46687 0.33493,0.56433 0.20429,0.0992 0.2955,0.25598 0.23382,0.40185 -0.067,0.15861 0.0213,0.26822 0.26233,0.32544 0.41651,0.0988 0.45231,0.21648 0.15015,0.49339 -0.17079,0.15651 -0.16038,0.22262 0.0522,0.33159 0.18676,0.0957 0.24451,0.29961 0.19464,0.68725 -0.0641,0.49869 -0.12191,0.55194 -0.60684,0.55959 -0.29477,0.004 -0.88151,0.0298 -1.30387,0.0557 -0.42235,0.026 -0.91202,-0.0198 -1.08814,-0.10186 -0.20847,-0.0971 -0.45465,-0.0935 -0.70542,0.0104 -0.28803,0.1191 -0.47459,0.10249 -0.73958,-0.066 -0.21753,-0.13826 -0.52261,-0.18695 -0.78998,-0.12604 -0.23957,0.0546 -0.53058,0.0279 -0.64669,-0.0593 -0.1161,-0.0871 -0.44147,-0.18205 -0.72304,-0.21089 -0.49364,-0.0505 -0.515,-0.0854 -0.59728,-0.97372 l -0.0853,-0.92132 -0.74806,0.81265 -0.74806,0.81265 0.12015,1.34758 c 0.17229,1.93257 0.52485,3.47238 1.29667,5.66331 0.37212,1.05631 0.67657,1.99829 0.67657,2.0933 0,0.095 -0.25961,0.17274 -0.5769,0.17274 h -0.57691 z m -0.11732,-8.37269 c 0.31875,-0.63487 0.23101,-1.22046 -0.27124,-1.8105 -0.46044,-0.54092 -1.03952,-0.96852 -1.16157,-0.85775 -0.10712,0.0972 0.95742,3.06269 1.09942,3.06269 0.0744,0 0.22447,-0.1775 0.33339,-0.39444 z m 2.53481,-2.31241 c 0.49807,-0.46665 0.90557,-0.96029 0.90557,-1.09695 0,-0.38286 -0.2139,-0.23086 -1.2667,0.90008 -1.16746,1.25411 -0.91446,1.39203 0.36113,0.19687 z m 3.7675,0.0451 c -0.10547,-0.28714 -0.47284,-0.33477 -0.47284,-0.0613 0,0.13487 0.12159,0.24521 0.2702,0.24521 0.14861,0 0.2398,-0.0828 0.20264,-0.1839 z m -1.55954,-0.44818 c 0.58485,-0.32802 0.74952,-0.60683 0.3584,-0.60683 -0.22286,0 -1.49014,0.72913 -1.49014,0.85734 0,0.17785 0.60794,0.0433 1.13174,-0.25051 z m 1.75127,-2.39142 c 0.8639,-0.7083 1.52791,-1.93217 1.04828,-1.93217 -0.0904,0 -0.46624,0.40352 -0.8353,0.89671 -0.36906,0.4932 -0.79427,0.98955 -0.94493,1.10302 -0.15065,0.11347 -0.27392,0.26746 -0.27392,0.34221 0,0.26946 0.35263,0.12581 1.00587,-0.40977 z m -9.70899,0.18021 c 0,-0.11583 -0.11675,-1.26713 -0.25944,-2.55842 -0.27642,-2.50142 -0.89774,-5.16161 -1.35272,-5.7918 -0.15631,-0.21648 -0.88631,-0.64394 -1.67864,-0.98295 l -1.40205,-0.59989 h -2.67362 c -1.47049,0 -2.73466,0.0554 -2.80926,0.12319 -0.0746,0.0677 -0.0603,0.24198 0.0318,0.38716 0.0921,0.14519 0.15817,0.62636 0.14688,1.06927 -0.0234,0.91836 0.32003,1.2306 0.64395,0.58543 0.10607,-0.21125 0.29571,-0.3841 0.42143,-0.3841 0.12572,0 0.22858,-0.0794 0.22858,-0.17651 0,-0.20485 0.50789,-0.58569 0.79069,-0.59289 0.10637,-0.003 0.23618,0.14351 0.28846,0.32491 0.0639,0.22161 0.18308,0.29919 0.3633,0.23643 0.21409,-0.0745 0.24688,-0.0161 0.16233,0.28961 -0.0798,0.28855 -0.0382,0.38304 0.16855,0.38304 0.19992,0 0.27447,0.14723 0.27447,0.54203 0,0.64638 0.44543,0.75901 0.61252,0.15487 0.067,-0.24228 0.22788,-0.38717 0.42987,-0.38717 0.20247,0 0.3228,-0.10882 0.3228,-0.29192 0,-0.16055 0.1734,-0.39502 0.38532,-0.52104 0.34547,-0.20542 0.44605,-0.19955 0.97268,0.0568 0.32306,0.15722 0.65263,0.39169 0.73239,0.52102 0.0798,0.12934 0.30088,0.23517 0.49139,0.23517 0.29609,0 0.33005,0.0674 0.23394,0.4646 -0.0863,0.35637 -0.0523,0.46459 0.14559,0.46459 0.31431,0 0.51411,0.50673 0.36636,0.92919 -0.0929,0.26562 -0.0307,0.30973 0.43693,0.30973 0.54052,0 0.54431,0.005 0.43615,0.61918 -0.06,0.34055 -0.29921,1.15941 -0.53157,1.81966 -0.58912,1.67398 -0.56933,1.7995 0.38375,2.43407 0.86462,0.57567 1.2372,0.67708 1.2372,0.33677 z m 6.65272,-0.52502 c -0.002,-0.14905 -0.0797,-0.37554 -0.1739,-0.5033 -0.14824,-0.20107 -0.20525,-0.19189 -0.424,0.0683 -0.37366,0.44445 -0.30923,0.70602 0.17389,0.70602 0.29353,0 0.42581,-0.0845 0.42401,-0.27102 z m -4.57443,-0.65817 c 0.0437,-0.43172 0.13575,-0.55243 0.45243,-0.59313 0.25743,-0.0331 0.45758,-0.20726 0.56773,-0.49402 0.0936,-0.24359 0.433,-0.62486 0.75429,-0.84725 0.32128,-0.22239 0.58415,-0.48242 0.58415,-0.57787 0,-0.17406 1.45362,-1.51422 1.64243,-1.51422 0.0553,0 0.0573,0.10228 0.005,0.22734 -0.0529,0.12503 -0.026,0.26665 0.0596,0.31469 0.0857,0.048 0.11546,0.1826 0.0662,0.29902 -0.19572,0.46289 0.27873,0.3754 0.54435,-0.1004 0.15611,-0.2796 0.39228,-0.62092 0.52483,-0.75849 0.21307,-0.22113 0.18222,-0.27221 -0.26626,-0.4408 -0.29208,-0.10979 -0.60211,-0.13543 -0.73087,-0.0604 -0.12298,0.0716 -0.56917,0.14052 -0.99153,0.15312 -0.42236,0.0126 -1.20948,0.0493 -1.74915,0.0815 -0.53968,0.0322 -0.98124,0.005 -0.98124,-0.0607 0,-0.36953 -0.5504,-0.0147 -1.03057,0.66435 l -0.5542,0.78376 0.11502,1.65536 c 0.0888,1.27777 0.17984,1.69964 0.39924,1.84952 0.36439,0.24891 0.52068,0.0947 0.58906,-0.58132 z m -11.29335,-3.02204 c 0,-0.15904 -0.77136,-1.15553 -0.89591,-1.1574 -0.24286,-0.003 -0.12694,0.42212 0.2257,0.82896 0.31719,0.36594 0.67021,0.53894 0.67021,0.32844 z m -2.73039,-0.38499 c -0.14078,-0.0826 -0.40956,-0.15012 -0.59727,-0.15012 -0.28262,0 -0.29729,0.0258 -0.0853,0.15012 0.14078,0.0826 0.40955,0.15012 0.59727,0.15012 0.28262,0 0.29728,-0.0258 0.0853,-0.15012 z m 13.26262,-0.85733 c 0.27222,-0.51804 0.27075,-0.587 -0.0272,-1.27763 -1.04938,-2.43245 -1.12706,-3.08887 -0.41256,-3.48629 0.18411,-0.10238 0.48019,-0.48265 0.65796,-0.84499 0.19495,-0.39739 0.49038,-0.71648 0.74451,-0.80417 0.23172,-0.0799 0.47034,-0.28555 0.53026,-0.45688 0.06,-0.17134 0.4011,-0.47151 0.75817,-0.66705 1.43581,-0.7863 2.32115,-1.3091 3.03428,-1.79179 0.41204,-0.27889 1.05641,-0.61865 1.43195,-0.755 0.37553,-0.13637 0.65079,-0.32632 0.61169,-0.42212 -0.0391,-0.0958 -0.16142,-0.15558 -0.27182,-0.13283 -1.00877,0.20787 -2.91362,0.19992 -4.38216,-0.0183 -2.62291,-0.38973 -2.94424,-0.38387 -3.32169,0.0605 -0.17798,0.20955 -0.37219,0.52038 -0.43156,0.69073 -0.0594,0.17036 -0.31022,0.55365 -0.55743,0.85176 -0.41423,0.49952 -0.44607,0.64527 -0.40599,1.85838 0.0607,1.83527 0.32897,3.55481 0.80959,5.18798 0.22559,0.76658 0.45578,1.65512 0.51153,1.97453 0.1269,0.72698 0.35048,0.73726 0.72048,0.0332 z m 2.43857,-2.40876 c 0.76756,-0.80933 1.02245,-1.19613 1.02245,-1.5516 0,-0.60012 -0.30053,-0.52746 -0.73456,0.17758 -0.17845,0.28989 -0.62372,0.90633 -0.98949,1.36988 -0.62544,0.79262 -0.87699,1.39414 -0.49295,1.17873 0.0947,-0.0531 0.63221,-0.58166 1.19455,-1.17459 z m -18.43362,-2.53937 c 0.56821,-0.54889 1.46676,-0.89918 1.8407,-0.71756 0.31402,0.15251 2.3234,-0.1379 2.56477,-0.37069 0.0653,-0.063 -0.98172,-0.0802 -2.32676,-0.0381 -1.81225,0.0567 -2.50919,0.13418 -2.69131,0.29945 -0.35962,0.32637 -0.60777,1.9049 -0.38047,2.42021 0.17922,0.40627 0.19032,0.39502 0.39634,-0.40181 0.11657,-0.45088 0.3851,-0.98705 0.59673,-1.19148 z m 19.59657,-0.28582 c 0.0319,-0.14938 -0.0537,-0.25818 -0.20325,-0.25818 -0.31701,0 -0.50835,0.25245 -0.35831,0.47276 0.15436,0.22666 0.49509,0.0964 0.56156,-0.21458 z m -5.43063,-5.05216 c 0,-0.43141 -0.14467,-0.72592 -0.58023,-1.18124 -0.31912,-0.33361 -0.62799,-0.56436 -0.68637,-0.51278 -0.13137,0.11604 0.29467,1.81603 0.57371,2.28919 0.29169,0.49463 0.69289,0.15001 0.69289,-0.59517 z m 2.28391,-2.1754 c 0.46121,-0.46328 0.61712,-0.75673 0.61712,-1.16148 0,-0.29787 -0.0627,-0.54159 -0.13926,-0.54159 -0.17509,0 -1.39658,1.85936 -1.39658,2.12587 0,0.34532 0.28429,0.21449 0.91872,-0.4228 z m -5.41999,-1.77415 c 0.15414,-0.36452 -0.4394,-3.46407 -0.91483,-4.77741 -0.59483,-1.64315 -1.05552,-2.12452 -2.3911,-2.49841 -0.55601,-0.15565 -0.49537,0.22714 0.12324,0.77805 0.27896,0.24843 0.50934,0.5388 0.51195,0.64527 0.002,0.10646 0.15832,0.19358 0.34604,0.19358 0.27149,0 0.3413,0.10321 0.3413,0.50478 0,0.33705 0.1134,0.56904 0.34129,0.6982 0.40754,0.23097 0.42996,0.57989 0.0853,1.32841 -0.50081,1.08776 -0.27483,2.14958 0.61871,2.90706 0.59103,0.50104 0.79878,0.54987 0.93807,0.22047 z m 1.49097,-0.7268 c -0.0846,-0.48016 -0.049,-0.68609 0.14036,-0.81305 0.13952,-0.0935 0.30872,-0.37059 0.376,-0.61574 0.12733,-0.46392 0.96668,-1.33522 1.28627,-1.33522 0.10108,0 0.18378,-0.13693 0.18378,-0.30428 0,-0.35915 0.60011,-0.71644 0.77414,-0.46091 0.16509,0.24242 0.88993,0.46052 1.18685,0.35712 0.14594,-0.0508 0.25745,-0.28031 0.25745,-0.52981 0,-0.31713 0.1595,-0.55055 0.57072,-0.83518 0.31389,-0.21728 0.67866,-0.39283 0.81058,-0.39013 0.32209,0.006 0.74748,0.32061 0.88503,0.65326 0.0616,0.14905 0.18515,0.27101 0.27449,0.27101 0.0893,0 0.21285,0.20827 0.27446,0.46282 0.0616,0.25455 0.1829,0.50257 0.26953,0.55116 0.0866,0.0486 0.15752,0.22581 0.15752,0.3938 0,0.16801 0.11519,0.34557 0.25598,0.3946 0.32547,0.11334 0.32547,0.61262 0,1.44979 -0.31035,0.79825 -0.3095,0.77431 -0.0274,0.77431 0.36215,0 0.62467,-0.71142 0.62467,-1.69285 0,-0.74512 -0.11995,-1.12147 -0.6826,-2.14162 -0.37543,-0.6807 -0.6826,-1.31187 -0.6826,-1.40258 0,-0.34067 -0.3903,-0.34404 -2.42858,-0.021 -2.85753,0.45298 -3.8605,0.87352 -4.68918,1.96618 -0.58044,0.76535 -0.64585,0.95011 -0.63775,1.80131 0.0138,1.45694 0.19895,2.10997 0.59799,2.10997 0.29799,0 0.32289,-0.072 0.22228,-0.64302 z m -0.4856,-4.27803 c -0.0594,-0.28733 -0.37669,-1.05728 -0.70509,-1.71102 -0.52354,-1.04217 -0.58301,-1.28401 -0.48271,-1.96293 0.0629,-0.42589 0.17257,-0.84403 0.24367,-0.9292 0.0711,-0.0852 0.17888,-0.40506 0.23949,-0.71084 0.0606,-0.30579 0.29438,-0.71302 0.51952,-0.90495 l 0.40933,-0.34899 0.52663,0.35334 c 0.28964,0.19433 0.52662,0.40992 0.52662,0.47908 0,0.0692 0.14841,0.12574 0.3298,0.12574 0.18139,0 0.37854,0.13938 0.43812,0.30973 0.17188,0.49145 0.59727,0.38115 0.59727,-0.15486 0,-0.25553 0.0768,-0.4646 0.17066,-0.4646 0.0938,0 0.17064,-0.17422 0.17064,-0.38716 0,-0.21295 0.15359,-0.52654 0.3413,-0.69689 0.80796,-0.73322 0.14783,-0.80056 -2.3074,-0.23534 -0.91771,0.21125 -1.79938,0.49155 -1.95927,0.62286 -0.15989,0.13131 -0.50364,0.5938 -0.76391,1.02776 -0.42209,0.70379 -0.46341,0.89998 -0.38251,1.81626 0.075,0.84958 1.12512,4.38666 1.45038,4.88529 0.0507,0.0778 0.23915,-0.0235 0.4188,-0.22479 0.24336,-0.27273 0.29912,-0.4993 0.21866,-0.88849 z m 11.68707,-0.1232 c 0,-0.13389 -0.20318,-0.55808 -0.45152,-0.94264 -0.24834,-0.38456 -0.47519,-0.93855 -0.50412,-1.23107 -0.0871,-0.88111 -0.10776,-0.88828 -2.27078,-0.7896 -1.95946,0.0894 -2.57566,0.18828 -2.57566,0.41322 0,0.0637 0.77847,0.15471 1.72994,0.20229 1.13875,0.057 1.77638,0.15472 1.86587,0.28614 0.0748,0.1098 0.11178,0.2378 0.0822,0.28445 -0.0296,0.0466 0.24073,0.2939 0.60063,0.54943 0.35989,0.25552 0.6579,0.58086 0.66226,0.72294 0.0145,0.47387 0.21182,0.74828 0.5381,0.74828 0.17995,0 0.32304,-0.10783 0.32304,-0.24344 z m -22.18441,-0.80621 c 0,-0.23853 0.15204,-0.54831 0.34129,-0.69537 0.18772,-0.14586 0.3413,-0.37041 0.3413,-0.49901 0,-0.1286 0.12082,-0.23382 0.26849,-0.23382 0.16441,0 0.24562,-0.10505 0.2095,-0.27101 -0.05,-0.22961 -0.21483,-0.26259 -1.07908,-0.21589 -0.56104,0.0304 -1.03249,0.0651 -1.04767,0.0774 -0.1336,0.108 0.20714,0.87406 0.38879,0.87406 0.16603,0 0.23608,0.20678 0.23608,0.69689 0,0.38329 0.0768,0.69689 0.17065,0.69689 0.0939,0 0.17065,-0.19357 0.17065,-0.43018 z m 3.98533,-0.10444 c 0.24835,-0.20888 0.45155,-0.4528 0.45155,-0.54204 0,-0.0892 0.096,-0.16381 0.21331,-0.1657 0.11732,-0.002 0.39863,-0.13273 0.62513,-0.29075 l 0.41182,-0.28731 -0.3964,-0.19252 c -0.43378,-0.21068 -3.24296,-0.4215 -3.24296,-0.24337 0,0.16813 0.46425,0.5528 0.66716,0.5528 0.16426,0 0.22145,0.15051 0.45603,1.20021 0.0994,0.44466 0.25556,0.43866 0.81436,-0.0313 z m -7.32519,-1.25738 c 0.40485,-0.36741 0.33128,-0.68583 -0.15845,-0.68583 -0.24309,0 -0.42663,-0.0894 -0.42663,-0.20779 0,-0.23978 0.99908,-0.54178 2.23,-0.67408 0.46841,-0.0503 0.89234,-0.15128 0.94206,-0.2243 0.0989,-0.14517 -1.63126,-0.14357 -4.75288,0.004 l -2.00745,0.0952 0.4562,0.58074 c 0.52955,0.67413 0.93335,0.73542 1.31971,0.2003 0.26681,-0.36954 0.28877,-0.37309 0.76706,-0.12399 0.27082,0.14105 0.62889,0.48648 0.79571,0.76761 0.34252,0.57718 0.45425,0.61303 0.83467,0.26779 z m 11.12462,0.11818 c -0.0469,-0.0689 -0.28784,-1.23355 -0.53546,-2.58823 -0.24761,-1.35469 -0.51878,-2.57935 -0.6026,-2.72148 -0.15685,-0.26596 -1.53551,-0.95869 -1.66824,-0.83823 -0.12585,0.11421 0.49415,1.17641 0.73578,1.26056 0.30942,0.10775 0.42969,0.61584 0.59831,2.52762 0.13687,1.55188 0.16797,1.64697 0.67246,2.05603 0.4914,0.39847 0.99435,0.58947 0.79975,0.30373 z m 16.86896,-1.0893 c 0.11783,-0.43557 0.33497,-0.74436 0.65878,-0.93685 0.47365,-0.28155 0.49579,-0.28078 1.14005,0.0395 0.36135,0.17963 0.70568,0.28242 0.76517,0.22843 0.0595,-0.054 0.0563,-0.34921 -0.007,-0.65603 -0.0942,-0.45565 -0.18999,-0.55784 -0.52294,-0.55784 -0.2242,0 -0.40758,0.0523 -0.40753,0.11614 6e-5,0.0639 -1.06893,0.0922 -2.37554,0.0628 -2.46736,-0.0553 -3.70054,0.1441 -2.21809,0.35873 0.91702,0.13277 2.37729,0.50316 2.68748,0.68167 0.16065,0.0925 0.0733,0.15858 -0.29864,0.22608 -0.59636,0.10825 -0.6776,0.41726 -0.22707,0.86365 0.42069,0.41685 0.60356,0.32006 0.80547,-0.42631 z m -7.92958,-1.72881 c 0.10074,-0.17083 0.23008,-0.7806 0.28743,-1.35508 0.0624,-0.62493 0.19686,-1.09422 0.33479,-1.16832 0.29179,-0.15677 0.30636,-1.03704 0.0172,-1.03935 -0.11732,-9.6e-4 -0.50128,-0.0449 -0.85325,-0.0977 -0.76456,-0.11468 -0.88649,0.17687 -0.17643,0.42186 0.37204,0.12837 0.41413,0.18826 0.21331,0.30352 -0.13761,0.079 -0.49977,0.14467 -0.8048,0.14598 -0.57505,0.002 -0.74546,0.2125 -0.29863,0.3681 0.14078,0.0491 0.25597,0.18841 0.25597,0.30973 0,0.12133 0.12072,0.26264 0.26826,0.31401 0.15296,0.0532 0.25209,0.24345 0.23061,0.44246 -0.0207,0.19195 0.0204,0.47114 0.0914,0.62038 0.071,0.14925 0.081,0.44542 0.0221,0.65817 -0.12827,0.4638 0.15274,0.51581 0.41198,0.0763 z m -8.25952,-1.75447 c -0.30074,-1.92182 -0.30388,-2.2518 -0.0295,-3.10836 0.16837,-0.5256 0.39982,-0.91832 0.57374,-0.9735 0.16034,-0.0509 0.53985,-0.30405 0.84336,-0.56262 l 0.55183,-0.47014 0.67537,0.49253 c 0.80833,0.58952 0.92676,0.60234 1.16578,0.12626 0.26912,-0.53601 1.6887,-1.5459 2.01387,-1.43268 0.1797,0.0626 0.23343,0.19749 0.16106,0.40441 -0.0643,0.18377 -0.0311,0.31049 0.0813,0.31049 0.12458,0 0.15135,0.1864 0.0778,0.54203 -0.15751,0.76193 0.017,0.67482 0.54296,-0.27101 0.24867,-0.44717 0.74911,-1.04496 1.11209,-1.32842 0.36299,-0.28346 0.65997,-0.57745 0.65997,-0.65333 0,-0.13086 -2.5418,-0.0454 -3.05756,0.1028 -0.1839,0.0528 -0.19427,0.11266 -0.0433,0.24969 0.15098,0.13701 -0.33465,0.32141 -2.02674,0.76956 -3.90069,1.03309 -4.25925,1.33331 -4.25611,3.56362 0.002,1.30624 0.26815,2.73941 0.59942,3.22583 0.23203,0.34072 0.46215,-0.29985 0.3546,-0.98711 z m -9.04799,-0.49509 c -0.0788,-0.28488 0.009,-0.53225 0.3228,-0.90509 0.23717,-0.28218 0.43122,-0.58568 0.43122,-0.67444 0,-0.17587 -1.5042,-0.43177 -1.6674,-0.28365 -0.0551,0.0501 0.0287,0.3364 0.1863,0.63633 0.1576,0.29993 0.28655,0.65208 0.28655,0.78256 0,0.27127 0.30479,0.83632 0.45113,0.83632 0.0538,0 0.049,-0.17641 -0.0106,-0.39203 z m 3.48441,0.005 c 0,-0.22768 0.0979,-0.38716 0.23771,-0.38716 0.13074,0 0.28191,-0.10453 0.33595,-0.2323 0.054,-0.12776 0.21582,-0.2323 0.35955,-0.2323 0.40932,0 0.30587,-0.45002 -0.12263,-0.5334 -0.39142,-0.0762 -2.76053,-0.39578 -2.93373,-0.39578 -0.31807,0 -0.005,0.48259 0.48318,0.74374 0.37181,0.19908 0.65089,0.50884 0.78116,0.86705 0.24713,0.67956 0.85881,0.80075 0.85881,0.17015 z m 17.40623,-1.01576 c 0,-0.16532 -0.0768,-0.30059 -0.17065,-0.30059 -0.0939,0 -0.17065,0.17834 -0.17065,0.3963 0,0.22476 0.0739,0.35487 0.17065,0.30059 0.0939,-0.0526 0.17065,-0.23097 0.17065,-0.3963 z m -23.89091,-0.22831 c 0,-0.38458 1.13455,-1.3112 1.60541,-1.3112 0.23223,0 0.4697,-0.0697 0.5277,-0.15487 0.0679,-0.0997 -0.56706,-0.15486 -1.78174,-0.15486 -1.18266,0 -1.88721,0.0596 -1.88721,0.15972 0,0.0879 0.12266,0.20245 0.2726,0.25466 0.14993,0.0522 0.41597,0.39847 0.5912,0.76947 0.31459,0.66601 0.67204,0.89849 0.67204,0.43708 z m 24.1931,-0.81757 c 0.0437,-0.11914 -0.14776,-0.1839 -0.54394,-0.1839 -0.70167,0 -0.77932,0.10384 -0.22754,0.30435 0.45529,0.16542 0.67932,0.13045 0.77148,-0.12045 z m -26.58219,-0.6485 c 0,-0.17207 -0.11377,-0.30972 -0.25598,-0.30972 -0.1422,0 -0.25597,0.13765 -0.25597,0.30972 0,0.17208 0.11377,0.30973 0.25597,0.30973 0.14221,0 0.25598,-0.13765 0.25598,-0.30973 z m 13.65195,-2.52716 c 0,-1.27445 0.43548,-2.37311 1.25123,-3.15662 l 0.71138,-0.68329 0.38389,0.32458 c 0.21114,0.1785 0.38389,0.46121 0.38389,0.62826 0,0.16703 0.0686,0.30369 0.15239,0.30369 0.19642,0 0.35956,-0.38976 0.35956,-0.85908 0,-0.20727 0.24102,-0.59223 0.54961,-0.87781 l 0.54962,-0.50865 -0.42582,-0.0456 c -0.98187,-0.10523 -3.95355,1.41277 -4.24354,2.16768 -0.31636,0.82358 -0.17875,3.53053 0.17946,3.53053 0.0816,0 0.14833,-0.37064 0.14833,-0.82366 z m -1.19519,-2.93182 c -7.5e-4,-1.69866 -0.24998,-2.3733 -1.01412,-2.74443 -0.44682,-0.21701 -0.44821,-0.0531 -0.009,1.07962 0.18159,0.46848 0.33309,1.13052 0.33668,1.47123 0.008,0.76766 0.30655,1.78093 0.52459,1.78093 0.0925,0 0.16235,-0.68415 0.16199,-1.58735 z m 7.165,-1.65962 c 0.18993,-0.33786 0.49866,-0.68876 0.68607,-0.77979 0.1874,-0.091 0.34074,-0.24063 0.34074,-0.33248 0,-0.18352 -1.27464,-0.0594 -2.01561,0.19622 l -0.42563,0.14687 0.36737,0.31059 c 0.20206,0.17083 0.36738,0.48212 0.36738,0.69174 0,0.56263 0.28783,0.46391 0.67968,-0.23315 z m -9.22448,-1.33985 c 0.0131,-0.18345 -2.00132,-0.7612 -2.15805,-0.61895 -0.0506,0.0459 0.15653,0.43489 0.46024,0.8644 l 0.55222,0.78096 0.56663,-0.42662 c 0.31166,-0.23464 0.57219,-0.50454 0.57896,-0.59979 z m -2.54741,-0.66052 c 0,-0.16572 -0.68429,-0.34512 -0.88564,-0.23218 -0.0791,0.0444 -0.0996,0.14554 -0.0456,0.22482 0.12494,0.18347 0.93128,0.18984 0.93128,0.007 z m 4.84218,-0.502 c 0.24105,-1.09379 0.12675,-1.81473 -0.36264,-2.2874 -0.41324,-0.39913 -2.36915,-1.20872 -2.54176,-1.05209 -0.0358,0.0326 0.0554,0.32095 0.20278,0.64097 0.25176,0.54681 0.28637,0.56668 0.57483,0.32977 0.16882,-0.13864 0.42147,-0.2122 0.56145,-0.16345 0.30848,0.10743 0.98939,1.30224 0.98939,1.7361 0,0.51402 0.20425,1.28004 0.3413,1.28004 0.0704,0 0.17598,-0.21778 0.23465,-0.48394 z m 3.42993,-0.74729 c 0.35413,-0.62147 0.33322,-0.67705 -0.20893,-0.55555 -0.68598,0.15374 -0.79283,0.31784 -0.44621,0.68521 0.16981,0.17999 0.32811,0.32724 0.35176,0.32724 0.0237,0 0.16019,-0.2056 0.30338,-0.4569 z m 1.86886,-0.73048 c 0.06,-0.14199 0.0484,-0.31333 -0.0258,-0.38072 -0.21529,-0.19537 -0.61908,0.11806 -0.50367,0.39098 0.13605,0.32177 0.3912,0.31682 0.5295,-0.0104 z m 2.29006,-0.89523 c 0.0377,-0.17657 -0.0238,-0.25103 -0.17064,-0.20665 -0.12629,0.0382 -0.25614,0.19359 -0.28857,0.34541 -0.0377,0.17654 0.0238,0.25101 0.17065,0.20662 0.12628,-0.0382 0.25614,-0.19358 0.28856,-0.34538 z m -11.57779,-1.24698 c 0,-0.12777 -0.0768,-0.23229 -0.17065,-0.23229 -0.0939,0 -0.17064,0.10452 -0.17064,0.23229 0,0.12777 0.0768,0.2323 0.17064,0.2323 0.0939,0 0.17065,-0.10453 0.17065,-0.2323 z"
     id="path34"
     inkscape:connector-curvature="0"
     inkscape:export-xdpi="96"
     inkscape:export-ydpi="96" />
  <g
     inkscape:groupmode="layer"
     id="layer1"
     inkscape:label="black"
     style="display:none" />
</svg>
