<?xml version="1.0" encoding="UTF-8" standalone="no"?>
<svg
   xmlns:dc="http://purl.org/dc/elements/1.1/"
   xmlns:cc="http://creativecommons.org/ns#"
   xmlns:rdf="http://www.w3.org/1999/02/22-rdf-syntax-ns#"
   xmlns:svg="http://www.w3.org/2000/svg"
   xmlns="http://www.w3.org/2000/svg"
   xmlns:sodipodi="http://sodipodi.sourceforge.net/DTD/sodipodi-0.dtd"
   xmlns:inkscape="http://www.inkscape.org/namespaces/inkscape"
   version="1.0"
   width="881.000000pt"
   height="1280.000000pt"
   viewBox="0 0 881.000000 1280.000000"
   preserveAspectRatio="xMidYMid meet"
   id="svg28"
   sodipodi:docname="fern3.svg"
   inkscape:version="0.92.4 (5da689c313, 2019-01-14)">
  <defs
     id="defs32" />
  <sodipodi:namedview
     pagecolor="#000000"
     bordercolor="#666666"
     borderopacity="1"
     objecttolerance="10"
     gridtolerance="10"
     guidetolerance="10"
     inkscape:pageopacity="0"
     inkscape:pageshadow="2"
     inkscape:window-width="1366"
     inkscape:window-height="705"
     id="namedview30"
     showgrid="false"
     showborder="false"
     inkscape:pagecheckerboard="false"
     inkscape:zoom="0.3140625"
     inkscape:cx="587.33333"
     inkscape:cy="853.33333"
     inkscape:window-x="-8"
     inkscape:window-y="-8"
     inkscape:window-maximized="1"
     inkscape:current-layer="svg28" />
  <metadata
     id="metadata22">
Created by potrace 1.15, written by Peter Selinger 2001-2017
<rdf:RDF>
  <cc:Work
     rdf:about="">
    <dc:format>image/svg+xml</dc:format>
    <dc:type
       rdf:resource="http://purl.org/dc/dcmitype/StillImage" />
    <dc:title></dc:title>
  </cc:Work>
</rdf:RDF>
</metadata>
  <g
     transform="translate(0.000000,1280.000000) scale(0.100000,-0.100000)"
     fill="#000000"
     stroke="none"
     id="g26">
    <path
       d="M3463 12771 c-15 -19 -23 -43 -23 -69 0 -32 -4 -41 -21 -45 -14 -4 -19 -11 -15 -24 3 -10 8 -31 12 -47 7 -28 7 -28 -33 -22 -30 6 -43 3 -53 -9 -11 -14 -9 -24 14 -67 28 -51 28 -78 2 -78 -9 0 -20 -9 -26 -20 -8 -16 -5 -31 14 -72 32 -67 22 -81 -38 -49 -80 44 -90 -8 -22 -114 61 -94 81 -133 73 -141 -3 -4 -43 14 -89 40 -45 26 -91 46 -103 44 -17 -3 -20 -9 -18 -50 3 -48 33 -112 58 -122 8 -3 15 -12 15 -21 0 -8 17 -32 38 -54 20 -21 45 -53 55 -70 16 -28 16 -31 2 -31 -9 0 -34 9 -56 20 -22 12 -44 18 -49 15 -5 -3 -27 4 -49 16 -44 23 -90 20 -112 -7 -10 -12 -8 -20 10 -42 12 -15 26 -39 32 -54 6 -16 14 -28 18 -28 4 0 25 -19 47 -42 21 -22 55 -57 75 -77 42 -41 74 -89 66 -97 -3 -3 -19 2 -37 11 -17 9 -40 13 -51 10 -14 -5 -33 2 -59 20 -29 20 -48 26 -71 23 -18 -3 -50 2 -71 10 -57 22 -88 6 -88 -47 0 -32 6 -43 35 -65 33 -26 47 -56 25 -56 -24 0 -7 -23 38 -50 77 -47 92 -60 92 -78 0 -10 29 -36 67 -62 36 -24 79 -62 95 -85 l30 -40 -30 -3 c-19 -2 -56 10 -101 32 -39 20 -85 36 -102 36 -21 0 -43 10 -66 30 -37 33 -50 36 -86 19 -20 -9 -32 -7 -67 11 -36 18 -51 20 -106 15 -48 -6 -65 -12 -69 -25 -9 -27 4 -47 42 -70 33 -19 34 -22 20 -38 -19 -21 -14 -29 36 -67 34 -25 37 -30 23 -41 -9 -6 -16 -16 -16 -21 0 -6 37 -27 83 -48 45 -21 145 -79 222 -130 108 -71 150 -105 182 -148 52 -68 64 -107 35 -107 -32 0 -90 28 -102 49 -5 11 -10 29 -10 39 0 41 -121 118 -170 107 -25 -6 -32 0 -75 61 l-48 66 -43 -5 c-38 -4 -50 0 -82 25 -33 27 -42 29 -87 24 -40 -5 -67 0 -135 23 -54 19 -89 26 -96 20 -18 -14 -5 -54 27 -85 16 -15 29 -37 29 -49 0 -11 9 -28 20 -38 24 -20 26 -35 6 -43 -40 -15 -25 -61 31 -94 l37 -22 -24 -19 c-24 -19 -25 -20 -6 -34 11 -8 59 -35 108 -60 58 -31 88 -52 88 -63 0 -10 21 -28 56 -46 122 -64 256 -148 296 -187 24 -23 53 -48 64 -56 30 -19 62 -110 78 -218 13 -93 12 -115 -8 -115 -12 1 -80 207 -91 275 -10 67 -15 75 -57 96 -36 19 -41 19 -63 5 -35 -23 -52 -20 -58 12 -4 22 -17 33 -57 52 -46 21 -54 22 -86 11 -34 -12 -37 -12 -62 17 -15 16 -50 46 -78 66 -51 36 -87 45 -99 26 -11 -18 -46 -11 -78 16 -27 23 -36 25 -82 19 -44 -5 -54 -3 -70 15 -23 25 -71 27 -84 2 -9 -17 -17 -17 -108 -7 -54 6 -106 9 -115 7 -29 -6 -21 -40 12 -57 16 -9 30 -22 30 -30 0 -7 13 -23 30 -35 35 -25 39 -40 10 -40 -11 0 -23 -7 -27 -17 -7 -17 11 -35 66 -65 28 -16 30 -20 19 -38 -19 -29 0 -52 55 -69 37 -11 46 -18 42 -31 -4 -13 12 -28 67 -60 119 -70 132 -90 58 -90 -30 0 -43 -6 -60 -27 l-22 -28 -21 27 c-12 15 -32 41 -45 58 -26 33 -71 41 -92 15 -18 -22 -48 -18 -82 10 -32 27 -54 31 -92 14 -19 -9 -29 -8 -47 5 -17 12 -46 16 -110 16 -90 0 -117 -11 -99 -40 7 -11 3 -20 -13 -33 l-22 -17 28 -21 c31 -24 35 -39 8 -39 -10 0 -25 -7 -32 -16 -11 -14 -10 -18 6 -30 10 -8 22 -14 27 -14 17 0 7 -26 -14 -35 -43 -19 -28 -47 37 -73 33 -13 62 -26 64 -28 10 -10 -25 -34 -49 -34 -15 0 -38 -8 -51 -19 -40 -32 -22 -43 161 -106 73 -24 90 -49 40 -60 -32 -7 -53 -34 -42 -52 4 -5 36 -13 70 -17 35 -4 102 -18 148 -32 46 -13 99 -24 117 -24 70 0 77 -43 9 -55 -22 -3 -48 -15 -58 -26 -23 -25 -42 -24 -65 4 -25 33 -131 79 -172 75 -24 -2 -33 -8 -35 -25 -5 -34 -33 -28 -88 17 -55 45 -93 51 -122 19 -21 -22 -35 -24 -99 -13 -33 5 -49 2 -76 -15 -28 -17 -50 -21 -116 -21 -91 0 -100 -5 -149 -86 l-24 -38 23 -16 c14 -12 18 -19 10 -24 -6 -4 -11 -12 -11 -17 0 -11 6 -13 68 -29 61 -16 57 -29 -10 -44 -16 -4 -28 -13 -28 -21 0 -25 42 -42 138 -56 50 -7 92 -16 92 -19 0 -3 -30 -16 -67 -28 -81 -26 -124 -55 -107 -72 7 -7 47 -14 90 -17 44 -2 134 -8 201 -12 68 -4 126 -10 129 -14 5 -5 -22 -14 -99 -31 -15 -4 -31 -14 -34 -22 -12 -31 23 -47 114 -55 48 -4 122 -15 163 -23 41 -9 102 -16 135 -17 110 -2 131 -19 43 -34 -49 -8 -49 -31 0 -44 20 -6 125 -24 232 -41 313 -50 493 -94 625 -152 139 -62 160 -86 188 -217 22 -100 43 -609 27 -625 -17 -17 -74 50 -93 106 -21 69 -52 279 -49 341 4 84 -101 277 -142 261 -10 -4 -38 18 -83 65 -66 69 -69 70 -104 62 -20 -5 -46 -18 -58 -30 -11 -11 -28 -21 -37 -21 -17 0 -16 -10 2 -82 5 -24 3 -28 -16 -28 -21 0 -22 -3 -17 -57 3 -32 10 -77 15 -101 12 -56 -2 -64 -38 -21 -26 32 -40 81 -67 234 -8 47 -26 68 -108 124 -90 61 -118 64 -123 13 -3 -29 -7 -33 -24 -29 -16 4 -23 -1 -31 -24 -6 -16 -17 -29 -25 -29 -16 0 -42 59 -42 95 0 21 -5 25 -30 25 -20 0 -30 5 -30 15 0 24 -42 55 -73 55 -21 0 -40 11 -64 35 -41 42 -65 44 -82 8 -8 -16 -17 -35 -21 -43 -4 -8 -24 -16 -44 -18 -33 -3 -44 3 -85 41 -27 26 -62 48 -82 52 -19 4 -39 12 -46 17 -6 5 -31 8 -55 6 -35 -2 -45 -8 -55 -29 -26 -55 -66 -59 -93 -9 -6 11 -17 20 -24 20 -7 0 -35 11 -62 25 -81 41 -134 31 -134 -26 0 -15 -4 -30 -8 -33 -5 -3 -35 9 -68 25 -66 34 -104 33 -137 -2 -16 -17 -26 -19 -73 -13 -41 5 -60 3 -79 -10 -13 -9 -38 -16 -54 -16 -17 0 -45 -6 -63 -14 -18 -8 -55 -18 -82 -23 l-50 -8 -2 -47 c-1 -39 2 -47 19 -52 17 -4 18 -7 7 -21 -19 -23 4 -37 47 -29 37 7 83 -2 83 -15 0 -5 -16 -19 -37 -31 -33 -19 -35 -22 -20 -37 16 -16 52 -20 185 -22 28 -1 52 -5 52 -9 0 -5 -36 -19 -80 -31 -83 -25 -100 -35 -81 -54 13 -13 171 -30 264 -28 72 2 115 -6 101 -18 -5 -4 -29 -15 -54 -24 -25 -9 -57 -21 -72 -26 -72 -27 38 -72 192 -79 52 -3 186 -5 298 -5 111 0 199 -3 195 -7 -19 -16 -120 -40 -167 -40 -40 0 -60 -6 -86 -25 -41 -30 -83 -32 -117 -5 -14 11 -34 20 -43 20 -34 0 -91 -31 -102 -55 -14 -32 -23 -31 -63 3 -51 42 -120 82 -143 82 -24 0 -48 -21 -57 -50 -9 -29 -41 -24 -67 10 -27 37 -74 41 -101 9 -13 -15 -23 -18 -40 -12 -36 13 -85 8 -105 -10 -10 -9 -31 -17 -46 -17 -94 0 -156 -45 -170 -121 -7 -39 3 -49 45 -49 25 0 24 -18 -3 -40 -19 -15 -20 -20 -9 -34 7 -9 25 -16 40 -16 40 0 71 -11 71 -24 0 -7 -28 -21 -63 -32 -48 -16 -62 -25 -62 -40 0 -14 10 -21 40 -27 22 -4 68 -15 102 -22 34 -8 77 -15 97 -15 20 0 36 -4 36 -9 0 -12 -53 -39 -112 -57 -29 -9 -48 -21 -48 -29 0 -39 138 -64 392 -71 175 -6 193 -17 73 -49 -32 -8 -68 -24 -80 -35 -12 -12 -38 -25 -58 -31 -40 -11 -86 -64 -70 -80 5 -5 33 -11 61 -13 29 -2 59 -9 66 -16 11 -8 40 -10 104 -5 59 5 101 3 125 -4 29 -10 47 -8 108 9 77 21 174 26 198 11 14 -9 2 -14 -91 -36 -15 -4 -32 -13 -39 -21 -6 -8 -30 -19 -53 -25 -55 -15 -166 -67 -166 -79 0 -9 13 -14 67 -25 39 -8 42 -28 9 -50 -13 -9 -31 -36 -41 -60 -9 -25 -20 -45 -25 -45 -9 0 -32 92 -34 142 -1 25 -12 50 -34 77 -47 59 -77 56 -137 -11 l-46 -53 -31 38 c-61 76 -150 98 -176 45 -16 -34 -42 -36 -83 -6 -27 20 -33 21 -62 9 -40 -16 -44 -16 -83 0 -28 11 -36 10 -60 -7 -18 -12 -48 -19 -79 -20 -64 -1 -137 -14 -152 -27 -7 -5 -13 -22 -13 -38 0 -15 -7 -35 -16 -43 -14 -15 -14 -17 1 -22 12 -5 15 -14 11 -30 -5 -19 -2 -25 18 -30 14 -3 30 -12 36 -19 9 -11 3 -16 -29 -25 -72 -19 -43 -45 72 -64 39 -7 72 -17 74 -23 3 -7 -20 -17 -54 -24 -71 -15 -93 -25 -93 -44 0 -21 59 -33 190 -40 136 -7 180 -13 180 -24 0 -5 -24 -11 -52 -14 -72 -9 -218 -58 -218 -74 0 -26 59 -44 143 -43 45 0 133 -2 195 -5 108 -7 141 -18 85 -31 -53 -11 -98 -26 -118 -39 -11 -6 -32 -15 -47 -19 -45 -10 -98 -47 -98 -66 0 -22 19 -30 73 -30 23 0 48 -7 58 -16 15 -14 27 -14 86 -5 79 12 265 11 260 -3 -2 -5 -34 -17 -72 -27 -120 -32 -159 -46 -163 -57 -6 -20 96 -62 154 -62 47 0 54 -3 54 -19 0 -16 10 -21 46 -27 25 -3 69 -3 97 1 29 4 115 9 192 11 77 1 192 8 256 16 125 14 149 13 149 -6 0 -9 -28 -15 -93 -19 -106 -7 -141 -18 -172 -51 -16 -18 -38 -26 -84 -31 -49 -6 -65 -12 -77 -30 -9 -13 -28 -26 -42 -30 -15 -3 -45 -21 -67 -40 -39 -34 -39 -35 -21 -50 13 -9 41 -15 77 -15 36 0 69 -6 87 -17 27 -15 37 -16 95 -4 58 11 69 11 89 -3 28 -20 55 -20 170 0 51 9 110 14 131 11 37 -5 54 -2 177 34 61 17 118 28 252 49 63 9 248 2 248 -11 0 -4 -24 -10 -52 -14 -29 -4 -75 -13 -102 -21 -27 -8 -80 -14 -117 -14 -57 0 -72 -4 -97 -25 -17 -14 -36 -25 -44 -25 -22 0 -38 -21 -38 -50 0 -24 5 -27 68 -39 59 -11 280 -21 442 -20 489 5 696 -2 801 -29 143 -36 334 -124 405 -187 32 -29 60 -87 71 -150 3 -16 13 -39 23 -50 51 -60 96 -228 105 -395 6 -118 11 -164 46 -425 26 -191 35 -256 48 -330 16 -87 14 -115 -5 -115 -27 0 -168 88 -206 128 -20 20 -40 49 -44 65 -13 39 1 240 27 389 21 126 21 127 2 160 -16 27 -26 34 -61 38 l-43 5 31 48 c30 47 31 56 13 120 -2 10 -14 17 -28 17 -41 0 -71 17 -92 52 -15 25 -30 36 -66 46 -59 15 -100 15 -114 1 -9 -9 -20 -9 -42 1 -42 17 -78 1 -113 -51 -27 -37 -59 -51 -73 -30 -4 8 -10 50 -15 112 0 4 -11 10 -25 13 -15 4 -25 14 -25 25 0 19 -29 51 -47 51 -5 0 -18 9 -28 20 -10 11 -26 20 -35 20 -23 0 -70 -38 -70 -55 0 -8 -18 -19 -40 -25 -39 -10 -70 -47 -70 -83 0 -7 -10 -22 -23 -33 -16 -14 -27 -41 -36 -89 -8 -39 -22 -80 -32 -93 l-18 -23 -11 21 c-7 13 -11 72 -10 153 0 73 -1 153 -4 178 -6 61 -31 109 -56 109 -11 0 -28 10 -39 22 -30 32 -73 58 -96 58 -29 0 -92 -68 -100 -110 -4 -19 -18 -45 -31 -57 -14 -13 -24 -34 -24 -50 0 -37 -19 -103 -29 -103 -25 0 -29 136 -6 220 8 30 15 75 15 98 0 36 -4 45 -20 49 -12 3 -27 18 -36 34 -11 23 -21 29 -47 29 -22 0 -36 -7 -45 -20 -7 -12 -23 -25 -36 -30 -26 -10 -116 -136 -116 -163 0 -9 -4 -17 -10 -17 -17 0 -30 38 -30 89 0 46 -20 98 -52 138 -16 20 -98 44 -117 34 -9 -5 -32 -32 -51 -60 -19 -28 -39 -50 -45 -48 -5 2 -20 30 -32 62 -26 66 -57 105 -85 105 -27 0 -58 -18 -58 -34 0 -8 -7 -19 -15 -26 -12 -10 -19 -7 -40 16 -14 15 -25 35 -25 44 0 31 -58 41 -80 15 -19 -23 -48 -18 -62 13 -11 21 -19 26 -38 23 -14 -2 -68 -4 -120 -5 l-95 -1 -10 -67 c-6 -37 -18 -75 -27 -85 -22 -24 -23 -49 -3 -57 19 -7 19 -30 0 -46 -25 -21 -17 -37 28 -62 55 -30 54 -50 -2 -64 -93 -22 -80 -66 28 -104 40 -14 73 -29 73 -35 1 -5 -14 -17 -31 -25 -145 -71 -88 -120 143 -125 83 -2 112 -18 54 -29 -42 -8 -148 -58 -171 -80 -23 -23 -22 -31 10 -61 26 -24 32 -25 123 -21 52 2 107 9 122 15 42 16 229 33 263 23 27 -8 23 -10 -45 -21 -144 -23 -181 -33 -198 -50 -9 -10 -40 -30 -69 -46 -50 -27 -69 -48 -58 -66 3 -4 36 -17 73 -27 82 -22 215 -21 347 3 100 19 495 32 589 21 101 -13 48 -26 -105 -26 -100 0 -158 -4 -172 -12 -12 -7 -60 -15 -107 -18 -68 -4 -93 -11 -118 -29 -20 -14 -63 -28 -113 -37 -48 -8 -91 -22 -106 -34 -34 -26 -49 -25 -86 6 -24 21 -37 24 -61 19 -17 -4 -57 -6 -90 -6 -37 1 -66 -4 -81 -13 -15 -10 -54 -16 -112 -18 l-88 -3 3 -49 c2 -35 -1 -53 -14 -68 -15 -15 -16 -23 -7 -38 14 -21 2 -35 -32 -42 -39 -7 -29 -36 24 -65 28 -15 49 -32 48 -38 -2 -5 -21 -13 -42 -17 -41 -9 -55 -21 -55 -49 0 -19 127 -69 173 -69 52 0 27 -19 -61 -46 -109 -33 -122 -44 -91 -73 21 -20 34 -21 178 -21 156 0 186 -7 86 -21 -30 -4 -66 -16 -80 -27 -14 -12 -40 -24 -58 -27 -18 -4 -53 -17 -79 -28 -60 -28 -61 -53 -3 -82 37 -18 63 -20 330 -21 299 -2 475 -11 475 -24 0 -4 -91 -10 -202 -11 -174 -3 -207 -7 -228 -21 -16 -12 -43 -18 -80 -18 -36 0 -70 -7 -95 -20 -21 -11 -55 -23 -74 -26 -20 -4 -58 -18 -86 -32 l-49 -24 23 -19 c13 -11 34 -19 47 -19 13 0 32 -9 41 -20 14 -16 30 -20 80 -20 47 0 64 -4 71 -17 8 -14 23 -15 113 -10 65 3 111 1 123 -5 13 -7 138 -11 347 -12 291 -1 354 -5 338 -20 -2 -3 -52 -8 -109 -11 -72 -5 -117 -13 -143 -26 -21 -11 -58 -19 -86 -19 -64 0 -111 -17 -111 -40 0 -18 -29 -28 -113 -36 -50 -5 -77 -20 -77 -44 0 -15 -9 -21 -40 -26 -23 -4 -53 -16 -67 -27 -15 -12 -40 -28 -57 -37 -16 -8 -32 -21 -34 -28 -5 -15 57 -42 97 -42 17 0 34 -7 38 -15 7 -12 22 -13 97 -5 100 12 122 8 129 -22 6 -20 9 -21 99 -13 51 4 138 9 193 10 55 1 138 9 185 19 219 43 327 56 489 56 130 0 181 -4 250 -20 171 -41 405 -127 374 -137 -6 -2 -81 18 -166 46 -212 68 -407 96 -520 74 -68 -14 -76 -18 -74 -37 2 -20 -3 -21 -102 -26 -72 -3 -106 -9 -109 -18 -9 -27 -34 -41 -89 -48 -45 -5 -63 -13 -85 -36 -14 -16 -40 -33 -56 -39 -28 -10 -57 -52 -47 -68 2 -5 23 -11 44 -15 22 -3 49 -16 60 -27 16 -17 30 -21 73 -19 84 4 90 2 83 -19 -11 -35 26 -40 165 -22 55 7 120 8 184 2 73 -6 112 -5 149 5 27 7 54 11 61 8 12 -5 260 37 336 56 175 44 349 42 439 -5 17 -8 35 -15 40 -15 19 0 158 -67 257 -125 52 -30 98 -55 100 -55 3 0 37 -22 77 -49 71 -48 97 -81 97 -123 0 -12 11 -60 25 -107 50 -171 114 -407 124 -461 33 -164 80 -414 91 -480 6 -41 18 -103 26 -137 18 -79 18 -122 0 -129 -16 -6 -155 67 -272 143 -62 40 -84 61 -97 90 -30 72 -29 86 12 175 21 45 45 106 55 133 75 229 76 233 76 322 0 116 -21 140 -78 88 -24 -22 -62 -34 -62 -20 0 3 16 37 36 76 29 59 35 82 37 142 l2 72 -50 0 -50 0 -5 60 c-5 65 -9 68 -82 50 -27 -7 -28 -6 -28 29 0 37 -3 39 -65 48 -12 2 -21 12 -23 26 -3 20 -13 27 -36 23 -4 -1 -19 5 -32 14 -36 23 -98 19 -144 -10 -22 -14 -40 -31 -40 -38 0 -8 -15 -20 -32 -28 -28 -12 -33 -19 -33 -49 0 -31 -3 -35 -35 -41 -47 -10 -61 -31 -49 -75 6 -19 7 -39 4 -44 -3 -6 -28 -9 -54 -8 -29 1 -55 -3 -65 -11 -24 -20 -20 -76 9 -128 14 -25 24 -48 21 -51 -3 -2 -29 0 -57 5 -46 9 -54 8 -71 -9 -20 -20 -17 -50 8 -79 8 -8 14 -20 14 -25 0 -5 20 -31 45 -58 25 -27 45 -53 45 -57 0 -10 -22 -16 -85 -25 -64 -9 -111 -35 -107 -60 7 -51 14 -64 42 -81 19 -11 30 -26 30 -39 0 -21 65 -74 91 -74 6 0 26 -9 44 -20 38 -24 323 -121 455 -155 64 -17 102 -33 119 -50 38 -37 17 -42 -46 -11 -81 39 -181 76 -210 76 -22 0 -23 -3 -17 -37 4 -21 8 -41 10 -45 2 -3 37 -16 76 -29 70 -22 71 -24 36 -27 -26 -2 -65 9 -135 38 -210 89 -385 110 -690 85 -118 -10 -155 -48 -96 -99 l27 -24 -39 -11 c-22 -6 -49 -11 -61 -11 -37 0 -122 -30 -128 -45 -4 -11 -22 -15 -74 -15 -60 0 -71 -3 -92 -25 -13 -14 -35 -25 -49 -25 -31 0 -45 -9 -54 -32 -4 -11 -17 -18 -30 -18 -28 0 -77 -35 -77 -55 0 -8 8 -18 18 -23 27 -15 152 -21 214 -11 35 6 73 6 98 0 33 -7 55 -4 120 17 71 23 82 24 107 12 21 -11 66 -13 184 -11 129 3 161 0 188 -13 25 -13 48 -16 109 -11 161 13 321 68 431 148 73 54 99 61 194 52 61 -6 81 -13 130 -46 32 -21 62 -39 67 -39 5 0 44 -16 87 -35 114 -52 230 -132 248 -169 52 -111 103 -253 122 -336 3 -14 11 -32 18 -40 7 -8 15 -33 17 -55 11 -81 41 -163 63 -169 64 -18 185 5 185 34 0 6 -36 117 -81 247 -44 131 -84 252 -89 268 -68 243 -77 286 -99 465 -5 47 -15 121 -20 165 -6 44 -13 120 -17 168 l-7 88 33 34 c19 19 61 74 95 122 33 49 67 88 75 88 8 0 13 -7 11 -15 -8 -35 -13 -191 -7 -224 9 -45 38 -59 91 -45 35 10 40 9 74 -25 44 -43 102 -50 123 -16 19 29 45 25 89 -15 46 -41 88 -46 134 -15 39 26 57 25 89 -5 33 -30 78 -33 106 -5 23 23 57 25 84 5 25 -19 45 -19 65 -1 13 12 25 12 62 4 63 -15 103 -4 95 24 -3 12 0 28 6 35 6 7 8 22 5 34 -3 12 1 32 9 44 19 28 10 50 -26 65 -42 18 -44 36 -4 59 19 11 34 25 34 30 0 15 -42 41 -65 41 -12 0 -30 7 -41 15 -19 15 -19 15 5 36 31 26 20 48 -35 69 -63 24 -68 29 -49 50 9 10 15 30 13 46 -3 29 -2 29 45 27 27 -2 57 -7 67 -13 10 -5 39 -10 64 -10 39 0 47 4 58 27 22 44 42 50 95 29 27 -10 68 -19 92 -20 39 -1 46 2 61 29 17 29 19 30 80 27 86 -5 110 2 110 33 0 14 3 26 8 26 4 1 29 3 55 4 40 2 54 8 77 34 17 18 39 31 53 31 35 0 53 25 36 47 -27 37 -101 103 -115 103 -9 0 -14 11 -14 35 l0 35 -64 0 c-63 0 -65 1 -68 28 -3 30 1 29 -126 18 -71 -6 -73 -5 -67 15 7 21 6 21 -89 14 -64 -4 -96 -3 -96 3 0 6 5 14 10 17 14 8 3 25 -13 20 -7 -2 -56 -20 -111 -40 -54 -20 -101 -33 -105 -30 -9 10 60 64 99 76 19 6 78 13 131 16 84 5 107 2 189 -22 76 -21 105 -25 150 -20 30 4 90 6 133 6 53 -1 88 4 109 15 24 12 46 14 98 9 60 -6 72 -4 97 14 24 17 34 19 68 11 41 -9 85 -4 85 10 0 4 26 10 58 14 109 11 132 17 132 35 0 10 -7 26 -15 37 -8 10 -15 25 -15 32 0 7 -10 26 -22 42 -19 26 -28 30 -72 31 -70 0 -129 12 -133 26 -3 7 18 16 54 24 85 18 84 26 -3 34 -110 9 -109 9 -109 25 0 22 -22 29 -91 29 -42 1 -66 6 -74 16 -18 22 -8 28 53 32 37 3 104 -7 233 -36 99 -22 196 -41 215 -41 18 0 66 0 104 -2 82 -2 291 4 372 11 6 1 13 9 15 18 3 15 16 18 91 19 49 1 93 6 99 12 14 14 -40 82 -65 82 -20 0 -55 17 -74 36 -7 7 -45 18 -85 24 -40 7 -92 23 -114 37 -23 13 -80 31 -125 39 -46 9 -89 20 -94 24 -6 5 -51 12 -100 16 -86 7 -88 8 -50 18 27 6 95 5 210 -3 172 -12 226 -22 368 -67 43 -13 91 -24 106 -24 16 0 62 -13 102 -29 41 -16 94 -32 118 -35 24 -4 56 -13 72 -21 38 -20 129 -20 129 -1 0 19 -86 91 -182 154 -75 48 -163 87 -258 113 -78 21 -70 31 20 24 83 -7 274 -57 285 -76 4 -5 17 -9 30 -9 12 0 54 -15 91 -34 155 -75 282 -74 171 2 -23 17 -56 44 -74 61 -18 17 -44 33 -58 37 -14 3 -24 9 -21 11 9 9 119 -28 175 -60 31 -17 74 -45 96 -63 46 -37 133 -77 147 -68 5 3 7 17 4 30 -8 30 16 32 69 7 50 -24 62 -7 28 40 -14 20 -24 40 -20 43 3 3 29 -5 58 -19 l53 -25 35 29 c20 17 47 29 63 29 53 0 30 27 -44 55 -40 15 -80 31 -88 36 -8 5 -31 16 -50 24 -19 8 -56 26 -81 40 -25 13 -65 27 -88 31 -27 4 -61 21 -90 43 -42 33 -51 36 -105 34 -69 -3 -96 9 -96 42 0 52 -97 86 -144 50 -32 -24 -62 -19 -76 14 -21 51 -43 63 -124 68 l-74 5 -45 -41 c-49 -46 -77 -53 -77 -20 0 43 -24 101 -44 108 -12 4 -72 8 -134 10 l-112 2 -38 -38 c-20 -21 -44 -54 -53 -73 -9 -19 -22 -46 -29 -60 -6 -14 -16 -32 -23 -40 -19 -26 -167 -123 -174 -116 -4 4 23 35 60 69 37 34 67 68 67 76 0 7 13 37 30 66 30 52 30 52 10 70 -13 12 -20 31 -20 55 0 24 -7 43 -20 55 -11 10 -20 29 -20 42 0 13 -7 26 -16 30 -8 3 -20 16 -25 29 -10 28 -31 30 -112 9 -32 -8 -67 -15 -78 -15 -11 0 -34 -14 -51 -30 -16 -17 -39 -30 -52 -30 -34 0 -65 -27 -72 -65 -6 -33 -21 -53 -59 -80 -17 -11 -20 -25 -20 -92 -1 -65 -7 -94 -38 -177 -62 -165 -148 -286 -202 -286 -21 0 -19 10 12 55 15 22 53 82 85 134 53 87 56 96 42 112 -14 15 -13 22 15 71 17 30 31 58 31 61 0 4 -14 14 -31 23 -25 12 -30 20 -24 37 17 56 17 65 -3 71 -15 5 -19 15 -18 44 1 33 -2 37 -26 40 -21 3 -27 9 -30 30 -3 24 -7 27 -41 26 -25 -1 -53 -12 -82 -33 -24 -17 -60 -34 -82 -39 -33 -6 -42 -15 -64 -57 -29 -58 -57 -74 -137 -82 -41 -4 -67 -14 -92 -33 -19 -15 -53 -35 -74 -45 -22 -11 -46 -32 -55 -49 -28 -53 -57 -76 -95 -76 -39 0 -58 -15 -74 -57 -18 -47 -45 -269 -51 -418 l-6 -140 -26 2 c-14 1 -43 8 -63 17 -38 16 -38 16 -22 41 10 15 16 46 16 85 l0 60 -30 0 c-16 0 -30 4 -30 10 0 5 16 39 35 74 19 36 35 69 35 74 0 5 -13 12 -30 16 -29 5 -30 8 -30 55 0 27 -4 53 -10 56 -5 3 -10 15 -10 25 0 10 -25 40 -55 66 -54 47 -55 48 -36 68 25 28 17 44 -25 52 -41 8 -50 19 -33 41 11 13 10 17 -6 29 -10 8 -33 14 -49 14 -38 0 -51 9 -51 35 0 17 -8 20 -60 23 -73 4 -86 14 -57 45 12 13 22 27 22 31 0 5 -28 6 -62 2 -61 -6 -62 -6 -35 10 35 19 75 21 147 5 100 -23 149 -25 169 -7 10 9 31 18 47 20 75 10 111 20 129 36 36 32 63 40 128 40 54 0 68 4 91 25 21 20 38 25 77 25 37 0 53 5 66 20 10 12 30 20 48 20 38 0 139 51 143 72 2 9 -14 39 -35 67 -35 47 -41 51 -79 51 -45 0 -114 24 -114 40 0 6 42 10 103 10 85 0 107 3 132 20 17 11 43 20 58 20 29 0 121 42 132 61 23 36 143 60 321 63 l89 1 3 28 3 29 137 -2 c75 -1 180 3 232 10 52 7 154 13 225 15 150 3 237 15 242 32 7 20 -53 50 -182 93 -93 31 -146 42 -237 50 -64 5 -129 15 -145 21 -26 10 -27 12 -8 19 11 5 80 9 153 9 163 1 438 -43 555 -88 31 -12 214 2 230 18 25 25 -189 139 -321 170 -28 7 -55 17 -58 22 -9 15 235 10 326 -7 180 -33 263 -36 228 -7 -7 6 -56 33 -108 59 -78 40 -90 49 -69 52 15 2 81 -13 147 -33 128 -39 157 -41 157 -11 0 13 -20 26 -72 48 -40 17 -73 35 -73 39 0 16 74 9 148 -13 57 -16 75 -19 85 -9 9 9 7 16 -13 31 -25 20 -22 23 15 21 11 -1 27 3 35 8 34 23 -80 100 -148 101 -19 0 -67 13 -109 30 -41 17 -91 30 -111 30 -20 1 -55 7 -77 15 -61 22 -108 19 -134 -9 l-23 -24 -59 24 c-33 12 -81 26 -106 30 -25 4 -64 17 -87 30 -51 29 -112 39 -150 25 -27 -11 -28 -14 -22 -52 7 -43 -5 -69 -30 -69 -8 0 -14 6 -14 14 0 7 -26 29 -57 50 -68 42 -131 48 -198 17 -55 -25 -81 -58 -88 -110 -9 -74 -54 -82 -75 -14 -10 30 -21 44 -42 53 -16 7 -32 20 -35 30 -3 10 -20 23 -37 29 -18 6 -40 19 -51 28 -26 24 -91 19 -160 -12 -50 -23 -58 -31 -67 -66 -6 -23 -17 -39 -26 -39 -8 0 -19 -11 -24 -25 -8 -21 -16 -25 -52 -25 -24 0 -52 -7 -62 -15 -11 -8 -28 -15 -39 -15 -10 0 -43 -12 -73 -26 -52 -25 -56 -25 -74 -9 -17 16 -26 16 -87 5 -37 -6 -91 -20 -118 -31 -28 -10 -61 -19 -73 -19 -27 0 -76 -24 -115 -56 -16 -13 -38 -24 -50 -24 -12 0 -36 -8 -53 -19 -24 -15 -33 -30 -44 -75 -8 -35 -21 -63 -34 -72 -12 -8 -28 -36 -37 -62 -17 -50 -26 -54 -84 -32 l-28 11 26 27 c34 35 58 102 45 125 -6 11 -5 24 2 38 14 24 6 49 -14 49 -8 0 -21 13 -29 30 -13 26 -13 31 1 42 8 7 37 14 64 14 67 2 66 2 70 27 3 20 9 22 88 27 93 6 110 12 110 40 0 21 19 30 64 30 23 0 41 9 60 29 34 36 29 57 -16 66 -18 4 -37 10 -43 14 -5 3 -30 13 -55 21 -33 11 -46 21 -48 38 -5 34 -39 50 -117 57 -38 4 -90 16 -115 28 -31 14 -73 22 -135 25 -63 3 -93 9 -101 19 -9 13 -27 13 -150 -2 -76 -9 -190 -30 -252 -46 -178 -46 -186 -38 -34 30 86 38 108 44 260 61 188 22 388 25 612 9 149 -10 153 -10 175 11 21 20 27 21 125 11 56 -6 124 -11 151 -11 44 0 51 3 59 26 9 24 14 26 48 20 20 -4 54 -9 75 -13 44 -6 67 8 49 30 -16 19 -5 27 39 27 25 0 42 6 51 18 7 9 25 23 41 29 15 7 27 20 27 28 0 20 -63 47 -93 40 -17 -5 -28 1 -45 24 -19 26 -30 31 -62 31 -25 0 -46 7 -57 18 -32 33 -77 44 -164 40 -77 -3 -84 -1 -87 17 -9 45 -19 48 -152 42 -69 -3 -186 -13 -260 -22 -119 -13 -148 -21 -243 -61 -60 -25 -111 -43 -114 -40 -4 3 -4 8 -2 9 110 90 359 180 504 183 484 12 610 19 610 34 0 12 21 16 110 20 113 5 135 11 135 35 0 9 19 16 58 20 74 8 83 12 89 33 2 9 19 24 36 32 48 22 47 47 -2 60 -23 6 -41 15 -41 20 0 24 -34 40 -86 40 -39 0 -54 4 -54 14 0 36 -25 41 -250 48 -101 4 -277 -18 -370 -45 -124 -35 -140 -39 -140 -27 0 21 157 88 270 115 88 21 159 29 305 37 161 9 193 13 214 29 14 12 40 19 65 19 65 0 114 18 138 50 12 17 28 30 35 30 16 0 63 48 63 64 0 6 -19 17 -42 23 -173 45 -171 45 -290 39 -77 -4 -119 -2 -123 5 -4 6 -5 13 -2 15 15 15 163 44 251 49 82 5 104 9 117 25 13 15 32 20 95 22 78 3 79 3 84 31 3 16 15 33 30 40 13 7 30 23 37 37 11 22 9 27 -22 57 -23 23 -50 36 -81 42 -25 5 -51 14 -57 20 -18 18 14 42 64 48 24 3 53 14 64 24 11 10 36 25 55 33 19 8 55 33 80 56 l45 42 -23 18 c-16 14 -32 17 -57 13 -80 -13 -77 54 3 82 25 8 79 15 119 15 102 0 145 26 88 52 -43 19 -30 36 34 44 48 5 58 9 54 22 -5 13 3 14 55 9 34 -3 62 -1 62 3 0 4 24 14 53 20 28 7 56 19 60 26 4 8 21 14 37 14 39 0 38 15 -2 36 -33 17 -114 31 -240 40 -40 4 -72 11 -79 20 -15 18 -77 18 -109 -1 -33 -19 -68 -19 -87 1 -24 24 -74 12 -151 -35 l-66 -40 -34 21 c-23 14 -42 18 -63 14 -43 -8 -111 -60 -147 -112 -33 -46 -51 -54 -72 -29 -7 8 -16 15 -20 15 -4 0 -49 -27 -99 -60 l-91 -60 0 -55 c0 -30 -4 -55 -8 -55 -5 0 -24 20 -42 45 -20 26 -45 48 -60 51 -14 3 -33 8 -42 10 -21 6 -99 -49 -116 -82 -18 -34 -52 -39 -100 -15 -23 12 -53 21 -67 21 -18 0 -25 5 -25 20 0 17 -7 20 -38 20 -22 0 -65 9 -97 20 -32 11 -70 20 -84 20 -14 0 -21 4 -15 8 12 12 201 32 293 32 51 0 79 5 90 14 10 9 54 19 110 24 51 5 98 15 104 21 6 6 31 11 55 11 48 0 122 19 122 30 0 14 -24 28 -110 66 -84 37 -87 37 -204 36 -66 -1 -116 2 -110 6 11 10 240 62 272 62 13 0 36 7 52 15 15 8 53 18 84 21 56 7 116 35 116 54 0 18 -82 49 -130 51 l-45 1 40 13 c22 7 69 27 105 44 36 17 71 31 78 31 18 0 92 39 92 48 0 23 -30 32 -109 33 -48 0 -95 4 -106 9 -19 7 -19 8 5 17 14 6 67 20 117 33 110 27 161 54 143 75 -6 8 -24 15 -38 17 -43 5 -32 30 26 61 52 28 69 57 33 57 -33 0 -34 19 -1 38 24 13 29 22 25 39 -4 16 1 25 15 33 13 7 20 21 20 40 0 28 -3 30 -36 30 -34 0 -68 -7 -155 -32 -26 -7 -42 -7 -58 2 -30 15 -66 6 -93 -25 -22 -25 -62 -33 -73 -15 -3 6 -20 10 -36 10 -30 0 -49 -15 -97 -79 -37 -49 -63 -39 -86 33 -5 15 -13 17 -40 12 -24 -5 -49 1 -91 19 -72 32 -63 45 33 49 39 1 75 5 78 9 4 4 -4 15 -16 25 -32 26 -18 46 27 37 24 -4 42 -1 59 10 31 20 30 31 -1 39 -31 8 -25 22 14 31 28 6 101 63 101 79 0 4 -54 7 -121 5 -106 -4 -122 -2 -130 14 -13 23 -76 23 -125 0 l-36 -18 -23 29 c-20 25 -28 28 -60 23 -20 -3 -58 -20 -86 -36 -62 -39 -74 -39 -86 2 -8 30 -12 32 -54 31 -43 0 -81 -21 -178 -96 -32 -25 -50 -23 -61 7 -6 15 -17 25 -29 25 -10 0 -56 -34 -102 -76 -79 -71 -119 -101 -119 -90 0 3 8 21 17 40 16 35 16 36 -10 56 -26 21 -26 22 -12 57 15 36 9 52 -18 53 -18 0 -111 -53 -140 -81 -20 -19 -38 -28 -50 -25 -31 8 -91 -56 -116 -122 -39 -108 -91 -165 -91 -100 0 24 7 39 25 52 14 10 25 24 25 31 0 6 -11 18 -25 25 -25 13 -35 40 -15 40 6 0 10 7 10 15 0 8 -4 15 -10 15 -5 0 -10 6 -10 14 0 9 18 16 58 20 108 13 115 22 47 62 -25 14 -42 30 -39 35 3 5 31 9 64 9 44 0 59 4 64 16 5 13 21 15 94 13 53 -2 96 2 109 9 12 7 35 12 52 12 41 0 42 31 1 62 -16 12 -30 28 -30 35 0 18 27 23 175 31 121 6 130 8 130 27 0 13 -13 26 -37 38 -21 9 -38 21 -38 26 0 5 35 16 78 26 102 22 132 34 132 55 0 9 -12 22 -26 29 -14 6 -24 17 -21 24 5 17 47 37 80 37 42 0 69 18 62 40 -4 14 2 21 30 30 35 12 44 23 25 35 -15 10 -12 25 8 32 9 4 36 26 59 49 62 61 50 67 -141 63 -135 -3 -157 -1 -174 14 -23 21 -68 22 -114 3 -36 -16 -51 -12 -61 17 -9 25 -64 22 -112 -8 -51 -31 -73 -31 -87 0 -6 13 -19 27 -28 30 -17 5 -121 -40 -189 -83 -40 -25 -46 -22 -66 24 -8 19 -19 34 -25 34 -20 0 -148 -67 -197 -103 -76 -56 -99 -86 -112 -149 -7 -32 -17 -60 -22 -63 -15 -10 -23 26 -11 46 7 10 12 50 13 88 2 86 -13 113 -72 132 -51 17 -63 39 -22 39 15 1 62 8 103 16 41 8 117 19 168 23 102 9 137 26 112 55 -7 9 -18 16 -26 16 -18 0 -28 20 -17 31 6 6 39 17 74 25 35 8 74 16 87 19 30 7 28 23 -5 36 l-28 11 24 19 c13 11 35 22 50 26 37 8 50 21 44 43 -4 16 2 23 26 31 18 6 31 18 31 27 0 10 23 38 51 63 73 64 64 71 -82 67 -85 -2 -121 1 -130 10 -16 15 -63 16 -106 0 -29 -11 -35 -10 -56 10 -34 32 -68 28 -125 -18 -28 -21 -53 -44 -57 -50 -3 -5 -13 -10 -20 -10 -10 0 -14 11 -12 38 2 36 0 38 -50 62 -29 14 -52 29 -50 34 5 14 124 52 189 60 30 4 64 14 74 21 18 14 18 15 -5 34 -28 22 -23 33 30 67 28 17 39 31 39 49 0 16 10 30 30 42 17 10 29 25 28 33 -2 9 12 34 30 55 34 42 41 72 18 81 -8 3 -59 0 -113 -6 -109 -13 -127 -13 -194 -4 -42 5 -50 3 -83 -26 -32 -29 -42 -32 -78 -27 -50 7 -68 -2 -131 -60 l-48 -44 -30 25 c-22 19 -42 26 -70 26 -51 0 -73 -11 -131 -67 l-46 -46 -27 27 c-14 14 -33 26 -41 26 -27 0 -88 -51 -127 -106 -40 -56 -59 -65 -88 -38 -10 9 -26 13 -36 10 -48 -15 -118 -108 -159 -212 -15 -38 -36 -82 -45 -98 -15 -25 -19 -27 -25 -13 -3 10 -3 32 0 50 4 18 11 56 16 86 12 69 78 172 136 212 24 16 117 62 206 102 199 89 283 137 283 161 0 14 27 29 115 63 63 24 135 51 159 59 67 21 76 32 51 59 -28 30 -16 39 104 69 54 14 101 28 105 31 3 4 -2 13 -13 20 -27 20 -13 42 33 50 45 7 58 19 63 55 2 16 14 30 33 40 39 19 135 109 135 126 0 20 -35 26 -98 18 -31 -4 -104 -8 -162 -9 -65 -1 -118 -7 -138 -15 -27 -12 -36 -12 -53 -2 -31 20 -151 -21 -193 -65 -36 -39 -53 -42 -62 -9 -3 14 -12 27 -20 30 -35 13 -132 -62 -149 -113 -9 -30 -43 -36 -73 -14 -14 11 -27 24 -30 31 -2 6 25 31 60 56 35 25 77 56 94 70 18 14 35 26 38 26 3 0 49 20 101 45 80 38 95 49 95 69 0 30 19 46 60 51 44 5 80 31 80 58 1 14 15 33 41 52 23 17 57 42 78 57 62 45 50 53 -71 51 -89 -2 -118 -7 -173 -29 -36 -14 -72 -23 -81 -20 -24 9 -102 -21 -146 -55 -27 -22 -45 -29 -61 -25 -16 4 -35 -5 -66 -29 -46 -36 -56 -41 -65 -27 -9 15 106 122 167 155 35 20 57 38 57 49 0 12 18 23 64 37 91 28 145 58 156 86 5 13 18 26 29 30 11 3 34 27 51 52 39 57 30 66 -54 58 -35 -3 -73 0 -92 7 -28 10 -40 8 -92 -15 -33 -15 -71 -27 -86 -27 -15 0 -58 -16 -97 -36 -100 -50 -117 -42 -54 25 27 29 73 68 101 87 32 21 56 46 62 63 6 18 34 46 71 72 41 29 61 50 61 63 0 12 9 35 20 51 12 18 20 47 20 73 0 38 -2 42 -24 42 -13 0 -29 -7 -36 -15 -7 -8 -18 -15 -25 -15 -7 0 -39 -13 -70 -30 -31 -16 -62 -30 -69 -30 -6 0 -31 -14 -55 -30 -24 -17 -46 -28 -49 -26 -11 12 11 58 50 102 51 58 62 74 89 133 39 82 7 184 -45 146 -35 -25 -98 -57 -103 -51 -3 2 7 24 21 49 14 24 26 53 26 63 0 11 7 29 15 40 21 28 19 81 -4 94 -28 14 -57 13 -92 -6 -36 -18 -48 -11 -31 16 7 11 12 29 12 39 0 11 5 23 10 26 6 3 10 26 10 51 l0 45 -52 -3 c-49 -3 -53 -1 -56 20 -2 13 4 35 13 49 10 15 14 34 11 49 -6 21 -12 24 -52 24 l-45 0 3 52 c3 48 1 52 -22 58 -21 5 -25 11 -22 40 2 22 -4 40 -17 54 -11 12 -21 35 -23 51 -4 41 -36 44 -65 6z m-845 -3011 c4 -21 -23 -55 -36 -46 -7 4 -12 21 -12 37 0 26 3 30 22 27 13 -2 24 -10 26 -18z m303 -105 c159 -63 179 -75 222 -135 35 -50 37 -58 37 -129 0 -42 -5 -116 -11 -166 -19 -155 -40 -135 -58 55 -13 132 -13 130 -107 281 -36 58 -113 60 -135 3 -15 -40 -42 -27 -51 24 -4 23 -16 56 -28 71 -11 16 -20 32 -20 35 0 14 44 3 151 -39z m1319 -69 c0 -2 -7 -20 -15 -40 -15 -35 -37 -47 -50 -26 -10 17 24 70 45 70 11 0 20 -2 20 -4z m-325 -116 c6 -10 -21 -77 -36 -85 -8 -6 -39 45 -39 64 0 5 12 14 28 19 36 14 40 14 47 2z m-225 -86 c0 -3 -11 -20 -25 -38 -14 -18 -25 -40 -25 -48 0 -18 -34 -51 -43 -41 -4 3 -7 17 -7 30 0 19 -5 23 -30 23 -33 0 -40 19 -15 40 28 23 145 51 145 34z m-1207 -251 c27 -7 4 -29 -41 -38 -30 -6 -39 -3 -54 15 -10 12 -15 26 -12 32 6 9 62 4 107 -9z m197 -54 c52 -16 113 -36 135 -42 44 -13 54 -40 17 -45 -12 -2 -27 -12 -32 -22 -5 -10 -18 -21 -27 -24 -10 -3 -28 -24 -41 -46 -13 -23 -28 -38 -34 -34 -5 4 -21 31 -35 62 -13 30 -42 75 -64 100 -38 44 -51 82 -27 82 7 0 55 -14 108 -31z m1610 -88 c0 -14 -59 -61 -76 -61 -8 0 -25 -21 -37 -47 -30 -64 -90 -163 -99 -163 -12 0 -20 39 -13 69 4 19 1 32 -10 41 -8 7 -15 22 -15 35 0 16 -8 24 -32 31 -17 5 -33 14 -35 20 -4 11 136 54 178 54 13 1 35 7 49 15 28 16 90 20 90 6z m-1275 -34 c42 -24 97 -107 109 -168 12 -56 17 -479 6 -479 -5 0 -21 22 -35 50 -20 40 -25 64 -25 125 0 119 -34 286 -79 392 -48 112 -45 119 24 80z m875 -117 c0 -23 -45 -70 -67 -70 -39 0 -52 -34 -79 -218 -4 -33 -10 -42 -22 -40 -11 2 -18 15 -20 38 -4 53 -29 98 -55 102 -12 2 -26 13 -32 26 -14 31 -30 28 -61 -14 -15 -19 -46 -48 -70 -64 -67 -47 -104 -103 -141 -213 -30 -91 -34 -117 -40 -254 -3 -84 -10 -153 -14 -153 -17 0 -31 106 -36 277 l-5 182 28 71 c28 70 31 73 122 137 50 35 129 80 175 99 45 19 107 46 137 59 91 41 180 58 180 35z m713 -557 c4 -3 -17 -23 -48 -44 -34 -25 -55 -47 -55 -60 0 -14 -7 -19 -28 -19 -39 0 -53 -19 -107 -135 -67 -145 -77 -165 -87 -165 -13 0 -10 21 12 80 29 79 27 94 -10 87 -35 -7 -37 1 -14 46 16 30 16 32 -5 45 -11 8 -21 21 -21 28 0 65 -261 -142 -310 -245 -25 -54 -43 -63 -60 -31 -6 11 -18 20 -26 20 -8 0 -20 14 -25 30 -11 30 -18 34 -52 31 -10 -2 -21 8 -26 22 -6 14 -21 27 -36 31 -21 5 -36 -2 -86 -46 -33 -29 -67 -63 -75 -76 -12 -18 -21 -22 -43 -17 -26 6 -30 2 -54 -52 -60 -134 -65 -157 -73 -290 -7 -128 -6 -130 25 -214 18 -49 31 -105 31 -131 0 -54 -24 -118 -44 -118 -16 0 -21 13 -31 80 -4 25 -20 85 -36 133 -28 86 -29 95 -29 292 l0 203 43 58 c76 104 119 134 268 186 74 26 179 59 234 73 55 15 134 37 175 51 41 13 109 32 150 43 41 10 76 23 77 28 2 5 -13 14 -34 19 -96 24 -12 49 157 46 68 -1 102 3 120 13 23 13 98 12 123 -2z m1486 -220 c-37 -47 -81 -84 -94 -79 -8 3 -32 10 -54 16 -23 6 -41 15 -41 20 0 15 122 57 174 59 26 1 27 -1 15 -16z m-4691 -354 c-6 -63 -68 -61 -68 2 0 27 3 29 36 29 34 0 35 -1 32 -31z m240 12 c10 -5 95 -6 194 -2 248 9 270 -1 77 -35 -43 -7 -105 -61 -115 -99 -3 -14 -13 -25 -22 -25 -29 0 -52 -31 -52 -71 0 -21 -4 -40 -9 -43 -15 -10 -41 41 -53 102 -11 59 -45 101 -110 137 -16 9 -28 20 -28 25 0 17 91 26 118 11z m3472 -111 c0 -11 -7 -23 -16 -27 -17 -6 -86 14 -112 33 -14 11 -6 13 56 14 66 0 72 -2 72 -20z m-2945 -46 l95 -7 -4 -30 c-2 -16 -10 -34 -20 -39 -9 -5 -23 -22 -31 -38 -8 -16 -25 -30 -37 -32 -32 -4 -44 -67 -23 -127 15 -44 13 -64 -4 -45 -12 13 -38 108 -46 171 -4 29 -13 54 -20 57 -8 3 -24 24 -35 47 -18 34 -19 43 -8 50 7 5 19 7 26 4 7 -3 55 -8 107 -11z m415 -44 c63 -10 139 -22 168 -25 56 -7 73 -24 52 -51 -9 -10 -22 -13 -40 -9 -22 5 -29 1 -38 -20 -7 -14 -12 -35 -12 -45 0 -16 -6 -19 -37 -17 l-38 2 0 -60 c0 -55 -2 -60 -23 -63 -34 -5 -59 23 -77 83 -8 29 -29 74 -47 101 -28 42 -38 49 -69 52 -24 2 -45 13 -64 32 -55 57 -21 60 225 20z m2106 -33 c1 -1 -1 -33 -5 -72 -6 -67 -7 -70 -33 -73 -16 -2 -28 -4 -29 -5 -1 -1 -3 -54 -5 -118 -4 -156 -48 -319 -84 -319 -13 0 -12 13 5 85 20 80 19 84 -11 95 -23 9 -25 14 -19 38 16 62 1 125 -29 121 -28 -3 -36 3 -36 27 0 39 -18 64 -45 64 -15 0 -25 6 -25 14 0 10 22 16 78 21 94 8 152 24 152 41 0 19 -29 44 -52 44 -20 0 -88 36 -88 47 0 5 222 -6 226 -10z m393 -9 c0 -7 -8 -31 -18 -53 l-18 -40 -6 45 c-3 24 -3 48 -1 52 8 13 44 9 43 -4z m-2067 -52 c75 -33 158 -101 158 -129 0 -12 8 -54 19 -92 10 -39 24 -106 31 -150 6 -44 16 -102 21 -130 4 -27 13 -88 19 -135 14 -111 40 -250 52 -272 24 -48 -67 12 -133 86 -32 37 -33 39 -40 174 -15 263 -28 376 -52 438 -21 53 -26 59 -54 62 -28 3 -32 8 -43 52 -8 32 -20 54 -36 65 -26 17 -33 55 -9 55 8 0 38 -11 67 -24z m1194 -87 c12 -19 -29 -80 -65 -95 l-33 -14 7 -69 7 -69 -29 -4 c-28 -3 -28 -4 -25 -65 3 -67 -5 -79 -44 -69 -19 5 -24 11 -19 25 3 10 -4 29 -16 45 -19 24 -26 27 -59 21 -33 -6 -38 -4 -44 17 -3 13 -6 34 -6 47 0 20 -4 23 -27 18 -21 -4 -33 2 -58 29 -20 20 -42 34 -56 34 -33 0 -69 -27 -69 -50 0 -11 -12 -25 -27 -32 -29 -14 -52 -80 -53 -148 0 -38 -23 -80 -44 -80 -10 0 -15 -36 -19 -140 l-7 -140 39 -82 c124 -270 153 -352 142 -398 -16 -67 -39 -110 -60 -110 -19 0 -23 8 -60 135 -5 17 -36 113 -69 215 -78 239 -105 369 -100 474 4 96 29 158 115 283 51 75 62 85 112 103 75 29 255 77 332 90 35 6 89 16 119 24 69 17 107 19 116 5z m1829 -460 c4 -44 5 -83 2 -85 -7 -8 -78 17 -98 33 -8 7 -19 13 -23 13 -4 0 -20 10 -36 22 -26 18 -33 20 -56 9 -15 -6 -35 -23 -46 -36 -11 -14 -28 -25 -38 -25 -9 0 -24 -9 -31 -21 -14 -20 -15 -20 -57 -4 -23 10 -47 26 -53 36 -7 15 -21 19 -58 19 -27 0 -68 9 -92 20 -27 12 -66 20 -101 20 -31 0 -60 5 -63 10 -3 6 -32 10 -63 11 l-57 0 40 16 c75 28 435 28 690 0 11 -1 20 4 20 13 0 15 35 27 86 29 26 1 27 0 34 -80z m-3950 -68 l60 -7 -70 -8 c-121 -14 -278 -45 -285 -56 -4 -6 -24 -13 -46 -17 -44 -7 -79 -22 -70 -30 3 -4 -1 -15 -10 -24 -16 -17 -15 -19 9 -28 15 -6 49 -13 77 -17 28 -4 53 -10 55 -15 9 -14 -37 -79 -66 -95 -35 -18 -49 -12 -49 21 0 15 -7 26 -20 30 -12 4 -20 15 -20 29 0 31 -37 76 -61 76 -11 0 -35 16 -53 35 -37 39 -59 44 -78 17 -7 -10 -21 -21 -30 -25 -11 -4 -18 -17 -18 -31 0 -25 -12 -38 -40 -42 -8 -1 -24 -5 -36 -9 -18 -6 -22 -2 -28 27 -4 21 -25 52 -58 85 -29 29 -48 54 -43 55 6 1 48 3 95 4 210 4 408 14 445 23 47 10 254 12 340 2z m3605 -75 c0 -7 -6 -29 -14 -47 -7 -19 -17 -55 -20 -81 -4 -27 -12 -48 -17 -48 -5 0 -17 16 -26 35 -11 23 -25 36 -44 40 -21 5 -29 14 -34 36 -8 37 -6 40 58 61 65 21 97 22 97 4z m-509 -131 c3 -22 13 -54 22 -72 23 -43 21 -53 -8 -53 -29 0 -32 -12 -8 -31 26 -23 121 -174 137 -221 17 -52 8 -68 -39 -68 -28 0 -33 4 -39 31 -3 17 -6 50 -6 74 0 45 -10 57 -71 88 -21 11 -43 33 -52 53 -10 19 -24 34 -34 34 -10 0 -24 4 -32 9 -11 7 -7 12 15 24 l29 15 -27 11 c-19 7 -26 15 -22 26 5 12 -5 15 -59 15 -44 0 -68 5 -76 14 -14 17 -127 28 -278 27 -57 -1 -103 1 -103 3 0 3 26 15 58 27 50 20 82 23 277 29 121 4 240 6 265 6 45 -1 45 -1 51 -41z m-2797 2 c13 -10 16 -20 10 -41 -5 -23 -11 -27 -30 -23 -31 6 -46 -14 -53 -66 -5 -37 -9 -42 -34 -45 -35 -4 -49 -36 -51 -112 -1 -44 -5 -55 -18 -58 -16 -3 -18 7 -18 102 l0 105 -27 3 c-24 3 -29 9 -35 47 -4 24 -14 51 -23 61 -25 28 -18 32 48 26 48 -5 163 2 208 13 3 0 13 -5 23 -12z m421 -16 c55 -4 122 -17 150 -27 60 -23 72 -51 26 -60 -17 -4 -42 -17 -57 -30 -14 -14 -29 -22 -34 -19 -18 11 -48 -15 -55 -47 -13 -66 -14 -68 -43 -62 -22 4 -30 0 -45 -25 -22 -37 -32 -39 -48 -8 -7 12 -17 25 -24 29 -9 6 -11 27 -8 71 7 79 -7 112 -43 103 -20 -5 -26 -1 -39 30 -11 28 -19 34 -34 29 -21 -6 -36 9 -25 26 7 12 36 11 279 -10z m381 -112 c93 -49 107 -60 146 -117 51 -74 153 -376 169 -497 4 -38 20 -140 35 -225 37 -216 37 -222 21 -244 -14 -19 -15 -19 -53 4 -103 63 -136 105 -173 221 -24 77 -9 201 37 287 27 52 30 131 5 172 -13 22 -26 30 -52 32 -27 2 -35 7 -32 18 11 36 12 133 2 143 -6 6 -28 11 -48 12 -35 0 -38 2 -43 35 -8 50 -19 63 -46 57 -20 -3 -23 0 -26 27 -2 20 -11 34 -26 42 -19 10 -52 54 -52 70 0 16 70 -3 136 -37z m1535 -144 c4 -16 24 -62 46 -101 29 -52 37 -74 29 -86 -7 -12 -1 -28 27 -65 20 -27 53 -78 73 -114 36 -62 37 -67 38 -169 1 -124 -23 -226 -62 -265 -51 -51 -54 -30 -11 79 20 51 33 106 36 153 l6 74 -31 11 c-32 12 -42 32 -42 84 0 34 -13 49 -45 56 -17 3 -20 10 -17 55 4 59 -15 98 -53 107 -16 4 -25 16 -32 43 -7 30 -14 39 -35 43 -15 3 -36 17 -48 33 -26 33 -69 36 -96 6 -10 -12 -49 -41 -86 -64 -66 -43 -66 -44 -73 -97 -3 -29 -5 -64 -3 -78 3 -22 -1 -26 -37 -30 -48 -7 -98 13 -116 47 -38 72 -149 15 -149 -77 0 -26 -3 -30 -28 -30 -33 0 -60 -25 -71 -66 -5 -22 -15 -30 -40 -35 -54 -11 -66 -31 -64 -104 1 -55 -1 -65 -18 -70 -10 -4 -19 -11 -19 -16 0 -5 -12 -9 -26 -9 l-26 0 7 -82 c4 -46 12 -91 17 -101 16 -31 2 -49 -34 -45 -33 3 -33 4 -49 85 -24 117 -34 308 -19 362 6 23 28 66 48 94 68 97 144 188 160 194 10 3 65 28 123 54 58 27 116 49 128 49 24 0 271 49 282 56 4 2 54 9 111 15 72 7 105 15 111 25 6 10 21 14 45 12 31 -3 37 -7 43 -33z m-314 -1023 c-6 -55 -13 -74 -54 -134 -27 -39 -64 -83 -83 -99 -34 -29 -70 -38 -70 -19 0 21 83 176 119 222 20 25 44 60 53 78 27 49 42 29 35 -48z m-536 -289 c104 -112 129 -159 129 -244 0 -50 -34 -114 -60 -114 -20 0 -70 135 -80 215 -5 36 -15 85 -24 110 -28 81 -19 90 35 33z m499 -143 c52 -4 126 -15 163 -24 38 -9 86 -16 108 -16 22 0 72 -8 112 -17 99 -24 310 -25 352 -2 32 18 182 32 191 18 10 -16 -90 -70 -162 -89 -23 -5 -59 -27 -82 -47 -93 -86 -143 -122 -169 -123 -7 0 -40 -20 -74 -45 -34 -25 -67 -45 -73 -45 -7 0 -33 -20 -59 -44 -28 -28 -63 -50 -89 -57 -51 -14 -103 -60 -125 -109 -24 -52 -43 -70 -73 -70 -15 0 -36 -10 -47 -22 -41 -44 -93 -143 -93 -175 0 -30 -3 -33 -29 -33 -54 0 -101 -89 -101 -194 0 -65 60 -249 116 -354 30 -57 54 -109 54 -116 0 -26 -81 -186 -94 -186 -17 0 -23 25 -36 137 -5 48 -17 111 -26 138 -9 28 -20 64 -24 80 -4 17 -22 77 -38 135 -45 158 -70 349 -92 703 -12 196 -12 195 88 306 24 28 42 58 42 72 0 31 48 113 94 163 27 29 40 36 53 30 10 -4 61 -11 113 -14z m-1731 -739 c8 -5 -7 -11 -45 -15 -33 -4 -90 -16 -129 -26 -125 -33 -150 -34 -184 -9 -27 20 -34 21 -69 11 -22 -7 -48 -12 -60 -12 -11 0 -22 -7 -26 -15 -3 -8 -26 -27 -51 -43 -57 -35 -121 -111 -135 -160 -6 -20 -14 -70 -17 -109 -3 -40 -9 -73 -13 -73 -10 0 -28 40 -33 75 -8 45 12 216 29 249 8 16 14 37 14 47 0 32 28 49 83 49 29 1 86 9 127 20 61 15 114 19 285 19 116 0 216 -3 224 -8z m2111 -121 c0 -60 -22 -76 -54 -41 -20 22 -10 52 21 70 24 13 33 5 33 -29z m-1246 -180 c214 -84 286 -124 333 -184 23 -30 45 -67 48 -82 24 -116 45 -199 67 -277 35 -125 62 -318 83 -602 9 -121 20 -236 26 -255 12 -47 11 -100 -2 -100 -14 0 -96 47 -140 81 -19 15 -47 33 -62 40 -33 15 -67 70 -67 109 0 25 27 108 61 185 4 11 18 54 29 95 12 41 28 95 35 120 20 64 28 143 21 184 l-7 35 -66 -6 c-63 -6 -66 -5 -58 13 15 35 17 95 5 141 l-13 45 -39 -6 c-42 -7 -49 5 -23 40 15 20 19 61 9 88 -4 12 -20 16 -55 16 -48 0 -48 0 -59 39 -14 51 -35 69 -62 52 -22 -14 -21 -14 -37 17 -7 14 -21 22 -37 22 -13 0 -27 7 -30 15 -9 24 -38 18 -68 -14 -16 -17 -40 -31 -55 -33 -25 -3 -26 -6 -23 -52 l3 -48 -33 6 c-30 5 -36 3 -51 -23 -9 -16 -17 -42 -17 -59 0 -36 -44 -73 -54 -46 -3 9 -6 42 -6 74 0 32 -4 70 -10 85 -8 21 -14 24 -36 19 l-26 -7 7 55 c8 63 -4 81 -36 52 -17 -16 -22 -16 -29 -4 -6 8 -10 27 -10 41 0 32 -15 45 -57 47 -25 2 -36 -4 -48 -22 -9 -14 -28 -26 -43 -28 -23 -3 -27 -8 -30 -41 -3 -34 -6 -38 -29 -35 -22 3 -28 -4 -47 -52 -22 -53 -24 -55 -56 -52 -19 1 -36 4 -37 6 -2 2 5 28 17 57 26 70 26 89 -1 89 -23 0 -23 16 2 77 13 31 12 34 -21 68 -24 25 -31 38 -23 46 18 18 225 28 487 22 l249 -5 121 -48z m1231 -17 c-8 -80 -13 -89 -120 -213 -110 -127 -198 -216 -202 -203 -5 15 42 93 114 188 102 136 134 187 128 204 -3 11 8 31 29 54 50 55 59 49 51 -30z m324 -591 c55 -21 61 -36 23 -56 -17 -9 -35 -31 -46 -58 -40 -97 -47 -109 -62 -115 -28 -10 -37 12 -19 46 17 34 13 53 -10 44 -18 -6 -21 27 -4 44 7 7 9 19 6 27 -16 41 -81 1 -152 -93 -24 -31 -48 -51 -65 -54 -22 -5 -29 -14 -40 -52 -16 -59 -43 -92 -88 -111 -67 -28 -94 -70 -104 -164 -3 -21 -9 -26 -51 -32 -92 -13 -114 -44 -104 -149 5 -57 4 -59 -19 -59 -37 0 -76 43 -68 74 3 14 0 58 -7 98 -6 40 -12 134 -11 208 1 74 1 152 2 172 0 29 8 47 34 75 18 21 43 57 54 80 22 43 65 83 88 83 9 0 14 -11 14 -30 0 -36 20 -39 68 -10 39 24 70 25 100 4 29 -20 108 -10 139 19 21 19 24 19 87 3 88 -22 117 -21 123 4 7 25 50 26 112 2z m-2354 -102 c13 -26 35 -61 49 -78 43 -50 28 -59 -24 -16 -34 29 -94 139 -84 155 9 15 32 -9 59 -61z m-310 -56 l30 -13 -35 0 c-19 0 -51 9 -70 19 l-35 20 40 -6 c22 -4 54 -13 70 -20z m4055 -214 c0 -5 -17 -10 -37 -9 -34 1 -35 2 -13 9 36 11 50 11 50 0z m-865 -226 c-12 -69 -84 -173 -163 -238 -80 -66 -120 -91 -130 -82 -3 4 17 30 45 59 60 62 128 151 173 227 52 87 88 103 75 34z m-599 -138 c23 -72 16 -86 -40 -86 -25 0 -47 4 -51 10 -11 17 45 130 65 130 5 0 17 -24 26 -54z m1 -388 c-23 -52 -150 -191 -218 -236 -68 -46 -93 -48 -40 -5 37 31 185 200 221 253 13 19 29 38 35 42 16 12 17 -17 2 -54z m283 -11 c0 -13 -113 -80 -177 -106 -54 -22 -58 -7 -9 34 81 66 186 107 186 72z m-852 -144 c32 -32 72 -76 89 -97 53 -66 55 -169 7 -253 -40 -70 -51 -60 -88 91 -16 60 -41 148 -57 195 -17 47 -32 94 -36 104 -11 35 28 16 85 -40z m982 17 c23 -23 19 -40 -9 -40 -24 0 -43 23 -35 44 8 21 20 20 44 -4z"
       id="path24" />
  </g>
  <path
     style="fill:#ffcc00;stroke-width:3.18407965"
     d="m 605.56849,1664.3739 c -6.5001,-20.1087 -14.54338,-40.0257 -17.87399,-44.2598 -8.58112,-10.9092 -61.64639,-36.9897 -75.26177,-36.9897 -6.07293,0 -15.12008,2.904 -20.10475,6.4534 -21.93306,15.6178 -28.7794,16.677 -113.71106,17.5935 -44.21891,0.4772 -80.39801,-0.1372 -80.39801,-1.3651 0,-2.986 31.35866,-18.6063 41.39303,-20.6186 12.23444,-2.4535 36.43733,-9.2307 38.11674,-10.6734 0.8249,-0.7085 -0.59596,-2.5836 -3.15746,-4.1667 -3.80589,-2.3521 -3.90546,-3.6302 -0.5446,-6.991 2.865,-2.865 14.44865,-4.0765 38.18234,-3.9933 28.81003,0.1009 37.79327,1.4527 58.18962,8.7562 26.64737,9.5418 28.41734,9.9029 28.41734,5.7979 0,-1.5614 -3.42403,-3.6983 -7.60899,-4.7486 -4.18494,-1.0504 -8.43848,-4.0714 -9.4523,-6.7134 -2.43295,-6.3401 0.85604,-6.0642 18.65333,1.5646 17.87424,7.6618 22.93387,8.1245 17.52081,1.6021 -2.17549,-2.6213 -13.45541,-7.6746 -25.06647,-11.2296 -45.52833,-13.9395 -63.37583,-22.2599 -71.99895,-33.5654 -9.81929,-12.8737 -8.82009,-15.848 6.2756,-18.68 6.14871,-1.1535 11.17946,-2.8443 11.17946,-3.7574 0,-0.9132 -3.58209,-6.3566 -7.9602,-12.0966 -10.39793,-13.6324 -10.04393,-17.7955 1.51323,-17.7955 8.95233,0 9.29548,-0.468 6.23822,-8.5093 -4.35808,-11.4626 -1.67193,-16.9633 8.28357,-16.9633 6.73908,0 7.91104,-1.1458 6.31508,-6.1743 -1.35651,-4.274 0.0475,-7.2483 4.56155,-9.6642 3.58664,-1.9196 6.53096,-5.2307 6.54293,-7.3581 0.0127,-2.1275 4.93545,-7.214 10.94104,-11.3034 10.27366,-6.9957 11.449,-7.1416 19.87872,-2.4673 4.92771,2.7324 11.46695,5.8872 14.53163,7.0107 3.06468,1.1234 5.57214,4.1918 5.57214,6.8187 0,3.2118 2.09009,4.2296 6.38144,3.1073 4.79204,-1.2531 6.86064,0.2404 8.30538,5.9968 1.18422,4.7184 4.23963,7.6656 7.94692,7.6656 7.72573,0 8.01529,11.5264 0.6762,26.9167 -5.77897,12.1186 -4.03887,17.7604 3.53831,11.4719 2.59248,-2.1516 6.20918,-2.9876 8.03716,-1.8579 5.64095,3.4864 3.59986,18.0384 -6.48785,46.2554 -13.0439,36.486 -14.11954,43.1883 -8.3455,52.0006 6.77957,10.3469 48.76918,32.2114 50.94935,26.5299 1.91621,-4.9935 -19.46087,-112.3876 -30.33285,-152.3861 -4.13899,-15.2276 -10.16715,-30.6056 -13.39593,-34.1733 -3.22879,-3.5678 -21.68862,-14.3924 -41.0219,-24.0549 -31.24337,-15.6148 -37.30054,-17.5555 -54.48215,-17.4561 -10.63193,0.062 -28.6442,2.2434 -40.02729,4.8486 -27.4836,6.29 -111.44278,10.1017 -111.44278,5.0595 0,-2.0085 -4.65672,-3.7026 -10.34826,-3.7646 -5.69155,-0.062 -13.60222,-1.9196 -17.57929,-4.1279 l -7.23103,-4.0151 9.49016,-7.0164 c 5.21958,-3.859 11.42357,-7.0164 13.78663,-7.0164 2.36307,0 7.0778,-2.1036 10.47719,-4.6748 3.3994,-2.5712 11.19564,-4.766 17.32499,-4.8774 6.12936,-0.1114 13.92561,-2.3062 17.32499,-4.8774 8.96838,-6.7833 28.74167,-5.7613 63.56025,3.2854 34.84342,9.053 34.7877,9.0446 32.21037,4.8744 -1.04886,-1.6971 -13.3865,-6.712 -27.41696,-11.1442 -28.35588,-8.9576 -67.81309,-10.8113 -98.77639,-4.6405 -21.09282,4.2037 -82.42464,8.5212 -82.42464,5.8023 0,-1.0892 -9.44562,-2.7386 -20.99026,-3.6653 -27.03339,-2.1699 -31.30399,-6.2785 -14.31664,-13.7733 7.16008,-3.159 13.01834,-6.7869 13.01834,-8.062 0,-1.2751 4.6357,-3.3365 10.30156,-4.5809 5.66585,-1.2444 13.18824,-4.0616 16.71641,-6.2604 3.52818,-2.1988 18.29544,-5.8609 32.81613,-8.1379 14.5207,-2.277 24.55055,-5.1616 22.28856,-6.4102 -2.26199,-1.2485 -29.90376,-2.9996 -61.42614,-3.8913 -79.63707,-2.2525 -107.58038,-9.8085 -72.79829,-19.685 10.26791,-2.9156 23.06917,-6.6221 28.44723,-8.2366 5.37807,-1.6145 20.78106,-2.9354 34.22886,-2.9354 13.4478,0 24.45055,-1.3364 24.45055,-2.9698 0,-1.6757 -22.82703,-3.41 -52.38665,-3.9801 -35.5981,-0.6865 -53.62151,-2.2479 -56.23988,-4.8721 -3.01696,-3.0236 -1.84031,-4.5788 5.42147,-7.1655 5.10109,-1.8171 11.76274,-4.736 14.80365,-6.4865 3.04091,-1.7505 8.41405,-3.1827 11.9403,-3.1827 3.52625,0 6.41136,-1.4329 6.41136,-3.1841 0,-1.7961 -9.02155,-3.1841 -20.69651,-3.1841 -22.82813,0 -26.71586,-3.8877 -9.55224,-9.5522 14.12392,-4.6613 14.16093,-8.2776 0.11169,-10.9133 -13.24034,-2.4839 -17.66055,-7.9452 -8.39226,-10.3689 8.55121,-2.2362 8.51112,-6.1751 -0.10979,-10.7888 -5.4116,-2.8962 -5.89872,-4.1944 -2.38806,-6.3641 4.56697,-2.8225 4.9384,-3.9682 5.6043,-17.2863 0.30959,-6.1919 2.11238,-7.9602 8.1153,-7.9602 4.2445,0 15.10602,-1.7055 24.1367,-3.79 12.87197,-2.9713 17.77675,-2.9425 22.70179,0.1334 5.21915,3.2594 10.39286,2.5046 30.57074,-4.4598 16.34723,-5.6424 34.02366,-8.9641 54.06413,-10.1597 16.37666,-0.977 30.66443,-3.2144 31.75059,-4.9718 1.31439,-2.1267 -20.97812,-2.4328 -66.65747,-0.9151 -40.23301,1.3367 -69.36897,1.0883 -70.4126,-0.6003 -3.11026,-5.0325 16.41578,-16.6612 31.43226,-18.7195 7.95983,-1.091 15.23428,-3.2164 16.16545,-4.723 2.35818,-3.8156 -18.14467,-3.418 -42.50581,0.8243 -17.64386,3.0725 -21.16282,2.8648 -25.53462,-1.507 -4.63805,-4.638 -3.7295,-5.6753 10.65099,-12.1603 l 15.72154,-7.09 -17.51244,-2.5777 c -27.01049,-3.9758 -28.18299,-4.8893 -17.37371,-13.5372 l 9.41352,-7.5311 -8.62562,-2.1812 c -12.47828,-3.1554 -17.38163,-10.0045 -9.05446,-12.6475 7.6005,-2.4123 8.28638,-5.7808 2.20479,-10.828 -4.81305,-3.9945 -4.44308,-19.4687 0.78914,-33.00627 2.90311,-7.51134 5.17946,-8.75622 16.01146,-8.75622 6.94497,0 13.58451,1.54893 14.75453,3.44209 1.17003,1.89312 5.49578,2.59665 9.61277,1.56335 5.46752,-1.37227 8.40836,-0.15443 10.90894,4.51811 4.21727,7.88004 11.33353,8.29224 14.23647,0.82471 1.92308,-4.94698 2.99525,-4.61373 9.5563,2.97033 4.06461,4.6983 8.06154,10.4297 8.88205,12.7363 1.08645,3.0542 3.70011,2.1653 9.61794,-3.2709 11.46038,-10.52757 20.27896,-6.9615 24.8399,10.0449 5.19009,19.3522 6.11382,19.8407 13.71175,7.2515 3.7864,-6.2738 10.16194,-13.7027 14.16787,-16.5085 6.70421,-4.6958 7.7534,-4.6763 13.19197,0.2455 5.09504,4.6109 5.66248,8.5999 4.12161,28.9738 -1.2597,16.6562 -0.7119,23.6267 1.85678,23.6267 2.00402,0 3.64367,-2.1969 3.64367,-4.8819 0,-7.9415 15.68246,-36.5111 20.04168,-36.5111 3.30468,0 14.30266,6.1458 21.35135,11.9314 0.87562,0.7187 2.30846,13.6181 3.18408,28.6652 1.63783,28.1451 7.27304,38.4214 11.4737,20.9231 4.90852,-20.447 21.44373,-41.9954 32.45944,-42.3007 5.858,-0.1624 19.74845,15.629 19.74845,22.4511 0,8.96 6.18654,10.5466 13.76806,3.531 8.46401,-7.8323 33.49674,-7.9892 42.46572,-0.2662 3.22069,2.7733 8.36324,5.9316 11.42791,7.0184 6.18323,2.1928 7.16683,9.1671 2.51791,17.8537 -2.44681,4.5719 -1.42663,6.4485 5.12955,9.4357 6.77541,3.0871 7.84704,5.2198 6.22688,12.3923 -1.07631,4.7648 -2.8614,21.6272 -3.96688,37.4718 l -2.00998,28.8084 10.69134,8.9962 c 12.23674,10.2965 24.36649,16.4682 27.06426,13.7704 1.0148,-1.0148 -1.07501,-23.8147 -4.64401,-50.6665 -3.569,-26.8516 -7.90355,-60.284 -9.63235,-74.2939 -2.1028,-17.0408 -6.75725,-33.3995 -14.06109,-49.4197 -10.11381,-22.1837 -12.1849,-24.5882 -28.12503,-32.65319 -29.36964,-14.85965 -36.27823,-15.87451 -122.93706,-18.05901 -86.61259,-2.18333 -99.96484,-4.446 -81.54477,-13.8184 5.01715,-2.5528 17.01502,-5.60029 26.66194,-6.77219 22.23275,-2.70086 31.84908,-7.92202 15.89298,-8.62904 -20.10118,-0.89072 -36.32045,0.79707 -55.7214,5.79846 -20.8895,5.38511 -86.17632,7.32357 -101.89054,3.02529 l -9.55224,-2.61279 9.55224,-7.66765 c 5.25373,-4.21718 11.18681,-7.67474 13.18462,-7.68344 1.99781,-0.01 9.87841,-2.85003 17.51244,-6.31406 7.63403,-3.46402 18.53677,-6.32969 24.22831,-6.36816 5.69154,-0.0385 10.34826,-1.52326 10.34826,-3.29956 0,-2.13117 -15.17888,-2.50505 -44.62815,-1.09924 -42.70765,2.03873 -48.79955,1.43825 -76.366877,-7.52758 -5.056379,-1.64451 -3.985265,-2.31785 17.512437,-11.00915 8.7457,-3.53579 6.93413,-4.0298 -21.455347,-5.85065 -17.054169,-1.09383 -31.943533,-2.92473 -33.087475,-4.06868 -2.283558,-2.28356 25.276345,-14.97625 32.518241,-14.97625 2.481678,0 4.512144,-1.32528 4.512144,-2.94505 0,-1.61978 -12.867232,-3.95161 -28.593847,-5.1819 -15.726615,-1.23027 -27.910138,-3.34313 -27.074494,-4.69521 0.835644,-1.35209 8.684673,-4.17729 17.442287,-6.27821 19.753956,-4.7389 17.772255,-9.45277 -4.150916,-9.87374 -9.090677,-0.17455 -20.110593,-1.3645 -24.488702,-2.64435 -7.8277595,-2.2882 -7.788028,-2.36659 2.38806,-4.7117 13.677303,-3.15195 13.118352,-7.43871 -1.323195,-10.14798 -10.6541507,-1.99871 -11.1666095,-2.55873 -5.879412,-6.4248 5.269971,-3.85351 5.317488,-4.41737 0.527174,-6.25557 -6.1848032,-2.37335 -7.0141426,-15.07471 -1.2847664,-19.67628 7.3611374,-5.9121 47.3816964,-9.75188 57.5274574,-5.51947 3.318654,1.38443 7.324316,0.87562 9.393035,-1.19311 5.46132,-5.4613 12.269026,-4.35659 20.43648,3.31631 l 7.369396,6.92321 8.23068,-7.71923 8.23069,-7.71919 6.09767,7.51691 c 3.35372,4.13434 6.11962,10.5821 6.14643,14.32836 0.10075,14.07404 5.06534,15.83102 11.9174,4.21763 l 6.5138,-11.04006 -6.43628,-2.87195 c -5.469,-2.44034 -3.04448,-4.2374 16.1326,-11.95749 25.0808,-10.09672 27.12904,-16.48207 4.08408,-12.73205 -15.667,2.54943 -52.40801,2.21774 -61.71309,-0.55715 -9.382508,-2.79798 -6.333969,-6.48403 11.88596,-14.37144 9.60195,-4.15669 17.48255,-8.44746 17.51244,-9.53501 0.0299,-1.08753 -13.05166,-3.00262 -29.07011,-4.25572 -16.018438,-1.25309 -32.137841,-3.46546 -35.820891,-4.91634 -6.206841,-2.44509 -5.939837,-2.91331 3.651805,-6.40402 5.691542,-2.0713 10.348259,-4.83069 10.348259,-6.13196 0,-1.30124 -8.168677,-4.19397 -18.15262,-6.42828 l -18.152616,-4.06237 8.694852,-4.55569 c 9.54938,-5.00343 8.690328,-10.62148 -1.624122,-10.62148 -5.455867,0 -5.903182,-0.8036 -2.637561,-4.73845 3.184799,-3.83742 2.956211,-5.11309 -1.202166,-6.70883 -7.303055,-2.80243 -6.351487,-9.92929 2.029456,-15.19977 11.409217,-7.17488 46.216231,-12.08359 53.486764,-7.54306 5.01412,3.13135 6.83113,2.72347 10.55514,-2.3694 4.39872,-6.01562 4.77381,-5.96964 16.9315,2.07596 12.16351,8.04942 12.58927,8.10141 19.63299,2.39774 5.82745,-4.71878 8.65712,-5.16611 14.8448,-2.3468 5.44845,2.48247 10.20195,2.50957 16.54464,0.0942 4.89483,-1.86383 14.27282,-4.27857 20.83999,-5.36603 23.4851,-3.88891 11.74901,-8.05681 -22.68657,-8.05681 -36.59581,0 -54.52736,-2.20513 -54.52736,-6.70551 0,-1.49897 3.58209,-3.62444 7.9602,-4.72329 10.81724,-2.71494 10.07554,-7.67567 -1.14764,-7.67567 -5.00931,0 -16.09106,-0.95717 -24.62612,-2.12703 l -15.518293,-2.127 12.685823,-5.37594 12.68583,-5.3759 -17.01358,-2.38895 c -12.310569,-1.72861 -16.051267,-3.35128 -13.532336,-5.8702 5.565539,-5.56555 4.068668,-8.57578 -4.264393,-8.57578 -5.100886,0 -8.478844,-2.31014 -9.892977,-6.76569 -2.706334,-8.5269 1.498075,-11.23327 24.006767,-15.45307 9.631839,-1.80572 21.565259,-4.62739 26.518709,-6.27038 6.0701,-2.01339 11.63361,-1.79018 17.06523,0.68464 6.70615,3.05551 8.72743,2.7577 12.04126,-1.77423 5.23295,-7.15647 9.42378,-6.87465 24.59894,1.65426 11.77065,6.6155 12.84402,6.7242 15.71612,1.59204 4.2838,-7.65472 12.59023,-6.88166 26.34388,2.45183 14.01629,9.51171 19.68919,9.97184 24.66723,2.00075 3.61459,-5.78789 4.05081,-5.76799 15.15136,0.69101 6.28628,3.65774 11.90722,7.77234 12.49097,9.14353 0.58375,1.37119 3.09121,2.49307 5.57214,2.49307 2.48093,0 4.51078,2.7811 4.51078,6.18024 0,10.18791 6.86705,11.39321 14.48083,2.54169 l 7.06964,-8.21897 11.2862,7.66917 c 11.43143,7.76788 12.71066,10.07612 16.64654,30.03683 4.14548,21.0239 16.15528,27.37423 12.66155,6.69494 -1.19317,-7.06223 -0.75654,-13.23775 1.01324,-14.33154 1.71039,-1.05709 2.43687,-4.49538 1.61436,-7.64065 -0.9864,-3.77195 1.19709,-7.15966 6.41423,-9.95178 7.3516,-3.93444 9.03145,-3.2873 23.8066,9.1713 18.52549,15.6209 21.02448,21.18349 25.70438,57.21603 3.39919,26.17189 9.59949,41.62777 16.69941,41.62777 5.82808,0 1.85119,-85.22412 -4.54744,-97.4514 -8.19996,-15.66943 -38.49667,-26.52692 -106.46029,-38.15241 -26.52038,-4.53645 -31.57049,-6.25359 -27.38741,-9.31232 4.44331,-3.24903 3.89523,-3.99637 -4.1007,-5.59143 -5.07623,-1.01263 -18.54293,-2.85084 -29.92602,-4.08489 -24.57323,-2.66396 -33.61252,-6.25197 -23.8806,-9.47897 3.50249,-1.16143 8.51742,-2.9539 11.14428,-3.98332 2.62687,-1.02941 -8.83582,-3.27654 -25.47263,-4.99365 l -30.24876,-3.12196 11.92407,-5.04916 c 6.55824,-2.77702 11.93137,-5.99785 11.94029,-7.15733 0.009,-1.15951 -5.7076,-3.07521 -12.7034,-4.25715 -12.59652,-2.12817 -20.91233,-7.96303 -11.34887,-7.96303 6.97624,0 6.19333,-5.54886 -1.10998,-7.86684 -15.20835,-4.82694 -8.92628,-22.27674 9.01225,-25.03342 6.26456,-0.96271 19.83613,-3.22602 30.15904,-5.02958 15.95797,-2.7881 20.15073,-2.46298 27.99535,2.17097 7.57706,4.47586 9.7005,4.68311 11.87834,1.15933 3.0654,-4.95994 14.67051,-2.39704 23.2527,5.13515 4.89749,4.29829 6.70232,4.22601 17.04698,-0.68286 14.04016,-6.66249 11.83361,-9.06985 -12.97214,-14.15262 -30.84531,-6.32031 -32.23306,-6.87383 -25.99131,-10.36689 8.72154,-4.88081 6.14342,-8.22117 -10.6503,-13.79916 -14.45185,-4.80013 -18.96681,-11.13607 -7.93551,-11.13607 7.99782,0 8.45259,-6.28034 0.71023,-9.80798 -5.48997,-2.50142 -7.60907,-6.05221 -7.60907,-12.74988 0,-5.10561 1.4806,-9.28293 3.29022,-9.28293 2.1644,0 2.10884,-1.18136 -0.16239,-3.4526 -1.89892,-1.89892 -2.68876,-6.37344 -1.7552,-9.9434 1.57982,-6.04125 3.15331,-6.31626 22.71627,-3.97071 11.56039,1.3861 25.81626,2.65409 31.67971,2.81782 7.16687,0.20028 12.68713,2.80008 16.84352,7.93301 4.69057,5.7926 7.07415,6.74384 9.87649,3.9415 2.0316,-2.03157 6.27291,-3.69378 9.42515,-3.69378 8.68387,0 6.89608,-5.11558 -4.61692,-13.21072 -5.69154,-4.00191 -12.24165,-9.11443 -14.55579,-11.36111 -2.31414,-2.24669 -5.53802,-4.08489 -7.16418,-4.08489 -1.62615,0 -2.95664,-2.71239 -2.95664,-6.02749 0,-3.31514 -2.29792,-6.9093 -5.10648,-7.98705 -3.17539,-1.21851 -4.34546,-3.94275 -3.09407,-7.20382 1.22277,-3.18646 -0.73948,-8.1735 -5.00079,-12.70947 l -7.0132,-7.4652 15.67941,-0.55731 c 23.92283,-0.85034 40.7297,0.79207 45.11517,4.4087 2.17973,1.79761 6.67568,2.55902 9.99097,1.69206 3.5016,-0.91568 9.84731,1.54771 15.14135,5.87784 5.01244,4.09979 13.05381,7.5057 17.86973,7.56868 4.81592,0.063 11.51554,2.87383 14.88808,6.24637 3.51144,3.51144 8.70913,5.4579 12.16271,4.55473 7.98717,-2.08866 11.91753,3.43441 16.56868,23.28292 2.12104,9.05141 5.8452,19.08126 8.27593,22.28855 4.04126,5.33244 4.42663,4.87779 4.50299,-5.31279 0.21556,-28.76129 -7.89808,-39.57881 -47.64218,-63.51937 -9.63184,-5.80193 -18.22885,-11.51143 -19.10447,-12.68782 -0.87563,-1.17641 -6.89258,-5.35916 -13.371,-9.29501 -6.89347,-4.18798 -11.10967,-8.90028 -10.16527,-11.36134 0.88753,-2.31289 -0.76657,-5.11864 -3.67577,-6.23501 -3.29543,-1.26457 -4.54088,-3.98062 -3.3037,-7.20465 1.0922,-2.8462 -0.96663,-10.17888 -4.57514,-16.29486 -3.60852,-6.11597 -5.85944,-11.82146 -5.00203,-12.67885 0.85737,-0.85738 6.14435,0.0396 11.7488,1.99334 5.60446,1.95372 14.19005,3.55222 19.0791,3.55222 4.88903,0 9.77471,1.43284 10.85705,3.18408 1.08233,1.75125 4.8775,3.18408 8.43373,3.18408 3.55624,0 8.95226,3.07055 11.99118,6.82344 3.03889,3.75288 10.41595,8.4096 16.39343,10.34826 6.55433,2.12573 12.49595,6.92574 14.96921,12.09301 3.9617,8.27698 15.18558,14.67426 19.01937,10.84047 7.00052,-7.00051 -18.54755,-30.82094 -52.15376,-48.62695 -9.00442,-4.77094 -15.72805,-10.35174 -14.94139,-12.40177 0.78669,-2.05003 -0.80127,-4.58368 -3.52878,-5.63032 -2.72752,-1.04665 -4.95911,-4.66034 -4.95911,-8.03042 0,-3.37009 -2.24007,-6.98703 -4.97793,-8.03764 -2.73786,-1.05062 -3.9871,-3.51341 -2.7761,-5.47287 3.26416,-5.28153 31.02857,-0.87839 56.33108,8.93351 31.91887,12.37759 32.58647,6.77896 2.36822,-19.85974 -9.63184,-8.49089 -17.51244,-16.52351 -17.51244,-17.85027 0,-1.32676 -1.79104,-4.20333 -3.9801,-6.39239 -2.18905,-2.18905 -3.9801,-6.62413 -3.9801,-9.85572 0,-4.97694 1.68413,-5.55968 11.01081,-3.80999 6.05592,1.1361 16.44398,3.94688 23.08457,6.24618 16.6366,5.76041 17.18789,0.63927 1.66751,-15.48985 -7.00183,-7.27646 -14.38119,-16.4538 -16.39856,-20.3941 -3.17108,-6.19365 -2.85449,-7.16418 2.33706,-7.16418 3.30278,0 10.48692,1.56239 15.96478,3.47197 16.389,5.71325 17.23991,2.16648 3.77836,-15.74915 -18.19511,-24.215388 -16.94014,-31.535664 3.58661,-20.92088 5.32951,2.756 10.39958,4.30132 11.26686,3.43405 0.86728,-0.86727 -2.13155,-7.904773 -6.66405,-15.638903 -10.26993,-17.52433 -10.25465,-18.905428 0.18022,-16.286459 7.89362,1.98117 8.28389,1.567036 6.23105,-6.612062 -1.26325,-5.033285 -0.69107,-10.531668 1.35215,-12.993631 2.53882,-3.059085 2.57767,-6.070183 0.13723,-10.630384 -4.73132,-8.840141 -4.35486,-9.965099 3.33428,-9.965099 5.1719,0 6.35217,-1.481237 5.07421,-6.368159 -0.91593,-3.502488 -0.46628,-6.368159 0.99923,-6.368159 1.46547,0 3.1224,-3.11165 3.682,-6.914777 1.61895,-11.0023145 8.78169,-10.7815295 11.00584,0.339244 1.08816,5.440672 3.2262,10.663293 4.75125,11.605826 1.52505,0.942532 2.77282,4.494805 2.77282,7.89394 0,4.13624 2.18982,6.180244 6.62117,6.180244 5.70033,0 6.32938,1.328436 4.52311,9.552239 -1.92506,8.764739 -1.39246,9.552239 6.46034,9.552239 8.8,0 9.26886,3.451472 2.76958,20.388289 -1.60465,4.181671 -0.22607,4.716379 7.94663,3.081874 11.6188,-2.323761 12.69015,1.868987 5.11201,20.006038 -6.22246,14.89239 -6.27694,14.77687 4.37244,9.26987 16.94246,-8.7613 17.74621,2.40867 1.93875,26.94431 -6.16065,9.56234 -9.90229,17.81906 -8.31471,18.34825 1.58758,0.52919 11.64306,-3.27957 22.34552,-8.46391 14.91289,-7.22391 19.45899,-8.33717 19.45899,-4.76516 0,9.07668 -9.44248,22.07008 -28.48344,39.19487 -25.65654,23.07465 -25.16394,27.57748 1.90246,17.38971 14.05551,-5.29047 26.03068,-7.6524 35.59951,-7.02148 l 14.41926,0.95072 -9.33082,10.18099 c -5.13197,5.59955 -14.71586,12.42971 -21.29754,15.17813 -6.58165,2.74843 -15.03685,7.48042 -18.78929,10.51553 -31.14074,25.18776 -32.8348,31.6306 -4.83384,18.38402 20.08995,-9.50407 49.06249,-17.64175 62.80985,-17.64175 h 9.39689 l -12.42199,12.42198 c -6.83208,6.8321 -15.42909,13.37641 -19.10448,14.54293 -3.67538,1.16652 -6.68777,3.81543 -6.69427,5.88647 -0.006,2.07104 -9.16811,8.4999 -20.35916,14.28634 -22.10888,11.43159 -32.39148,20.57989 -29.10628,25.89547 3.61839,5.8547 11.29441,3.70591 19.18825,-5.3715 6.29391,-7.23758 8.61443,-8.13554 13.37963,-5.17748 4.529,2.81145 7.51698,2.34229 13.93615,-2.18821 5.86526,-4.13958 17.8373,-6.5282 42.42531,-8.46455 18.83985,-1.48367 34.78696,-1.83564 35.43804,-0.78216 1.71858,2.78073 -25.5766,28.5527 -30.24029,28.5527 -2.18548,0 -3.12571,2.1172 -2.11263,4.75726 1.3511,3.52087 -1.87046,5.68792 -12.39566,8.33819 -10.09318,2.5415 -14.22118,5.20702 -14.22118,9.18288 0,3.92706 -5.68263,7.7271 -19.00634,12.70983 -10.4535,3.90935 -20.84156,9.33025 -23.08458,12.04639 -2.24303,2.71618 -18.5402,11.6971 -36.21588,19.95756 -35.36946,16.52935 -44.94376,26.64196 -48.19856,50.90831 -2.25837,16.83731 3.35026,16.34973 10.18603,-0.8855 6.5699,-16.56485 19.86423,-31.20283 26.14852,-28.79134 2.66568,1.02295 9.28385,-2.74697 15.64348,-8.91093 9.33706,-9.04985 11.93291,-10.11579 16.97165,-6.96903 4.85187,3.03004 6.9676,2.58898 11.47555,-2.39226 7.50593,-8.29395 15.87331,-10.50749 23.76139,-6.28591 5.31047,2.84207 8.17828,2.26232 14.87802,-3.00769 4.56473,-3.59062 11.40181,-6.52841 15.19351,-6.52841 3.7917,0 8.25517,-1.26812 9.91885,-2.8181 3.60871,-3.36201 52.37811,-6.73051 52.37811,-3.61775 0,4.37515 -19.81182,31.90849 -22.95998,31.90849 -1.79044,0 -2.52428,2.79571 -1.63073,6.21274 1.38976,5.31436 -0.85868,6.72828 -15.549,9.77799 -17.72345,3.67936 -22.84473,10.43694 -10.80556,14.25802 3.50249,1.11166 6.36816,4.07387 6.36816,6.58274 0,5.90656 1.03266,5.7763 13.28672,-1.67585 7.49803,-4.55982 11.36146,-5.32037 14.36475,-2.82784 2.25952,1.87523 5.91752,2.73235 8.12889,1.90475 2.21134,-0.82764 13.63518,-0.62972 25.38628,0.43978 l 21.36566,1.94458 -13.71699,14.69756 c -7.54435,8.08364 -15.72607,15.49694 -18.18157,16.47401 -3.75463,1.49397 -3.70509,2.31358 0.3114,5.1542 4.15023,2.93508 4.07308,3.3841 -0.58873,3.42648 -2.95069,0.0255 -9.19597,1.50534 -13.87842,3.28559 -6.71984,2.55487 -7.75266,4.15369 -4.90214,7.58836 4.68932,5.65028 1.12073,6.99877 -26.28926,9.93414 -23.93419,2.56312 -28.75966,6.04351 -16.26947,11.73441 7.8236,3.56468 8.36722,5.04616 7.0151,19.11801 -1.51775,15.79565 1.90427,20.64293 5.71109,8.08973 3.10394,-10.23538 13.84887,-21.12774 27.99892,-28.38304 11.38006,-5.83499 12.50165,-5.89918 16.14004,-0.92339 3.62612,4.95902 4.8945,4.84515 17.46544,-1.56806 10.6473,-5.43185 14.52733,-6.10879 18.08595,-3.15539 3.48749,2.89436 6.68628,2.86717 13.89354,-0.11813 5.39453,-2.23452 11.13132,-2.7413 13.53521,-1.19572 2.29476,1.47541 7.75438,2.77757 12.13249,2.89366 4.37811,0.11622 19.31443,0.47981 33.19183,0.80822 l 25.23166,0.59711 -6.9232,7.36939 c -3.80775,4.05317 -6.92318,8.35168 -6.92318,9.55224 0,3.93106 -12.02608,14.31349 -18.01931,15.55652 -3.82956,0.7943 -5.60653,3.60778 -5.12634,8.11654 0.5938,5.57545 -1.40052,7.30147 -10.38344,8.98668 -11.89655,2.23182 -16.38897,6.02323 -11.04802,9.3241 6.68204,4.12972 -0.81395,7.9602 -15.57764,7.9602 -17.18317,0 -21.07303,2.16466 -15.64427,8.70594 5.39845,6.50469 -0.37346,9.15741 -24.91078,11.44874 -24.5766,2.29502 -29.07354,4.43829 -21.27563,10.14027 5.36539,3.92327 5.17368,4.3578 -2.80626,6.36065 -7.90989,1.98527 -8.53785,3.34472 -8.20923,17.77194 0.19583,8.59221 1.53693,15.62221 2.98049,15.62221 1.44354,0 5.51362,-6.08955 9.04461,-13.53234 4.76739,-10.04899 10.59668,-15.83506 22.646,-22.4781 8.9243,-4.92017 16.88052,-8.29125 17.68049,-7.49128 0.79994,0.79993 1.72106,6.61014 2.04692,12.91157 0.32586,6.30142 1.34062,11.46354 2.25506,11.47141 0.9144,0.006 6.99717,-4.38295 13.51721,-9.75733 8.23992,-6.79202 13.80171,-9.15362 18.2401,-7.74495 4.01156,1.27321 9.82266,-0.42084 15.63103,-4.55674 10.23286,-7.28645 21.37762,-8.63112 23.31688,-2.81329 0.92167,2.76499 4.73877,2.37691 14.31709,-1.45557 11.31234,-4.5263 13.56829,-4.6137 16.8554,-0.65299 2.90716,3.50293 5.30096,3.76682 10.23163,1.12802 4.63191,-2.47893 8.59749,-2.46018 14.14384,0.0669 4.23897,1.9314 12.29653,3.54353 17.90567,3.58248 l 10.19858,0.0708 -7.9602,6.22656 c -4.86515,3.80558 -6.20635,6.25408 -3.44941,6.29735 5.5175,0.0866 2.6225,3.47239 -3.77145,4.41084 -2.54118,0.37298 -7.07333,3.13113 -10.07143,6.12926 -2.99813,2.99809 -7.49803,5.45111 -9.99983,5.45111 -5.60149,0 -6.02482,5.34152 -0.56858,7.17472 2.18906,0.73546 -1.39303,3.11524 -7.9602,5.28837 -14.14473,4.68063 -15.18436,8.32089 -3.23314,11.32045 6.97491,1.75061 10.11181,0.55238 15.76769,-6.02297 8.03789,-9.3446 12.24457,-10.31454 14.88557,-3.43221 2.56955,6.69621 9.54243,5.94235 16.5383,-1.78799 3.26725,-3.61024 8.30074,-5.94687 11.18554,-5.19247 2.88478,0.7544 7.95606,-0.16239 11.26948,-2.03717 3.31342,-1.87482 11.0393,-3.58506 17.16865,-3.80052 6.12936,-0.21556 14.36816,-1.45637 18.30846,-2.75757 8.64962,-2.85638 9.57981,2.74977 2.20361,13.28079 -2.72835,3.89521 -4.12103,8.44065 -3.0949,10.10095 1.0261,1.66031 -1.29837,4.71209 -5.1655,6.78171 -6.60588,3.53538 -6.69128,4.01153 -1.41147,7.87222 4.99732,3.65412 3.65029,4.73005 -12.16248,9.7146 -20.90339,6.5892 -22.87373,10.81052 -5.04588,10.81052 7.00498,0 12.73632,1.25813 12.73632,2.79585 0,1.53775 -8.88963,6.12037 -19.7547,10.18364 l -19.75473,7.38776 10.20249,2.64374 c 5.61134,1.45405 10.20246,3.93903 10.20246,5.52219 0,3.39235 -3.02993,4.33795 -36.61691,11.42794 -31.73076,6.69816 -37.18295,10.95693 -14.16916,11.06764 9.63735,0.0465 22.9861,2.61308 30.0217,5.77258 l 12.6685,5.68909 -35.59893,6.96374 c -19.57942,3.83007 -42.03148,6.96374 -49.89351,6.96374 -7.862,0 -15.04443,1.2133 -15.96093,2.69622 -0.91648,1.48292 9.89176,6.60996 24.01834,11.3934 25.4442,8.61574 25.7487,8.63965 32.52321,2.55357 12.39441,-11.13486 14.91977,-11.35052 24.57654,-2.09873 l 9.26032,8.87193 1.92086,-9.60426 c 1.97196,-9.85992 14.90095,-20.18029 25.28111,-20.18029 3.0011,0 10.50915,-4.43625 16.68458,-9.85835 8.91714,-7.82937 13.1363,-9.47672 20.49974,-8.00402 5.72319,1.14462 12.05595,0.0287 16.54652,-2.91231 5.52683,-3.62132 13.81518,-4.42632 34.49514,-3.35036 32.21381,1.6761 50.21053,4.69805 50.21053,8.43119 0,2.50164 -4.7977,4.10415 -35.02486,11.69914 -7.13282,1.79219 -11.00714,4.60211 -10.76327,7.80622 0.27638,3.63319 -3.43422,5.43611 -13.53059,6.57413 -14.47836,1.63191 -24.65929,7.39831 -21.65231,12.26371 0.95968,1.55281 4.52601,2.82329 7.92514,2.82329 3.39913,0 6.18023,1.33528 6.18023,2.96728 0,4.1854 -17.74124,16.32337 -27.78491,19.00943 -12.07349,3.22897 -12.12373,7.96819 -0.14042,13.24182 22.49148,9.89803 7.18086,22.73245 -35.61285,29.8532 -36.593,6.08898 -44.37425,11.24372 -17.49674,11.59088 10.4199,0.13468 24.4445,1.92563 31.16581,3.9801 l 12.22049,3.7354 -7.67958,7.19236 c -9.04811,8.47401 -37.96439,16.66544 -59.10585,16.74351 -29.04116,0.10731 -77.05858,13.82407 -77.05858,22.01279 0,1.54001 8.23881,0.59535 18.30846,-2.09927 23.06334,-6.1717 75.2847,-7.24381 80.87253,-1.66034 2.19074,2.18906 7.27871,3.9801 11.30657,3.9801 4.02786,0 7.32339,1.43284 7.32339,3.18408 0,1.75125 2.26865,3.18408 5.04145,3.18408 7.15555,0 3.84277,7.2762 -5.29675,11.63383 -24.62778,11.74232 -29.28669,12.51879 -100.04321,16.67398 -27.69681,1.62649 -53.11169,4.80573 -60.49751,7.56785 -20.10581,7.51911 -36.61692,16.01586 -36.61692,18.84342 0,3.5754 0.93052,3.4212 21.82187,-3.61657 10.14027,-3.41604 31.26196,-7.17912 46.93706,-8.36245 24.18069,-1.8254 29.15152,-1.36664 32.7978,3.02688 2.6211,3.1582 9.13098,5.17834 16.68728,5.17834 6.81432,0 14.87768,1.31502 17.9186,2.92228 3.04093,1.60729 11.97669,5.78898 19.85729,9.29271 l 14.32836,6.37035 -11.9403,5.07842 c -6.56716,2.79314 -11.9403,6.5193 -11.9403,8.28042 0,1.82995 -3.42868,2.34148 -8.00156,1.19374 -4.60109,-1.1548 -10.02332,-0.33031 -12.75899,1.94009 -3.28571,2.72691 -10.46909,3.30215 -23.22047,1.85951 -10.15467,-1.14888 -19.44014,-1.11172 -20.6344,0.0825 -1.19428,1.19426 -27.62198,2.44487 -58.72824,2.77907 -42.71236,0.45895 -60.45396,1.89462 -72.47723,5.86482 -31.97911,10.56 -32.97911,17.198 -1.45529,9.6605 11.30788,-2.7038 29.15678,-5.0987 39.66424,-5.3221 23.81173,-0.5061 62.84854,9.0414 77.43201,18.938 6.06035,4.1127 12.96815,7.4776 15.35064,7.4776 7.37853,0 4.76392,6.1384 -3.49781,8.2119 -4.30627,1.0808 -9.49664,3.9738 -11.53417,6.4288 -2.03739,2.4552 -8.54393,4.4639 -14.45884,4.4639 -5.91494,0 -10.75442,1.4328 -10.75442,3.184 0,1.7513 -3.62705,3.1841 -8.06011,3.1841 -8.97128,0 -13.85658,8.0137 -8.28307,13.5872 5.14487,5.1449 4.45708,15.6228 -1.59252,24.2598 -4.35763,6.2214 -4.48649,7.8742 -0.79602,10.209 7.0514,4.4611 10.28006,1.8239 18.67852,-15.2565 6.34787,-12.9102 10.74273,-17.3683 22.28855,-22.6095 20.98735,-9.5272 37.04158,-13.9718 47.00237,-13.0126 14.7604,1.4214 42.92072,-9.8295 53.77878,-21.4863 14.13681,-15.1767 25.91787,-14.6174 42.55564,2.0204 7.00498,7.0049 13.52728,12.7363 14.494,12.7363 0.96671,0 3.20897,-4.1632 4.98276,-9.2515 4.04194,-11.5947 17.42392,-17.7715 28.98172,-13.3773 4.52999,1.7223 9.17651,4.6527 10.32562,6.512 3.58584,5.802 11.26565,3.6972 11.26565,-3.0876 0,-10.1205 7.1055,-10.5234 32.12756,-1.8216 17.0153,5.9174 24.31,7.1538 27.345,4.6349 4.8033,-3.9864 18.58,-1.9376 49.5868,7.3742 19.5599,5.8741 30.6233,12.201 21.3352,12.201 -2.106,0 -2.8607,2.2203 -1.7439,5.1306 1.3779,3.5906 0.5922,4.6024 -2.6173,3.3708 -10.2709,-3.9414 -27.3269,-5.8545 -27.3269,-3.0653 0,1.6284 4.6567,5.4142 10.3483,8.413 8.5291,4.4937 8.9489,5.1474 2.388,3.7186 -4.3781,-0.9535 -14.4079,-2.525 -22.2885,-3.4923 l -14.3284,-1.7587 12.7363,8.4695 12.7363,8.4695 -11.1442,-2.0126 c -25.5745,-4.6184 -60.49754,-5.913 -60.49754,-2.2424 0,2.0108 1.79104,3.6571 3.9801,3.6585 2.18905,0 13.29354,4.6243 24.67664,10.2732 l 20.6965,10.2706 -13.3199,1.0438 c -7.326,0.5741 -24.1014,-1.1831 -37.27873,-3.905 -25.83136,-5.3356 -75.17252,-6.7347 -75.17252,-2.1316 0,1.5494 8.2388,3.7771 18.30846,4.9503 24.10953,2.8089 60.13541,14.4851 54.82294,17.7684 -2.21077,1.3664 -27.45034,3.5178 -56.08792,4.781 -28.63761,1.2632 -52.06836,3.3704 -52.06836,4.6826 0,1.3122 -11.5492,3.8602 -25.66489,5.6622 -14.11566,1.802 -28.08581,5.3665 -31.04478,7.9211 -7.67223,6.6239 -25.03492,11.9147 -39.09995,11.9147 -15.00498,0 -19.4532,5.7634 -6.4547,8.3631 5.28028,1.056 12.16219,4.7507 15.29313,8.2104 5.32063,5.8792 5.3418,6.5468 0.32389,10.216 -2.95282,2.1591 -11.5308,5.7514 -19.06223,7.9829 -7.5314,2.2315 -16.18146,5.3504 -19.22238,6.931 -3.04093,1.5805 -8.36544,2.8737 -11.83227,2.8737 -3.46685,0 -11.00867,1.9843 -16.75962,4.4095 -20.60214,8.6881 -29.61978,10.2076 -44.70403,7.5328 -9.50305,-1.6852 -17.21161,-1.4805 -20.69652,0.5496 -4.8946,2.8512 -4.66312,3.2464 1.95158,3.3317 5.18588,0.067 6.96378,1.5068 5.75383,4.6599 -1.19295,3.1088 1.23529,5.2189 7.61956,6.6211 5.15379,1.132 9.37053,3.3771 9.37053,4.9892 0,1.6121 2.86567,2.9311 6.36816,2.9311 3.50248,0 6.36816,1.996 6.36816,4.4355 0,2.4395 2.12508,5.2509 4.72243,6.2476 2.59735,0.9967 3.98797,3.7262 3.09025,6.0656 -0.89772,2.3394 1.99212,7.6584 6.42184,11.8199 4.42972,4.1615 8.05403,10.9436 8.05403,15.0714 0,4.1279 2.11382,8.3163 4.69735,9.3077 4.10651,1.5758 4.06874,3.0181 -0.30026,11.4669 -3.85194,7.4488 -4.10412,10.2165 -1.1001,12.0731 2.33339,1.4421 3.29645,6.5039 2.39981,12.6133 -1.23132,8.3895 -0.16971,10.8095 5.96843,13.6063 4.10638,1.871 8.1195,2.7485 8.91797,1.95 0.7985,-0.7985 2.9084,-16.8244 4.68862,-35.6131 3.30753,-34.9075 6.86,-46.7556 14.01899,-46.7556 2.22303,0 9.59965,-5.0908 16.39247,-11.3128 6.79285,-6.222 18.57182,-12.9766 26.17549,-15.0103 7.60371,-2.0337 15.78237,-6.6851 18.17482,-10.3364 2.39246,-3.6514 10.23781,-9.2939 17.43405,-12.539 l 13.08415,-5.9001 6.3659,7.34 c 6.57369,7.5795 7.49882,10.3974 6.53242,19.8979 -0.31172,3.0646 1.12319,5.5721 3.18876,5.5721 2.39672,0 2.99269,2.5922 1.64709,7.1642 -1.1597,3.9403 -2.54035,10.0298 -3.06817,13.5323 -0.5278,3.5025 -5.51811,13.5188 -11.08955,22.2585 -6.69016,10.4945 -8.8256,16.325 -6.28884,17.1706 10.11786,3.3726 34.54866,-41.2051 34.54866,-63.0393 0,-4.9736 2.14926,-10.8266 4.77612,-13.0067 2.62687,-2.1801 4.77612,-5.793 4.77612,-8.0286 0,-5.4649 22.08666,-16.6766 35.42696,-17.9836 9.98394,-0.9782 11.26649,0 18.16989,13.9177 8.56435,17.2612 7.54105,23.4375 -6.54036,39.4753 -5.33225,6.0731 -9.06466,11.6724 -8.29427,12.4428 3.42324,3.4232 25.05517,-15.4653 31.8465,-27.8076 7.02946,-12.7752 8.42593,-13.6681 22.81625,-14.5886 16.54004,-1.0581 24.38594,2.9684 24.38594,12.5147 0,7.1706 7.2176,7.8519 12.7364,1.2022 5.891,-7.0983 24.5706,-6.1341 29.3474,1.5149 3.1744,5.0829 6.1784,5.9313 15.6436,4.4177 9.7569,-1.5602 12.3164,-0.7491 15.3147,4.8533 2.1182,3.958 6.7239,6.7265 11.19,6.7265 4.1746,0 11.6466,2.1032 16.6044,4.6738 4.9579,2.5706 20.2998,9.5875 34.0932,15.5931 22.7132,9.8893 24.4464,11.2578 18.3738,14.5077 -3.6878,1.9737 -10.5522,2.6229 -15.2542,1.4428 -7.0877,-1.7789 -8.2045,-1.2477 -6.5334,3.107 1.4523,3.7847 0.2639,5.2527 -4.2526,5.2527 -3.4475,0 -6.2682,1.3879 -6.2682,3.0842 0,4.0762 -6.8559,1.259 -28.1695,-11.5754 -23.2777,-14.0171 -35.813,-14.5951 -17.0349,-0.7855 7.35,5.4052 13.3636,10.4474 13.3636,11.2049 0,2.1973 -16.3653,-2.4983 -30.5545,-8.7669 -18.369,-8.1152 -55.7733,-16.3659 -59.1023,-13.0368 -1.5649,1.5648 4.5107,5.1115 13.9928,8.1686 18.0849,5.8307 50.9085,27.9189 44.6087,30.0189 -2.1138,0.7046 -12.1105,-1.1316 -22.2149,-4.0805 -10.1044,-2.9487 -28.4015,-8.0716 -40.6602,-11.3843 -26.00261,-7.0266 -83.30366,-12.0207 -80.19412,-6.9894 1.10568,1.7891 8.13899,4.1104 15.6296,5.1586 20.87791,2.9214 65.01312,17.7125 73.18602,24.5269 l 7.2989,6.0857 -11.7524,0.106 c -6.4638,0.058 -12.63789,1.5388 -13.72022,3.29 -3.02459,4.8939 -65.13876,3.7947 -90.81817,-1.6072 -23.29428,-4.9001 -49.9867,-5.5875 -52.60271,-1.3548 -0.80341,1.3 5.70319,3.3489 14.4591,4.5532 8.7559,1.2042 16.72243,3.4881 17.70335,5.0752 0.98092,1.5872 5.63926,3.0521 10.35183,3.2552 5.39083,0.2324 6.50192,0.9094 2.99615,1.8255 -9.52431,2.489 -6.14556,6.7008 7.18172,8.9524 12.35048,2.0866 24.95548,13.3097 19.85344,17.6769 -6.32922,5.4175 -61.90723,10.768 -112.88333,10.8671 -50.93865,0.099 -56.9464,0.6881 -62.08955,6.0873 -5.5311,5.8065 -5.37504,5.9102 5.45016,3.6221 16.04397,-3.3911 18.11429,-3.4102 45.37313,-0.4169 13.57214,1.4903 24.67662,3.9742 24.67662,5.5197 0,1.5455 4.29851,2.81 9.55224,2.81 5.78802,0 9.55224,1.6558 9.55224,4.2019 0,2.3109 3.80472,7.5101 8.45494,11.5534 l 8.45497,7.3515 -7.65895,5.8882 c -4.21241,3.2386 -10.72952,5.9201 -14.48244,5.959 -3.75294,0.039 -7.64825,2.2201 -8.6563,4.847 -1.15034,2.9978 -6.01941,4.7761 -13.07698,4.7761 -6.22892,0 -11.2442,1.6031 -11.2442,3.5943 0,2.4608 -4.90581,2.9435 -15.5562,1.5307 -12.44574,-1.651 -15.93632,-1.073 -17.45739,2.8908 -1.53001,3.9872 -5.02014,4.5407 -17.87663,2.8352 -15.61629,-2.0716 -15.97545,-1.9336 -15.97545,6.1391 0,4.9474 2.50562,9.5993 6.24958,11.6031 3.81163,2.0399 5.51346,5.263 4.36258,8.2621 -1.25135,3.261 0.39746,5.5149 4.89469,6.691 7.77154,2.0323 8.43956,4.4511 2.80161,10.1444 -3.18669,3.218 -2.9924,4.5771 0.97455,6.8177 3.48475,1.9682 4.56218,6.1601 3.63173,14.13 -1.19699,10.2532 -2.27464,11.3482 -11.32281,11.5055 -5.49993,0.096 -16.44765,0.6112 -24.32825,1.1459 -7.8806,0.5347 -17.01706,-0.4074 -20.30325,-2.0935 -3.88977,-1.9957 -8.48312,-1.9227 -13.16216,0.2092 -5.37425,2.4487 -8.85521,2.1065 -13.79958,-1.3567 -4.05871,-2.8429 -9.75111,-3.8437 -14.7399,-2.5916 -4.47016,1.1219 -9.9,0.5738 -12.06632,-1.218 -2.16629,-1.7919 -8.23725,-3.7429 -13.49098,-4.3357 -9.21055,-1.0392 -9.60917,-1.7553 -11.14428,-20.0203 l -1.59204,-18.9426 -13.95773,16.7085 -13.9577,16.7084 2.24172,27.7068 c 3.21484,39.734 9.79302,71.393 24.19414,116.4395 6.94314,21.7181 12.62385,41.0855 12.62385,43.0389 0,1.9535 -4.84394,3.5516 -10.76429,3.5516 h -10.76429 z m -2.18905,-172.1456 c 5.94738,-13.0531 4.31045,-25.0929 -5.06103,-37.2245 -8.59116,-11.1214 -19.39579,-19.9131 -21.6733,-17.6356 -1.99855,1.9985 17.86409,62.9701 20.51369,62.9701 1.38902,0 4.1883,-3.6495 6.22064,-8.11 z m 47.29606,-47.5438 c 9.29315,-9.5946 16.89664,-19.7439 16.89664,-22.5538 0,-7.8716 -3.99109,-4.7466 -23.63495,18.5061 -21.78302,25.7849 -17.06236,28.6206 6.73831,4.0477 z m 70.2963,0.9274 c -1.96799,-5.9039 -8.82255,-6.8832 -8.82255,-1.2603 0,2.7728 2.26866,5.0414 5.04145,5.0414 2.77283,0 4.4743,-1.7015 3.7811,-3.7811 z m -29.09886,-9.2149 c 10.91254,-6.7443 13.98489,-12.4766 6.68708,-12.4766 -4.15809,0 -27.8038,14.991 -27.8038,17.6272 0,3.6565 11.34335,0.8897 21.11672,-5.1506 z m 32.67617,-49.1683 c 16.11931,-14.5629 28.50875,-39.7262 19.55958,-39.7262 -1.686,0 -8.69951,8.2965 -15.58559,18.4367 -6.88609,10.1402 -14.82005,20.3455 -17.63108,22.6784 -2.811,2.333 -5.11093,5.4991 -5.11093,7.0359 0,5.5403 6.57952,2.5868 18.76802,-8.4248 z m -181.15608,3.705 c 0,-2.3816 -2.17842,-26.0525 -4.84091,-52.6022 -5.15764,-51.43 -16.75046,-106.1245 -25.23998,-119.0812 -2.91639,-4.4509 -16.53712,-13.2398 -31.32096,-20.2099 l -26.16033,-12.3339 h -49.88609 c -27.43735,0 -51.02491,1.1398 -52.4168,2.5328 -1.39186,1.3931 -1.12506,4.9752 0.59288,7.9602 1.71797,2.9851 2.95119,12.8781 2.7405,21.9846 -0.43689,18.8817 5.97142,25.3015 12.01525,12.0367 1.9791,-4.3436 5.5176,-7.8974 7.86337,-7.8974 2.34575,0 4.26502,-1.6331 4.26502,-3.6291 0,-4.2118 9.47642,-12.042 14.75301,-12.1901 1.9848,-0.056 4.4068,2.9506 5.38218,6.6805 1.19148,4.5562 3.41607,6.1514 6.77891,4.8609 3.99446,-1.5328 4.60621,-0.3301 3.02885,5.9546 -1.48903,5.9328 -0.71336,7.8754 3.14469,7.8754 3.73022,0 5.12131,3.0272 5.12131,11.1443 0,13.2899 8.31124,15.6055 11.42881,3.1841 1.2502,-4.9813 4.25183,-7.9602 8.02085,-7.9602 3.77776,0 6.02298,-2.2374 6.02298,-6.002 0,-3.301 3.23524,-8.1218 7.18946,-10.7127 6.44604,-4.2236 8.32264,-4.1029 18.1489,1.167 6.02769,3.2326 12.17707,8.0534 13.66527,10.7126 1.48821,2.6593 5.61414,4.8351 9.16879,4.8351 5.52453,0 6.15829,1.3869 4.36489,9.5522 -1.6093,7.3271 -0.97649,9.5523 2.71653,9.5523 5.86472,0 9.59252,10.4185 6.83571,19.1044 -1.73332,5.4612 -0.57218,6.3682 8.15258,6.3682 10.08535,0 10.15607,0.1105 8.13803,12.7306 -1.11962,7.0019 -5.58296,23.8378 -9.91853,37.413 -10.99199,34.4175 -10.62276,36.9982 7.16026,50.045 16.13255,11.836 23.08457,13.9212 23.08457,6.9242 z m 124.13036,-10.7944 c -0.0255,-3.0647 -1.4869,-7.7214 -3.24461,-10.3483 -2.76614,-4.1339 -3.82981,-3.9451 -7.91142,1.4046 -6.97186,9.138 -5.7698,14.5158 3.24458,14.5158 5.477,0 7.94498,-1.7382 7.91145,-5.5721 z m -85.3524,-13.5323 c 0.81483,-8.8764 2.53277,-11.3582 8.44169,-12.1951 4.80328,-0.6804 8.53773,-4.2611 10.59308,-10.1571 1.74596,-5.0085 8.07922,-12.8473 14.07392,-17.4197 5.99467,-4.5724 10.89942,-9.9189 10.89942,-11.8813 0,-3.5787 27.12266,-31.1329 30.64534,-31.1329 1.03221,0 1.06966,2.1034 0.0831,4.6741 -0.98649,2.5708 -0.48595,5.4824 1.11233,6.4702 1.59828,0.9878 2.15444,3.7544 1.2359,6.148 -3.65204,9.5171 5.20068,7.7182 10.15674,-2.0638 2.91263,-5.7488 7.31927,-12.7665 9.7925,-15.5949 3.97574,-4.5466 3.40006,-5.5967 -4.96789,-9.0629 -5.45003,-2.2575 -11.23452,-2.7847 -13.637,-1.243 -2.29477,1.4725 -10.62005,2.8892 -18.50065,3.1481 -7.8806,0.2589 -22.56716,1.0135 -32.63682,1.6766 -10.06965,0.6631 -18.30845,0.1009 -18.30845,-1.2495 0,-7.5976 -10.26968,-0.3025 -19.22898,13.6593 l -10.34058,16.1144 2.14591,34.0348 c 1.65639,26.2714 3.35564,34.9454 7.44944,38.0269 6.79903,5.1176 9.71507,1.9466 10.99096,-11.9522 z m -210.71825,-62.1342 c 0,-3.27 -14.39246,-23.7582 -16.71642,-23.7966 -4.53152,-0.075 -2.3687,8.6787 4.2112,17.0436 5.91831,7.524 12.50522,11.0809 12.50522,6.753 z m -50.94528,-7.9156 c -2.62686,-1.6976 -7.64179,-3.0865 -11.14428,-3.0865 -5.27326,0 -5.54699,0.5306 -1.59204,3.0865 2.62687,1.6976 7.6418,3.0866 11.14428,3.0866 5.27328,0 5.54699,-0.5307 1.59204,-3.0866 z m 247.46205,-17.627 c 5.07912,-10.651 5.0517,-12.069 -0.50748,-26.2686 -19.58002,-50.012 -21.02944,-63.5082 -7.69805,-71.6791 3.4353,-2.1056 8.95981,-9.9236 12.27663,-17.3735 3.63765,-8.1704 9.14997,-14.7312 13.8917,-16.534 4.32359,-1.6439 8.77586,-5.871 9.89389,-9.3936 1.11805,-3.5227 7.48389,-9.6944 14.14632,-13.7148 26.79024,-16.1666 43.30931,-26.9156 56.61548,-36.84 7.68803,-5.7341 19.71118,-12.7195 26.71809,-15.5231 7.00692,-2.8036 12.14297,-6.7091 11.4134,-8.6788 -0.72954,-1.9698 -3.01185,-3.1987 -5.07176,-2.731 -18.82221,4.2739 -54.36418,4.1105 -81.76497,-0.3759 -48.94,-8.013 -54.93553,-7.8926 -61.97814,1.2441 -3.32099,4.3085 -6.9446,10.6993 -8.05241,14.2018 -1.10784,3.5025 -5.78821,11.3831 -10.40089,17.5124 -7.72888,10.2703 -8.32299,13.267 -7.57512,38.209 1.13143,37.7339 6.13818,73.0881 15.10572,106.6666 4.20923,15.7612 8.50427,34.0299 9.54457,40.5971 2.36768,14.9469 6.53946,15.1583 13.44302,0.6814 z m 45.50034,-49.5251 c 14.32151,-16.6398 19.07741,-24.5927 19.07741,-31.9015 0,-12.3385 -5.60748,-10.8446 -13.7058,3.6514 -3.32966,5.9601 -11.63785,18.6344 -18.46263,28.1651 -11.66972,16.2966 -16.36328,28.664 -9.19754,24.2353 1.76615,-1.0915 11.796,-11.9592 22.28856,-24.1503 z M 269.524,1177.1949 c 10.60217,-11.2855 27.36775,-18.4874 34.34486,-14.7534 5.85928,3.1358 43.35157,-2.8352 47.85522,-7.6214 1.21893,-1.2953 -18.31747,-1.6481 -43.4142,-0.7838 -33.81413,1.1644 -46.81788,2.7588 -50.21599,6.1569 -6.71009,6.7101 -11.34027,39.1652 -7.099,49.7601 3.34386,8.3532 3.551,8.1218 7.39499,-8.2612 2.17512,-9.2703 7.18547,-20.2941 11.13412,-24.4972 z m 365.64478,-5.8767 c 0.59565,-3.0712 -1.00244,-5.3082 -3.79218,-5.3082 -5.91516,0 -9.48524,5.1905 -6.68567,9.7203 2.88013,4.6601 9.23759,1.9831 10.47785,-4.4121 z M 533.8408,1067.4441 c 0,-8.8699 -2.69928,-14.9252 -10.82622,-24.2867 -5.95442,-6.859 -11.71745,-11.6033 -12.80672,-10.543 -2.45127,2.386 5.49811,37.3382 10.70465,47.0667 5.44261,10.1696 12.92829,3.0842 12.92829,-12.237 z m 42.61457,-44.7269 c 8.60552,-9.5253 11.51478,-15.5588 11.51478,-23.8806 0,-6.12432 -1.16935,-11.13511 -2.59859,-11.13511 -3.26693,0 -26.05813,38.22881 -26.05813,43.70861 0,7.0998 5.30439,4.4098 17.14194,-8.6929 z M 475.32582,986.24003 c 2.87602,-7.49481 -8.19846,-71.22273 -17.06937,-98.22542 -11.09865,-33.78378 -19.69449,-43.68079 -44.61466,-51.36808 -10.37424,-3.20023 -9.24284,4.67021 2.29961,15.99691 5.20508,5.1078 9.50358,11.07795 9.55224,13.26701 0.0487,2.18905 2.95412,3.9801 6.45661,3.9801 5.06565,0 6.36816,2.12273 6.36816,10.37835 0,6.92999 2.11591,11.69977 6.36816,14.35535 7.60409,4.74884 8.02225,11.92282 1.59204,27.3125 -9.34454,22.36465 -5.12793,44.19604 11.54426,59.77024 11.02796,10.30164 14.9041,11.30552 17.50295,4.53304 z m 27.81943,-14.94346 c -1.57864,-9.87211 -0.91523,-14.10623 2.61903,-16.71641 2.60321,-1.92258 5.76026,-7.61948 7.01564,-12.65978 2.37571,-9.53842 18.03699,-27.45272 24.00004,-27.45272 1.88593,0 3.429,-2.81527 3.429,-6.25614 0,-7.38426 11.19729,-14.73041 14.44441,-9.47646 3.08038,4.98414 16.60479,9.46834 22.14486,7.34242 2.72309,-1.04495 4.80376,-5.76302 4.80376,-10.89292 0,-6.52033 2.97619,-11.31956 10.6488,-17.17178 5.85686,-4.46723 12.66283,-8.07667 15.12438,-8.02098 6.00976,0.13596 13.94697,6.59171 16.51328,13.43109 1.14993,3.06467 3.45475,5.57213 5.12181,5.57213 1.66706,0 3.97154,4.28208 5.12102,9.51572 1.14952,5.23367 3.4126,10.33314 5.02913,11.33221 1.61649,0.99906 2.93909,4.64254 2.93909,8.09663 0,3.45409 2.14926,7.10493 4.77612,8.11294 6.07293,2.33043 6.07293,12.59565 0,29.80818 -5.79057,16.41224 -5.77477,15.92039 -0.51111,15.92039 6.75719,0 11.65539,-14.62734 11.65539,-34.806 0,-15.31981 -2.23815,-23.05767 -12.73632,-44.03232 -7.00497,-13.99552 -12.73632,-26.9724 -12.73632,-28.8375 0,-7.00431 -7.28253,-7.07347 -45.31403,-0.43036 -53.31745,9.31314 -72.03149,17.95973 -87.49354,40.42529 -10.83017,15.73572 -12.05076,19.53462 -11.89951,37.03543 0.25886,29.95528 3.71212,43.38178 11.15765,43.38178 5.56004,0 6.02466,-1.48107 4.14742,-13.22084 z m -9.06046,-87.95765 c -1.10825,-5.90749 -7.02847,-21.73812 -13.15607,-35.17921 -9.76847,-21.42742 -10.87812,-26.39977 -9.00675,-40.35871 1.17391,-8.75622 3.21994,-17.35324 4.54674,-19.10448 1.32681,-1.75125 3.33755,-8.32806 4.46835,-14.61515 1.13076,-6.28709 5.49289,-14.65989 9.69358,-18.60623 l 7.63762,-7.17517 9.82607,7.26473 c 5.40434,3.99561 9.82607,8.4281 9.82607,9.85002 0,1.42191 2.76913,2.58528 6.15358,2.58528 3.38449,0 7.06312,2.86567 8.17478,6.36816 3.20703,10.10445 11.14427,7.83666 11.14427,-3.18408 0,-5.25373 1.43284,-9.55224 3.18408,-9.55224 1.75125,0 3.18408,-3.58209 3.18408,-7.9602 0,-4.37811 2.86568,-10.82587 6.36816,-14.32836 15.07535,-15.07534 2.75812,-16.45968 -43.05289,-4.83875 -17.12322,4.34366 -33.57399,10.10653 -36.55725,12.80634 -2.98329,2.69981 -9.39733,12.20888 -14.2535,21.13121 -7.8756,14.47005 -8.64656,18.50386 -7.13724,37.34292 1.39947,17.46766 20.99315,90.19137 27.0621,100.44331 0.94583,1.59771 4.46233,-0.4821 7.81446,-4.62178 4.54059,-5.60742 5.58093,-10.26567 4.07976,-18.26761 z m 218.06446,-2.53312 c 0,-2.75283 -3.79118,-11.47431 -8.42482,-19.38105 -4.63366,-7.90674 -8.86638,-19.29673 -9.40609,-25.31114 -1.6256,-18.11605 -2.01061,-18.26356 -42.36968,-16.23435 -36.56078,1.83826 -48.05811,3.87082 -48.05811,8.49592 0,1.3092 14.52513,3.18077 32.27806,4.15901 21.24765,1.17082 33.14493,3.18125 34.81479,5.88313 1.39517,2.25748 2.08564,4.88931 1.53432,5.84855 -0.5513,0.95924 4.49181,6.04259 11.20694,11.29632 6.71513,5.25373 12.27567,11.94253 12.35677,14.86395 0.27043,9.74293 3.95237,15.38481 10.04033,15.38481 3.35764,0 6.02749,-2.21702 6.02749,-5.00515 z M 298.21891,864.23002 c 0,-4.90434 2.83699,-11.27371 6.36815,-14.29719 3.50249,-2.99892 6.36816,-7.61587 6.36816,-10.25987 0,-2.64402 2.25432,-4.80729 5.00959,-4.80729 3.06763,0 4.58293,-2.16005 3.90893,-5.57214 -0.93253,-4.72087 -4.00839,-5.39899 -20.13397,-4.43867 -10.46832,0.62341 -19.26499,1.33983 -19.54815,1.59204 -2.49293,2.22042 3.86498,17.97101 7.2542,17.97101 3.09793,0 4.40493,4.25138 4.40493,14.32836 0,7.8806 1.43283,14.32836 3.18408,14.32836 1.75124,0 3.18408,-3.98007 3.18408,-8.84461 z m 74.36093,-2.14763 c 4.63382,-4.2945 8.42514,-9.30942 8.42514,-11.14428 0,-1.83486 1.79104,-3.36799 3.98009,-3.40693 2.18906,-0.0388 7.43789,-2.72901 11.66408,-5.97792 l 7.68402,-5.90714 -7.3963,-3.95838 c -8.09377,-4.33166 -60.50901,-8.66602 -60.50901,-5.00366 0,3.45677 8.66223,11.36567 12.44822,11.36567 3.06481,0 4.13186,3.09461 8.50876,24.67662 1.85412,9.14254 4.76841,9.01903 15.195,-0.64398 z M 235.90192,836.23027 c 7.55384,-7.55384 6.18107,-14.10092 -2.95665,-14.10092 -4.53563,0 -7.9602,-1.83791 -7.9602,-4.27211 0,-4.93 18.64141,-11.13928 41.6086,-13.85937 8.73996,-1.03515 16.64996,-3.11034 17.57779,-4.6116 1.84468,-2.98476 -30.43731,-2.9519 -88.68235,0.0901 l -37.45617,1.95646 8.51196,11.94029 c 9.88074,13.86037 17.41509,15.12047 24.62397,4.11832 4.97844,-7.59804 5.38811,-7.67102 14.31238,-2.5492 5.05298,2.90003 11.7341,10.00199 14.84693,15.78218 6.39079,11.86697 8.47557,12.60402 15.57374,5.50584 z m 207.56986,2.4299 c -0.87483,-1.41551 -5.37069,-25.36228 -9.99082,-53.21501 -4.62013,-27.85277 -9.67982,-53.03234 -11.24378,-55.95463 -2.92649,-5.46821 -28.65041,-19.71082 -31.12702,-17.23418 -2.34819,2.3482 9.2202,24.18748 13.72867,25.91755 5.77337,2.21545 8.01738,12.66184 11.16348,51.96879 2.55382,31.90709 3.13415,33.86231 12.54712,42.2728 9.16907,8.19254 18.55328,12.11966 14.92235,6.24468 z m 314.7512,-22.39634 c 2.19858,-8.95563 6.25009,-15.3044 12.29214,-19.26199 8.8376,-5.78869 9.25064,-5.77293 21.27153,0.81153 6.74238,3.69318 13.16716,5.80661 14.27725,4.69651 1.1101,-1.11009 1.05011,-7.17971 -0.13341,-13.48801 -1.75748,-9.36852 -3.54493,-11.46963 -9.75748,-11.46963 -4.18321,0 -7.60489,1.07463 -7.60374,2.38806 0.001,1.31343 -19.94486,1.89504 -44.32446,1.29242 -46.0374,-1.13793 -69.04686,2.96266 -41.38648,7.3756 17.11039,2.72981 44.35703,10.34507 50.14477,14.01517 2.99758,1.90083 1.36765,3.26056 -5.57214,4.64853 -11.12725,2.22545 -12.64322,8.57884 -4.23693,17.75711 7.84946,8.57033 11.26164,6.58025 15.02895,-8.7653 z M 610.26813,780.71871 c 1.87966,-3.51217 4.29303,-16.04948 5.36307,-27.8607 1.16404,-12.8489 3.67322,-22.49772 6.24672,-24.0212 5.4444,-3.22305 5.71635,-21.32187 0.32108,-21.36938 -2.18905,-0.0191 -9.35323,-0.92316 -15.92039,-2.00864 -14.26573,-2.35797 -16.54082,3.63628 -3.29196,8.67349 6.94171,2.63922 7.72713,3.8707 3.9801,6.24058 -2.56755,1.62388 -9.32496,2.97447 -15.0165,3.00128 -10.72962,0.0506 -13.90914,4.36916 -5.57214,7.56836 2.62687,1.00802 4.77612,3.87369 4.77612,6.36816 0,2.49444 2.25248,5.39976 5.00553,6.4562 2.85399,1.09517 4.70346,5.00534 4.30271,9.09689 -0.38658,3.94682 0.38114,9.68673 1.706,12.75532 1.32486,3.0686 1.51062,9.15815 0.41275,13.53234 -2.39334,9.53594 2.85004,10.60506 7.68691,1.5673 z M 456.1569,744.64637 c -5.6114,-39.51332 -5.6698,-46.29795 -0.55015,-63.90891 3.14154,-10.80654 7.46014,-18.88105 10.70516,-20.0156 2.99164,-1.04594 10.07277,-6.25149 15.73585,-11.56785 l 10.29655,-9.66614 12.60135,10.12671 c 15.08228,12.12049 17.29213,12.38419 21.75194,2.59595 5.02139,-11.02073 31.5086,-31.7844 37.57583,-29.45617 3.35313,1.28671 4.35551,4.06002 3.00517,8.31452 -1.19916,3.7782 -0.58004,6.38386 1.5168,6.38386 2.32454,0 2.82396,3.83235 1.45223,11.14427 -2.93881,15.66529 0.31713,13.87454 10.13094,-5.57213 4.63984,-9.19403 13.97741,-21.4848 20.75014,-27.31278 6.77276,-5.82802 12.31408,-11.87274 12.31408,-13.43268 0,-2.69052 -47.42642,-0.93427 -57.04986,2.11257 -3.43126,1.08638 -3.62479,2.31645 -0.80761,5.13363 2.81718,2.81718 -6.24401,6.60846 -37.81613,15.82255 -72.7815,21.24074 -79.47157,27.41321 -79.41299,73.26918 0.0344,26.85675 5.00324,56.32331 11.18424,66.32437 4.32949,7.00527 8.62313,-6.16504 6.61646,-20.29535 z M 287.33404,734.46715 c -1.4701,-5.85737 0.17596,-10.94317 6.02298,-18.609 4.42528,-5.80184 8.04597,-12.0419 8.04597,-13.86683 0,-3.6159 -28.06614,-8.87708 -31.11125,-5.83199 -1.02898,1.029 0.53518,6.91643 3.4759,13.08319 2.94073,6.1668 5.34679,13.40718 5.34679,16.08976 0,5.57762 5.68702,17.19508 8.41741,17.19508 1.00385,0 0.91484,-3.62708 -0.1978,-8.06021 z m 65.01422,0.10001 c 0,-4.68129 1.82702,-7.96019 4.43545,-7.96019 2.43952,0 5.2602,-2.14926 6.26825,-4.77612 1.00801,-2.62687 4.02697,-4.77612 6.70882,-4.77612 7.63743,0 5.70702,-9.25272 -2.28814,-10.96715 -7.30342,-1.56609 -51.50769,-8.13733 -54.73928,-8.13733 -5.93482,0 -0.085,9.9222 9.01548,15.2916 6.93747,4.0932 12.14468,10.46213 14.57532,17.82697 4.61112,13.97183 16.0241,16.4635 16.0241,3.49834 z m 324.77612,-20.88444 c 0,-3.39913 -1.43284,-6.18023 -3.18408,-6.18023 -1.75125,0 -3.18408,3.66666 -3.18408,8.14812 0,4.62125 1.3782,7.29632 3.18408,6.18024 1.75124,-1.08234 3.18408,-4.749 3.18408,-8.14813 z M 231.35323,708.9884 c 0,-7.9068 21.16917,-26.95855 29.95471,-26.95855 4.33313,0 8.76396,-1.43284 9.84629,-3.18408 1.2666,-2.0494 -10.58054,-3.18408 -33.24492,-3.18408 -22.06682,0 -35.21279,1.22603 -35.21279,3.284 0,1.80623 2.28884,4.16232 5.08632,5.23583 2.79748,1.07348 7.76148,8.1927 11.03113,15.82045 5.8697,13.69349 12.53926,18.4733 12.53926,8.98643 z m 451.40961,-16.8093 c 0.81659,-2.44976 -2.75697,-3.78109 -10.14925,-3.78109 -13.09201,0 -14.5409,2.13563 -4.24543,6.25761 8.49509,3.40114 12.67518,2.68201 14.39468,-2.47652 z M 186.77612,678.84577 c 0,-3.53786 -2.12272,-6.36816 -4.77612,-6.36816 -2.6534,0 -4.77612,2.8303 -4.77612,6.36816 0,3.53786 2.12272,6.36816 4.77612,6.36816 2.6534,0 4.77612,-2.8303 4.77612,-6.36816 z m 254.72637,-51.9594 c 0,-26.20303 8.12564,-48.79195 23.34615,-64.90116 l 13.27353,-14.04861 7.16281,6.67314 c 3.93954,3.67025 7.16278,9.48301 7.16278,12.9173 0,3.43425 1.27956,6.2441 2.84342,6.2441 3.66509,0 6.70882,-8.01353 6.70882,-17.66307 0,-4.26151 4.49726,-12.17624 10.25512,-18.04803 l 10.25516,-10.45805 -7.9453,-0.93825 c -18.32043,-2.16343 -73.76767,29.04711 -79.17847,44.56855 -5.90278,16.93277 -3.33539,72.58861 3.3485,72.58861 1.52212,0 2.76748,-7.62053 2.76748,-16.93453 z m -22.30047,-60.2794 c -0.0127,-34.92484 -4.6642,-48.79558 -18.92219,-56.42623 -8.337,-4.46181 -8.36285,-1.09226 -0.17038,22.19737 3.38815,9.63184 6.21504,23.24378 6.28197,30.24876 0.15092,15.78357 5.71978,36.61691 9.78808,36.61691 1.7266,0 3.0293,-14.06647 3.02252,-32.63681 z m 133.68893,-34.12238 c 3.54382,-6.94642 9.30427,-14.16104 12.80105,-16.03245 3.49676,-1.87141 6.35775,-4.94768 6.35775,-6.83616 0,-3.77323 -23.78297,-1.22179 -37.60847,4.03465 l -7.94157,3.01936 6.85462,6.38606 c 3.77005,3.51232 6.85463,9.91232 6.85463,14.22223 0,11.56802 5.37052,9.53801 12.68199,-4.79369 z M 380.77508,504.93701 c 0.24359,-3.77186 -37.34193,-15.65042 -40.26647,-12.72587 -0.94373,0.94373 2.92069,8.94137 8.58762,17.77251 l 10.30349,16.05664 10.57274,-8.7714 c 5.81502,-4.82427 10.67618,-10.37361 10.80262,-12.33188 z m -47.5313,-13.58058 c 0,-3.40738 -12.76784,-7.09588 -16.5249,-4.77385 -1.4759,0.91214 -1.8591,2.99227 -0.85156,4.62251 2.33137,3.77222 17.37646,3.90327 17.37646,0.15134 z m 90.34826,-10.3216 c 4.49767,-22.48843 2.3651,-37.3113 -6.76617,-47.02966 -7.71057,-8.20626 -44.20512,-24.85148 -47.42569,-21.63091 -0.6683,0.66834 1.03422,6.59859 3.78342,13.17833 4.69751,11.24273 5.34346,11.65106 10.72561,6.78027 3.14988,-2.85061 7.86404,-4.36289 10.4759,-3.3606 5.75587,2.20873 18.46066,26.77429 18.46066,35.6949 0,10.56847 3.8109,26.31791 6.36816,26.31791 1.31343,0 3.28358,-4.47761 4.37811,-9.95024 z m 63.99783,-15.36427 c 6.60751,-12.77749 6.21737,-13.92054 -3.89833,-11.42228 -12.79936,3.16109 -14.79307,6.53484 -8.32554,14.08837 3.16838,3.70041 6.1219,6.72803 6.56335,6.72803 0.44144,0 2.9887,-4.22735 5.66052,-9.39412 z m 34.87036,-15.01892 c 1.12041,-2.91971 0.90351,-6.44213 -0.48198,-7.82762 -4.017,-4.017 -11.55111,2.42745 -9.39787,8.03872 2.53857,6.61544 7.29931,6.51374 9.87985,-0.2111 z m 42.72942,-18.40656 c 0.70368,-3.62992 -0.44376,-5.16092 -3.18408,-4.24842 -2.35628,0.78462 -4.77924,3.98032 -5.38428,7.10154 -0.70368,3.62992 0.44377,5.16092 3.18408,4.24843 2.35629,-0.78462 4.77924,-3.98033 5.38428,-7.10155 z M 349.16418,406.60697 c 0,-2.62687 -1.43284,-4.77612 -3.18408,-4.77612 -1.75124,0 -3.18408,2.14925 -3.18408,4.77612 0,2.62686 1.43284,4.77611 3.18408,4.77611 1.75124,0 3.18408,-2.14925 3.18408,-4.77611 z"
     id="path34"
     inkscape:connector-curvature="0"
     transform="scale(0.75000002)" />
</svg>
