<?xml version="1.0" standalone="no"?>
<!DOCTYPE svg PUBLIC "-//W3C//DTD SVG 20010904//EN"
 "http://www.w3.org/TR/2001/REC-SVG-20010904/DTD/svg10.dtd">
<svg version="1.0" xmlns="http://www.w3.org/2000/svg"
 width="1280.000000pt" height="640.000000pt" viewBox="0 0 1280.000000 640.000000"
 preserveAspectRatio="xMidYMid meet">
<metadata>
Created by potrace 1.15, written by Peter Selinger 2001-2017
</metadata>
<g transform="translate(0.000000,640.000000) scale(0.100000,-0.100000)"
fill="#000000" stroke="none">
<path d="M4624 4756 c-88 -39 -137 -220 -138 -506 0 -239 33 -379 130 -542 64
-108 233 -280 320 -326 34 -18 65 -32 69 -32 3 0 -8 17 -27 39 -123 144 -218
426 -203 601 8 97 47 290 86 433 38 137 42 214 13 254 -44 61 -188 107 -250
79z"/>
<path d="M8025 4756 c-112 -28 -155 -73 -155 -162 0 -28 22 -141 49 -250 67
-271 75 -324 68 -440 -10 -192 -88 -389 -202 -513 -36 -40 -38 -43 -15 -36
113 33 281 187 379 348 98 159 126 276 125 522 0 274 -34 447 -99 504 -20 17
-41 31 -48 31 -7 0 -21 2 -32 5 -11 2 -42 -2 -70 -9z"/>
<path d="M5280 4632 c-120 -78 -235 -272 -275 -463 -19 -90 -19 -268 0 -358
54 -259 236 -513 463 -646 93 -54 244 -105 336 -112 l71 -5 -72 36 c-229 112
-385 290 -461 526 -78 243 -45 458 103 665 119 168 125 242 25 340 -33 33 -47
39 -92 42 -46 4 -59 0 -98 -25z"/>
<path d="M7332 4643 c-45 -22 -100 -89 -108 -130 -10 -55 3 -93 72 -203 126
-200 165 -309 165 -465 0 -334 -204 -637 -519 -772 l-57 -24 80 5 c211 14 439
140 589 327 85 107 168 273 197 394 68 285 -24 633 -215 813 -79 75 -134 90
-204 55z"/>
<path d="M3930 4148 c-58 -30 -90 -78 -90 -135 0 -182 252 -575 492 -767 165
-132 346 -200 668 -251 117 -19 571 -32 667 -20 l58 8 -90 18 c-421 88 -850
253 -1013 388 -110 92 -216 244 -352 504 -92 177 -127 230 -173 257 -44 27
-111 26 -167 -2z"/>
<path d="M8703 4150 c-46 -27 -81 -80 -174 -259 -108 -209 -215 -369 -310
-462 -63 -63 -97 -86 -195 -137 -253 -128 -528 -221 -859 -291 l-90 -18 58 -8
c96 -12 550 1 667 20 322 51 503 119 668 251 191 152 397 438 466 646 33 96
33 154 3 199 -47 71 -166 101 -234 59z"/>
<path d="M3250 3961 c-34 -12 -67 -33 -87 -55 -28 -30 -33 -43 -33 -85 0 -126
121 -333 300 -512 184 -185 379 -284 644 -326 119 -18 455 -13 546 9 l55 14
-115 22 c-344 68 -583 177 -750 342 -97 95 -167 197 -264 379 -37 68 -75 136
-86 152 -51 71 -122 91 -210 60z"/>
<path d="M9431 3973 c-43 -8 -104 -84 -171 -212 -95 -182 -173 -295 -270 -391
-167 -165 -406 -274 -750 -342 l-115 -22 55 -14 c91 -22 427 -27 546 -9 268
43 462 141 649 331 168 170 285 367 293 493 4 62 4 64 -35 102 -26 26 -57 44
-93 55 -54 16 -65 17 -109 9z"/>
<path d="M2541 3814 c-94 -33 -151 -93 -151 -156 1 -108 201 -372 388 -513
166 -124 279 -164 485 -172 142 -6 242 4 347 34 l55 16 -114 23 c-377 75 -527
193 -751 594 -68 122 -93 154 -135 174 -41 20 -67 20 -124 0z"/>
<path d="M10132 3814 c-41 -21 -65 -52 -132 -174 -223 -400 -374 -519 -751
-594 l-114 -23 55 -16 c156 -45 419 -49 552 -9 208 63 431 242 579 466 67 102
94 172 85 221 -17 91 -189 172 -274 129z"/>
<path d="M1862 3668 c-30 -11 -74 -39 -98 -62 -38 -36 -44 -48 -44 -82 1 -73
58 -170 173 -291 124 -130 276 -225 405 -252 117 -24 321 -9 437 32 l40 15
-30 7 c-121 28 -158 39 -217 61 -91 35 -173 89 -236 158 -49 54 -148 210 -206
323 -13 28 -41 64 -61 81 -43 38 -84 41 -163 10z"/>
<path d="M10775 3658 c-20 -17 -48 -53 -61 -81 -58 -113 -157 -269 -206 -323
-63 -69 -145 -123 -236 -158 -59 -22 -96 -33 -217 -61 l-30 -7 40 -15 c116
-41 320 -56 437 -32 129 27 281 122 405 252 115 121 172 218 173 291 0 34 -6
46 -44 82 -48 45 -135 84 -191 84 -24 0 -45 -9 -70 -32z"/>
<path d="M1292 3561 c-219 -81 -226 -191 -23 -391 97 -95 183 -151 284 -181
95 -29 269 -23 377 13 l75 25 -75 23 c-150 45 -267 119 -323 203 -19 28 -62
104 -96 167 -34 63 -70 123 -79 133 -27 27 -80 30 -140 8z"/>
<path d="M11392 3570 c-25 -11 -51 -50 -137 -211 -35 -66 -79 -131 -106 -159
-54 -54 -173 -119 -279 -151 l-75 -22 75 -25 c108 -36 282 -42 377 -13 101 30
187 86 284 181 146 144 181 233 118 305 -56 64 -202 118 -257 95z"/>
<path d="M680 3406 c-122 -43 -170 -81 -170 -135 0 -39 53 -123 107 -171 66
-59 111 -86 182 -110 103 -34 289 -23 378 24 26 13 26 14 -58 57 -124 64 -186
130 -234 247 -21 51 -46 97 -56 103 -29 15 -80 10 -149 -15z"/>
<path d="M11968 3418 c-9 -7 -35 -56 -57 -108 -49 -116 -105 -174 -231 -239
-83 -44 -83 -44 -57 -57 89 -47 275 -58 378 -24 106 36 210 117 259 204 36 63
38 95 5 134 -51 61 -256 123 -297 90z"/>
<path d="M169 3221 c-112 -44 -178 -116 -165 -182 15 -83 153 -205 295 -263
241 -97 567 -60 708 80 52 53 55 68 8 48 -48 -20 -168 -18 -256 5 -152 39
-281 117 -385 236 -87 99 -118 110 -205 76z"/>
<path d="M12510 3226 c-14 -8 -52 -44 -84 -81 -105 -119 -233 -197 -385 -236
-88 -23 -208 -25 -256 -5 -47 20 -44 5 8 -48 141 -140 467 -177 708 -80 142
58 280 180 295 263 13 67 -54 139 -168 183 -57 21 -84 22 -118 4z"/>
<path d="M1305 2935 c-108 -31 -196 -85 -291 -180 -92 -92 -134 -158 -134
-210 0 -82 239 -191 313 -142 14 9 53 72 91 145 55 106 78 141 131 191 71 68
169 121 241 129 24 2 44 8 44 12 0 4 -28 20 -62 36 -55 25 -76 29 -173 31 -72
1 -127 -3 -160 -12z"/>
<path d="M1990 2926 c-106 -32 -125 -41 -199 -91 -79 -52 -195 -169 -244 -245
-84 -132 -65 -197 78 -269 76 -39 141 -42 177 -8 14 13 46 63 73 113 86 160
118 208 176 265 95 94 207 152 354 183 l60 12 -32 17 c-97 51 -314 63 -443 23z"/>
<path d="M2821 2935 c-172 -38 -292 -99 -407 -208 -101 -96 -165 -179 -210
-272 -49 -100 -44 -153 21 -207 31 -27 121 -58 168 -58 76 0 103 29 196 205
110 207 193 289 396 390 101 50 228 93 330 111 l40 7 -30 9 c-130 39 -377 50
-504 23z"/>
<path d="M3775 2935 c-337 -61 -562 -213 -751 -505 -115 -179 -124 -284 -29
-349 47 -32 129 -54 170 -47 47 9 108 81 173 205 74 140 159 266 223 330 100
100 275 200 459 262 102 34 250 68 294 69 55 0 13 18 -79 34 -109 19 -359 20
-460 1z"/>
<path d="M4795 2943 c-183 -23 -390 -81 -520 -144 -213 -104 -428 -330 -556
-587 -45 -89 -53 -112 -56 -175 -4 -60 -1 -77 17 -105 27 -44 109 -82 174 -82
46 0 53 3 96 48 25 26 67 90 94 142 130 250 221 386 326 484 112 103 322 213
556 291 125 42 352 95 408 95 14 0 26 4 26 8 0 23 -433 42 -565 25z"/>
<path d="M5875 2939 c-435 -41 -788 -145 -1027 -302 -173 -113 -317 -259 -443
-447 -104 -156 -150 -288 -146 -419 1 -46 69 -114 130 -131 97 -26 168 36 255
221 113 241 292 468 474 602 229 168 613 323 1107 448 l150 37 -205 0 c-113 0
-245 -4 -295 -9z"/>
<path d="M6575 2911 c494 -125 878 -280 1107 -448 182 -134 361 -361 474 -602
61 -129 111 -194 168 -216 42 -16 48 -16 95 0 63 21 121 81 122 128 4 128 -42
261 -146 417 -126 188 -270 334 -443 447 -303 200 -797 315 -1342 312 l-185
-1 150 -37z"/>
<path d="M7518 2938 c-74 -10 -107 -28 -52 -28 109 0 464 -102 639 -184 321
-150 438 -273 651 -686 27 -52 69 -116 94 -142 43 -45 50 -48 96 -48 65 0 147
38 174 82 18 28 21 45 17 105 -3 63 -11 86 -56 175 -126 252 -341 481 -547
583 -98 48 -227 91 -369 121 -105 23 -149 26 -345 29 -124 2 -260 -1 -302 -7z"/>
<path d="M8555 2934 c-84 -16 -121 -34 -69 -34 44 -1 192 -35 294 -69 185 -62
356 -160 459 -263 64 -63 149 -189 223 -329 65 -124 126 -196 173 -205 41 -7
123 15 170 47 95 65 86 170 -29 349 -168 259 -369 410 -641 481 -110 29 -135
32 -310 35 -138 2 -212 -1 -270 -12z"/>
<path d="M9570 2935 c-36 -8 -78 -18 -95 -23 l-30 -9 40 -8 c137 -25 273 -74
389 -140 160 -91 219 -151 314 -321 28 -49 65 -115 83 -147 38 -68 80 -97 137
-97 46 0 136 31 167 58 65 54 70 107 21 207 -76 158 -240 326 -389 400 -141
69 -222 87 -412 91 -111 2 -180 -1 -225 -11z"/>
<path d="M10457 2935 c-31 -8 -72 -22 -90 -32 l-32 -17 60 -12 c147 -31 259
-89 354 -183 58 -57 90 -105 176 -265 27 -50 59 -100 73 -113 36 -34 101 -31
177 8 107 54 143 105 124 175 -27 96 -188 279 -314 356 -33 20 -96 49 -140 64
-68 24 -99 28 -205 31 -84 1 -144 -2 -183 -12z"/>
<path d="M11235 2943 c-34 -8 -135 -55 -135 -63 0 -4 20 -10 44 -12 72 -8 170
-61 241 -129 53 -50 76 -85 131 -191 38 -73 77 -136 91 -145 74 -49 313 60
313 142 0 52 -42 118 -134 210 -97 97 -186 151 -296 180 -52 14 -210 19 -255
8z"/>
</g>
</svg>
